<svg width="16" height="16" viewBox="0 0 16 16" fill="none" xmlns="http://www.w3.org/2000/svg">
<path d="M8 0.25C3.71875 0.25 0.25 3.75 0.25 8C0.25 12.2812 3.71875 15.75 8 15.75C12.25 15.75 15.75 12.2812 15.75 8C15.75 3.75 12.25 0.25 8 0.25ZM14.75 8C14.75 11.7188 11.7188 14.75 8 14.75C4.28125 14.75 1.25 11.75 1.25 8C1.25 4.3125 4.25 1.25 8 1.25C11.6875 1.25 14.75 4.28125 14.75 8ZM11.25 11.1875C11.375 11.0312 11.4062 10.8438 11.2812 10.6875L11 10.3125C10.8438 10.1562 10.5938 10.125 10.4375 10.2812C10.2188 10.5 9.375 11.1875 8.125 11.1875C6.4375 11.1875 5.15625 9.8125 5.15625 8C5.15625 6.21875 6.40625 4.90625 8.125 4.90625C9.21875 4.90625 10 5.4375 10.2812 5.65625C10.4375 5.78125 10.6875 5.75 10.8125 5.59375L11.0938 5.21875C11.125 5.15625 11.1562 5.0625 11.1562 5C11.1562 4.90625 11.0938 4.78125 11.0312 4.71875C10.75 4.46875 9.75 3.6875 8.09375 3.6875C5.6875 3.6875 3.84375 5.5625 3.84375 8C3.84375 10.5 5.6875 12.4062 8.125 12.4062C9.875 12.4062 10.9688 11.4688 11.25 11.1875Z" fill="#6379C9"/>
</svg>
