<svg width="14" height="15" viewBox="0 0 14 15" fill="none" xmlns="http://www.w3.org/2000/svg">
<path d="M7 0.96875C3.22656 0.96875 0.21875 4.00391 0.21875 7.75C0.21875 11.5234 3.22656 14.5312 7 14.5312C8.42188 14.5312 9.84375 14.0664 11.0195 13.2188C11.1562 13.1094 11.1836 12.8906 11.0742 12.7539L10.9375 12.5898C10.8281 12.4531 10.6094 12.4258 10.4727 12.5352C9.46094 13.2734 8.23047 13.6562 7 13.6562C3.71875 13.6562 1.09375 11.0312 1.09375 7.75C1.09375 4.49609 3.71875 1.84375 7 1.84375C10.2266 1.84375 12.9062 4.05859 12.9062 7.3125C12.9062 9.30859 11.457 10.293 9.70703 10.293C9.1875 10.293 9.07812 9.99219 9.1875 9.36328L10.0625 4.87891C10.0898 4.66016 9.95312 4.46875 9.73438 4.46875H9.40625C9.24219 4.46875 9.10547 4.60547 9.07812 4.74219C9.02344 5.07031 8.99609 5.125 8.96875 5.45312C8.64062 4.71484 7.92969 4.27734 6.97266 4.27734C5.11328 4.27734 3.33594 6 3.33594 8.57031C3.33594 10.2383 4.26562 11.25 5.79688 11.25C6.89062 11.25 7.73828 10.5938 8.17578 9.96484C8.14844 10.7305 8.64062 11.1133 9.43359 11.1133C12.3867 11.1133 13.7812 9.55469 13.7812 7.3125C13.7812 3.59375 10.7461 0.96875 7 0.96875ZM5.96094 10.3477C4.94922 10.3477 4.34766 9.66406 4.34766 8.51562C4.34766 6.46484 5.74219 5.17969 7 5.17969C8.06641 5.17969 8.58594 5.94531 8.58594 6.98438C8.58594 8.57031 7.54688 10.3477 5.96094 10.3477Z" fill="#6379C9"/>
</svg>
