<svg width="45" height="45" viewBox="0 0 45 45" fill="none" xmlns="http://www.w3.org/2000/svg">
<g filter="url(#filter0_d_0_34)">
<circle cx="22.5" cy="20.5" r="17.5" fill="#6379C9"/>
</g>
<path d="M30.5312 16.6875C30.625 16.3125 30.5312 16 29.9688 16H28.125C27.6562 16 27.4375 16.25 27.3125 16.5312C27.3125 16.5312 26.375 18.8125 25.0625 20.3125C24.625 20.7188 24.4375 20.875 24.1875 20.875C24.0938 20.875 23.9062 20.7188 23.9062 20.3438V16.6875C23.9062 16.2188 23.7812 16 23.375 16H20.5C20.1875 16 20.0312 16.2188 20.0312 16.4375C20.0312 16.875 20.6875 16.9688 20.75 18.2188V20.9375C20.75 21.5312 20.6562 21.6562 20.4062 21.6562C19.7812 21.6562 18.2812 19.3438 17.375 16.7188C17.1875 16.2188 17 16 16.5312 16H14.6875C14.1875 16 14.0625 16.25 14.0625 16.5312C14.0625 17.0312 14.6875 19.4375 16.9688 22.6562C18.5 24.8438 20.6562 26 22.5938 26C23.75 26 23.9062 25.75 23.9062 25.3125C23.9062 23.2188 23.8125 23 24.375 23C24.6562 23 25.125 23.1562 26.2188 24.2188C27.4688 25.4688 27.6875 26 28.375 26H30.2188C30.75 26 31 25.75 30.8438 25.2188C30.5 24.1562 28.1562 21.9062 28.0312 21.75C27.75 21.4062 27.8438 21.25 28.0312 20.9375C28.0312 20.9375 30.2812 17.75 30.5312 16.6875Z" fill="white"/>
<defs>
<filter id="filter0_d_0_34" x="0" y="0" width="45" height="45" filterUnits="userSpaceOnUse" color-interpolation-filters="sRGB">
<feFlood flood-opacity="0" result="BackgroundImageFix"/>
<feColorMatrix in="SourceAlpha" type="matrix" values="0 0 0 0 0 0 0 0 0 0 0 0 0 0 0 0 0 0 127 0" result="hardAlpha"/>
<feOffset dy="2"/>
<feGaussianBlur stdDeviation="2.5"/>
<feColorMatrix type="matrix" values="0 0 0 0 0.388235 0 0 0 0 0.47451 0 0 0 0 0.788235 0 0 0 0.2 0"/>
<feBlend mode="normal" in2="BackgroundImageFix" result="effect1_dropShadow_0_34"/>
<feBlend mode="normal" in="SourceGraphic" in2="effect1_dropShadow_0_34" result="shape"/>
</filter>
</defs>
</svg>
