<svg width="20" height="25" viewBox="0 0 20 25" fill="none" xmlns="http://www.w3.org/2000/svg">
<path d="M18.76 0H1.24C0.55617 0 0 0.545 0 1.21417V23.7858C0 24.455 0.55617 25 1.24 25H18.76C19.4438 25 20 24.455 20 23.7858V1.21417C20 0.545 19.4438 0 18.76 0ZM19.1489 23.7858C19.1489 23.9958 18.9745 24.1667 18.76 24.1667H1.24C1.02553 24.1667 0.851064 23.9958 0.851064 23.7858V1.21417C0.851064 1.00417 1.02553 0.833333 1.24 0.833333H18.76C18.9745 0.833333 19.1489 1.00417 19.1489 1.21417V23.7858Z" fill="#6379C9"/>
<path d="M2.12769 22.9166H6.80856V18.3333H2.12769V22.9166ZM2.97875 19.1666H5.9575V22.0833H2.97875V19.1666Z" fill="#6379C9"/>
<path d="M7.6597 22.9166H12.3405V18.3333H7.6597V22.9166ZM8.51076 19.1666H11.4895V22.0833H8.51076V19.1666Z" fill="#6379C9"/>
<path d="M13.1915 22.9167H17.8724V12.9167H13.1915V22.9167ZM14.0426 13.7501H17.0213V22.0834H14.0426V13.7501Z" fill="#6379C9"/>
<path d="M2.12769 17.5001H6.80856V12.9167H2.12769V17.5001ZM2.97875 13.7501H5.9575V16.6667H2.97875V13.7501Z" fill="#6379C9"/>
<path d="M7.6597 17.5001H12.3405V12.9167H7.6597V17.5001ZM8.51076 13.7501H11.4895V16.6667H8.51076V13.7501Z" fill="#6379C9"/>
<path d="M2.12769 12.0833H6.80856V7.5H2.12769V12.0833ZM2.97875 8.33333H5.9575V11.25H2.97875V8.33333Z" fill="#6379C9"/>
<path d="M7.6597 12.0833H12.3405V7.5H7.6597V12.0833ZM8.51076 8.33333H11.4895V11.25H8.51076V8.33333Z" fill="#6379C9"/>
<path d="M13.1915 12.0833H17.8724V7.5H13.1915V12.0833ZM14.0426 8.33333H17.0213V11.25H14.0426V8.33333Z" fill="#6379C9"/>
<path d="M2.12769 6.24992H17.8724V2.08325H2.12769V6.24992ZM2.97875 2.91659H17.0213V5.41659H2.97875V2.91659Z" fill="#6379C9"/>
</svg>
