<svg width="28" height="25" viewBox="0 0 28 25" fill="none" xmlns="http://www.w3.org/2000/svg">
<path d="M26.9907 21.4163L26.9907 21.4163L15.5056 1.63977C15.5056 1.63976 15.5056 1.63976 15.5056 1.63975C15.1826 1.08372 14.5998 0.75 14 0.75C13.4002 0.75 12.8174 1.0837 12.4943 1.63981L26.9907 21.4163ZM26.9907 21.4163C27.3267 21.9947 27.337 22.725 27.0166 23.3141C26.6977 23.9004 26.1061 24.25 25.4851 24.25H2.51483C1.89388 24.25 1.3023 23.9004 0.983361 23.3142C0.663022 22.7251 0.673271 21.9948 1.00925 21.4163C1.00925 21.4163 1.00926 21.4163 1.00926 21.4162L12.4943 1.63984L26.9907 21.4163Z" stroke="#6379C9" stroke-width="1.5"/>
<path d="M14.008 7.78735C13.3146 7.78735 12.7734 8.17369 12.7734 8.85859C12.7734 10.9483 13.0102 13.9511 13.0102 16.0408C13.0102 16.5852 13.4669 16.8134 14.0081 16.8134C14.414 16.8134 14.989 16.5852 14.989 16.0408C14.989 13.9511 15.2258 10.9483 15.2258 8.85859C15.2258 8.17375 14.6677 7.78735 14.008 7.78735Z" fill="#6379C9"/>
<path d="M14.0254 18.0251C13.2812 18.0251 12.723 18.6397 12.723 19.3773C12.723 20.0973 13.2812 20.7295 14.0254 20.7295C14.7188 20.7295 15.3108 20.0973 15.3108 19.3773C15.3108 18.6397 14.7187 18.0251 14.0254 18.0251Z" fill="#6379C9"/>
</svg>
