<svg width="436" height="269" viewBox="0 0 436 269" fill="none" xmlns="http://www.w3.org/2000/svg">
<path d="M255.172 10.7505L432.052 111.645C437.903 115.206 437.165 121.429 430.415 125.542L219.612 253.96C212.857 258.074 180.853 271.796 175.007 268.23L3.2915 163.629" fill="#455198"/>
<path d="M430.347 107.295H426.077V108.194L263.54 9.1833C257.889 5.74282 248.021 6.17476 241.494 10.1476L5.39955 153.965C4.35227 154.603 3.45256 155.296 2.70995 156.019V154.874H0.00129983V161.298H0.00606019C-0.0986677 163.578 1.15331 165.768 3.81435 167.39L166.809 266.677C172.46 270.118 182.328 269.686 188.854 265.713L424.949 121.901C428.51 119.731 430.333 116.958 430.343 114.322V107.295H430.347Z" fill="url(#paint0_linear_0_2092)"/>
<path d="M5.3997 147.104L241.495 3.28681C248.021 -0.686079 257.889 -1.11802 263.54 2.32247L426.534 101.609C432.185 105.05 431.476 111.062 424.954 115.04L188.854 258.857C182.328 262.83 172.46 263.262 166.809 259.822L3.8145 160.535C-1.83605 157.089 -1.12676 151.077 5.3997 147.104Z" fill="#EBEBFC"/>
<path d="M7.77104 148.178L243.318 4.69738C248.855 1.32219 257.233 0.955538 262.031 3.8787L423.998 102.543C428.792 105.466 428.192 110.569 422.655 113.939L187.103 257.42C181.567 260.795 173.189 261.162 168.39 258.239L6.42861 159.58C1.63493 156.657 2.23474 151.554 7.77104 148.178Z" fill="#F7F7FF"/>
<path d="M332.775 60.4987C333.74 60.4987 334.523 60.0221 334.523 59.4343C334.523 58.8464 333.74 58.3699 332.775 58.3699C331.81 58.3699 331.027 58.8464 331.027 59.4343C331.027 60.0221 331.81 60.4987 332.775 60.4987Z" fill="#474747"/>
<path d="M96.6178 208.089C100.964 208.089 104.487 205.941 104.487 203.292C104.487 200.643 100.964 198.496 96.6178 198.496C92.2719 198.496 88.7489 200.643 88.7489 203.292C88.7489 205.941 92.2719 208.089 96.6178 208.089Z" stroke="#474747" stroke-miterlimit="10"/>
<path d="M27.8112 147.014L241.78 16.6772L402.97 114.864L189.002 245.206L27.8112 147.014Z" fill="url(#paint1_linear_0_2092)"/>
<path d="M27.8112 147.014L241.78 16.6772C242.732 17.28 242.199 16.9535 242.732 17.28L402.961 114.869L402.399 115.221L242.732 17.9681C242.199 17.6416 242.732 17.9681 241.789 17.3704L28.3396 147.341" fill="url(#paint2_linear_0_2092)"/>
<path d="M91.6047 218.847L82.1649 213.096C81.4747 212.674 80.8225 211.715 80.7035 210.957L80.6892 210.856C80.575 210.098 81.0415 209.822 81.7317 210.238L91.1715 215.989C91.8617 216.411 92.5139 217.371 92.6329 218.129L92.6472 218.23C92.7614 218.993 92.2949 219.269 91.6047 218.847Z" fill="#545454"/>
<path d="M384.182 142.87L384.172 142.569L383.796 142.318L383.768 142.298C383.568 142.157 383.244 142.187 382.839 142.438L370.139 150.173C369.377 150.64 368.639 151.67 368.496 152.484C368.434 152.845 368.501 153.091 368.658 153.227L368.706 153.267C368.711 153.272 368.715 153.272 368.72 153.277L369.158 153.568L369.134 153.312C369.277 153.282 369.439 153.217 369.615 153.111L382.316 145.377C383.077 144.91 383.815 143.88 383.958 143.066C383.967 143.001 383.972 142.941 383.972 142.88L384.182 142.87Z" fill="#5D6EA3"/>
<path d="M382.768 145.678L370.067 153.413C369.306 153.88 368.801 153.598 368.944 152.785C369.087 151.976 369.824 150.941 370.586 150.474L383.287 142.739C384.048 142.272 384.553 142.554 384.41 143.367C384.267 144.181 383.529 145.211 382.768 145.678Z" fill="#CED5E0"/>
<path d="M401.381 132.478L401.372 132.177L400.995 131.926L400.967 131.906C400.767 131.765 400.443 131.795 400.039 132.047L387.338 139.781C386.576 140.249 385.838 141.278 385.696 142.092C385.634 142.453 385.7 142.7 385.858 142.835L385.905 142.875C385.91 142.88 385.915 142.88 385.919 142.885L386.357 143.177L386.334 142.921C386.476 142.89 386.638 142.825 386.814 142.72L399.515 134.985C400.277 134.518 401.014 133.488 401.157 132.674C401.167 132.609 401.172 132.549 401.172 132.489L401.381 132.478Z" fill="#5D6EA3"/>
<path d="M399.967 135.286L387.267 143.021C386.505 143.488 386 143.207 386.143 142.393C386.286 141.584 387.024 140.55 387.785 140.083L400.486 132.348C401.248 131.881 401.752 132.162 401.609 132.976C401.462 133.784 400.729 134.819 399.967 135.286Z" fill="#CED5E0"/>
<circle cx="24.4783" cy="24.4783" r="23.4783" transform="matrix(0.625985 0.381555 -0.625985 0.381555 242.501 95.5989)" stroke="#F1F2F4" stroke-width="2"/>
<path d="M253.936 121.041C247.621 124.89 237.382 124.89 231.067 121.041C224.752 117.192 224.752 110.951 231.067 107.102C237.382 103.252 247.621 103.252 253.936 107.102C260.251 110.951 260.251 117.192 253.936 121.041Z" stroke="url(#paint3_linear_0_2092)"/>
<mask id="path-16-inside-1_0_2092" fill="white">
<path d="M257.824 104.939C259.837 106.165 261.433 107.621 262.522 109.224C263.611 110.826 264.171 112.544 264.171 114.279C264.171 116.013 263.611 117.731 262.522 119.333C261.433 120.936 259.837 122.392 257.824 123.618C255.812 124.845 253.423 125.818 250.794 126.482C248.165 127.145 245.347 127.487 242.501 127.487C239.655 127.487 236.838 127.145 234.208 126.482C231.579 125.818 229.19 124.845 227.178 123.618L228.868 122.588C230.658 123.68 232.784 124.545 235.123 125.136C237.462 125.727 239.969 126.031 242.501 126.031C245.033 126.031 247.54 125.727 249.88 125.136C252.219 124.545 254.344 123.68 256.135 122.588C257.925 121.497 259.345 120.202 260.314 118.776C261.283 117.35 261.782 115.822 261.782 114.279C261.782 112.735 261.283 111.207 260.314 109.781C259.345 108.355 257.925 107.06 256.135 105.969L257.824 104.939Z"/>
</mask>
<path d="M257.824 104.939C259.837 106.165 261.433 107.621 262.522 109.224C263.611 110.826 264.171 112.544 264.171 114.279C264.171 116.013 263.611 117.731 262.522 119.333C261.433 120.936 259.837 122.392 257.824 123.618C255.812 124.845 253.423 125.818 250.794 126.482C248.165 127.145 245.347 127.487 242.501 127.487C239.655 127.487 236.838 127.145 234.208 126.482C231.579 125.818 229.19 124.845 227.178 123.618L228.868 122.588C230.658 123.68 232.784 124.545 235.123 125.136C237.462 125.727 239.969 126.031 242.501 126.031C245.033 126.031 247.54 125.727 249.88 125.136C252.219 124.545 254.344 123.68 256.135 122.588C257.925 121.497 259.345 120.202 260.314 118.776C261.283 117.35 261.782 115.822 261.782 114.279C261.782 112.735 261.283 111.207 260.314 109.781C259.345 108.355 257.925 107.06 256.135 105.969L257.824 104.939Z" stroke="url(#paint4_linear_0_2092)" stroke-width="20" stroke-linecap="round" mask="url(#path-16-inside-1_0_2092)"/>
<path d="M240.032 111.552C239.706 111.744 239.385 111.841 239.069 111.843C238.756 111.845 238.438 111.747 238.117 111.552L237.058 110.906C236.418 110.516 236.417 110.126 237.055 109.737L237.292 109.593L237.845 109.93L237.636 110.058C237.487 110.148 237.411 110.235 237.408 110.318C237.404 110.4 237.477 110.488 237.628 110.579L238.651 111.203C238.801 111.295 238.944 111.339 239.08 111.337C239.216 111.335 239.358 111.288 239.507 111.198L240.037 110.874C240.186 110.784 240.261 110.698 240.263 110.616C240.267 110.533 240.193 110.446 240.043 110.355L238.156 109.204L240.156 107.985L242.918 109.669L242.354 110.012L240.156 108.673L239.27 109.213L240.612 110.031C240.935 110.228 241.097 110.422 241.097 110.614C241.098 110.806 240.937 111 240.612 111.198L240.032 111.552ZM243.586 114.198C243.509 114.245 243.421 114.28 243.322 114.305C243.225 114.328 243.125 114.34 243.022 114.34C242.92 114.34 242.819 114.328 242.72 114.303C242.622 114.28 242.535 114.245 242.458 114.198L240.486 112.995C240.409 112.948 240.35 112.895 240.31 112.834C240.271 112.775 240.252 112.714 240.252 112.652C240.252 112.589 240.271 112.528 240.31 112.469C240.35 112.409 240.409 112.355 240.486 112.308L243.303 110.591C243.38 110.544 243.467 110.509 243.564 110.485C243.663 110.461 243.763 110.449 243.864 110.45C243.967 110.45 244.067 110.462 244.164 110.485C244.265 110.509 244.354 110.544 244.431 110.591L246.403 111.793C246.48 111.84 246.537 111.894 246.574 111.954C246.614 112.014 246.634 112.076 246.634 112.139C246.636 112.2 246.617 112.261 246.576 112.321C246.538 112.381 246.48 112.434 246.403 112.481L243.586 114.198ZM243.867 110.935L241.05 112.652L243.022 113.854L245.839 112.137L243.867 110.935ZM248.155 114.655C248.078 114.702 247.99 114.738 247.891 114.763C247.794 114.786 247.694 114.798 247.591 114.798C247.489 114.798 247.389 114.786 247.292 114.763C247.194 114.739 247.107 114.704 247.03 114.657L246.398 114.271C246.321 114.224 246.262 114.171 246.222 114.11C246.183 114.051 246.164 113.99 246.164 113.928C246.166 113.866 246.185 113.805 246.222 113.745C246.262 113.685 246.321 113.631 246.398 113.584L247.305 113.031C247.382 112.984 247.469 112.948 247.567 112.925C247.668 112.901 247.768 112.89 247.867 112.89C247.969 112.89 248.069 112.901 248.166 112.925C248.267 112.948 248.356 112.984 248.433 113.031L249.066 113.416C249.143 113.463 249.2 113.517 249.236 113.577C249.275 113.636 249.294 113.697 249.294 113.76C249.296 113.821 249.277 113.882 249.236 113.943C249.198 114.002 249.14 114.055 249.063 114.102L248.155 114.655ZM244.568 115.484L251.324 114.793L251.842 115.108L245.085 115.799L244.568 115.484ZM247.867 113.279L246.802 113.928L247.591 114.409L248.656 113.76L247.867 113.279ZM249.104 117.561C249.027 117.608 248.939 117.644 248.84 117.669C248.743 117.692 248.643 117.704 248.541 117.704C248.438 117.704 248.337 117.691 248.238 117.667C248.141 117.643 248.054 117.608 247.977 117.561L247.344 117.176C247.267 117.129 247.209 117.076 247.171 117.016C247.132 116.957 247.113 116.896 247.113 116.833C247.113 116.771 247.132 116.71 247.171 116.651C247.211 116.59 247.27 116.537 247.347 116.49L248.254 115.936C248.331 115.889 248.419 115.854 248.516 115.831C248.613 115.807 248.713 115.796 248.816 115.796C248.918 115.796 249.018 115.807 249.115 115.831C249.213 115.854 249.3 115.889 249.377 115.936L250.009 116.322C250.087 116.369 250.144 116.422 250.183 116.481C250.223 116.542 250.243 116.603 250.243 116.666C250.243 116.728 250.224 116.789 250.186 116.849C250.147 116.908 250.089 116.961 250.012 117.008L249.104 117.561ZM248.816 116.185L247.751 116.833L248.541 117.315L249.605 116.666L248.816 116.185Z" fill="#DDE2F9"/>
<path d="M234.295 112.335C234.321 112.319 234.35 112.307 234.382 112.3C234.415 112.291 234.449 112.287 234.482 112.288C234.516 112.288 234.55 112.292 234.582 112.3C234.616 112.307 234.645 112.319 234.671 112.335L235.384 112.77C235.41 112.785 235.429 112.803 235.441 112.823C235.455 112.843 235.461 112.864 235.461 112.885C235.462 112.905 235.456 112.926 235.442 112.946C235.429 112.965 235.41 112.983 235.384 112.999L235.215 113.102L235.027 112.988L235.196 112.884L234.483 112.449L233.544 113.022L234.258 113.457L234.426 113.354L234.614 113.468L234.445 113.571C234.42 113.587 234.39 113.599 234.357 113.607C234.325 113.615 234.292 113.619 234.258 113.619C234.223 113.619 234.19 113.615 234.157 113.606C234.124 113.599 234.095 113.587 234.07 113.571L233.356 113.136C233.33 113.121 233.311 113.103 233.297 113.083C233.285 113.063 233.278 113.043 233.278 113.022C233.278 113.001 233.285 112.981 233.297 112.961C233.311 112.941 233.33 112.923 233.356 112.907L234.295 112.335ZM235.873 114.441C235.848 114.457 235.818 114.469 235.785 114.477C235.753 114.485 235.719 114.489 235.685 114.489C235.651 114.489 235.617 114.485 235.584 114.477C235.552 114.469 235.523 114.457 235.497 114.441L234.746 113.984C234.721 113.968 234.701 113.95 234.688 113.93C234.675 113.91 234.668 113.89 234.668 113.869C234.668 113.848 234.675 113.828 234.688 113.808C234.701 113.788 234.721 113.77 234.746 113.754L235.685 113.182C235.711 113.166 235.74 113.155 235.772 113.147C235.805 113.139 235.839 113.135 235.872 113.135C235.907 113.135 235.94 113.139 235.972 113.147C236.006 113.155 236.036 113.166 236.061 113.182L236.812 113.64C236.838 113.656 236.857 113.673 236.869 113.694C236.882 113.714 236.889 113.734 236.889 113.755C236.89 113.776 236.883 113.796 236.87 113.816C236.857 113.836 236.838 113.853 236.812 113.869L235.873 114.441ZM235.873 113.297L234.934 113.869L235.685 114.327L236.624 113.754L235.873 113.297ZM236.702 115.176L237.175 114.289L236.212 114.877L236.024 114.762L237.339 113.961L237.544 114.086L237.054 114.995L238.546 114.697L238.751 114.821L237.436 115.623L237.249 115.509L238.212 114.921L236.758 115.21L236.702 115.176ZM237.775 115.83L239.09 115.028L239.81 115.467C240.022 115.597 240.022 115.727 239.809 115.857L239.622 115.971C239.408 116.101 239.195 116.101 238.983 115.971L238.451 115.647L237.963 115.944L237.775 115.83ZM238.639 115.532L239.161 115.85C239.211 115.881 239.258 115.896 239.302 115.896C239.346 115.896 239.393 115.881 239.443 115.85L239.612 115.748C239.662 115.717 239.687 115.688 239.687 115.661C239.687 115.635 239.662 115.606 239.612 115.575L239.09 115.257L238.639 115.532ZM240.58 115.936L239.453 116.623L240.129 117.035L239.941 117.15L239.077 116.623L240.392 115.822L240.58 115.936ZM241.481 116.486L242.44 117.07L242.252 117.185L241.481 116.715L241.105 116.944L241.763 117.345L241.575 117.46L240.917 117.059L240.542 117.287L241.313 117.757L241.125 117.871L240.166 117.287L241.481 116.486ZM242.608 117.173L243.66 117.814L243.472 117.928L243.04 117.665L241.913 118.352L241.725 118.238L242.852 117.551L242.42 117.287L242.608 117.173ZM243.886 117.951L244.844 118.535L244.656 118.65L243.886 118.181L243.51 118.41L244.167 118.81L243.979 118.925L243.322 118.524L242.947 118.753L243.717 119.222L243.529 119.337L242.571 118.753L243.886 117.951ZM244.667 119.801C244.754 119.855 244.845 119.881 244.939 119.881C245.033 119.881 245.124 119.855 245.212 119.801L245.606 119.561C245.649 119.535 245.681 119.508 245.702 119.48C245.724 119.452 245.734 119.424 245.733 119.395C245.734 119.366 245.724 119.338 245.702 119.31C245.681 119.282 245.649 119.255 245.606 119.229L245.125 118.936L244.186 119.509L244.667 119.801ZM243.81 119.509L245.125 118.707L245.794 119.114C245.864 119.157 245.916 119.203 245.951 119.25C245.986 119.298 246.003 119.346 246.003 119.395C246.003 119.444 245.986 119.492 245.951 119.54C245.916 119.588 245.864 119.633 245.794 119.676L245.4 119.916C245.33 119.958 245.256 119.99 245.177 120.012C245.098 120.033 245.019 120.044 244.938 120.044C244.859 120.044 244.78 120.033 244.701 120.012C244.623 119.991 244.549 119.959 244.479 119.916L243.81 119.509Z" fill="#DDE2F9"/>
<path d="M296.337 147.313C288.22 152.26 275.06 152.26 266.943 147.313C258.826 142.365 258.826 134.344 266.943 129.396C275.06 124.449 288.22 124.449 296.337 129.396C304.454 134.344 304.454 142.365 296.337 147.313Z" stroke="#F1F2F4" stroke-width="2"/>
<path d="M293.075 145.117C286.76 148.966 276.521 148.966 270.206 145.117C263.89 141.268 263.89 135.027 270.206 131.178C276.521 127.328 286.76 127.328 293.075 131.178C299.39 135.027 299.39 141.268 293.075 145.117Z" stroke="url(#paint5_linear_0_2092)"/>
<mask id="path-21-inside-2_0_2092" fill="white">
<path d="M296.963 129.015C299.994 130.862 302.058 133.215 302.894 135.778C303.73 138.34 303.301 140.996 301.661 143.409C300.021 145.823 297.243 147.886 293.679 149.337C290.116 150.788 285.926 151.563 281.64 151.563C277.354 151.563 273.164 150.788 269.601 149.337C266.037 147.886 263.26 145.823 261.62 143.409C259.979 140.996 259.55 138.34 260.386 135.778C261.223 133.215 263.286 130.862 266.317 129.015L268.008 130.045C265.312 131.689 263.475 133.782 262.732 136.062C261.988 138.341 262.37 140.704 263.829 142.851C265.288 144.999 267.759 146.834 270.929 148.125C274.1 149.416 277.827 150.105 281.64 150.105C285.453 150.105 289.181 149.416 292.351 148.125C295.521 146.834 297.992 144.999 299.452 142.851C300.911 140.704 301.293 138.341 300.549 136.062C299.805 133.782 297.969 131.689 295.272 130.045L296.963 129.015Z"/>
</mask>
<path d="M296.963 129.015C299.994 130.862 302.058 133.215 302.894 135.778C303.73 138.34 303.301 140.996 301.661 143.409C300.021 145.823 297.243 147.886 293.679 149.337C290.116 150.788 285.926 151.563 281.64 151.563C277.354 151.563 273.164 150.788 269.601 149.337C266.037 147.886 263.26 145.823 261.62 143.409C259.979 140.996 259.55 138.34 260.386 135.778C261.223 133.215 263.286 130.862 266.317 129.015L268.008 130.045C265.312 131.689 263.475 133.782 262.732 136.062C261.988 138.341 262.37 140.704 263.829 142.851C265.288 144.999 267.759 146.834 270.929 148.125C274.1 149.416 277.827 150.105 281.64 150.105C285.453 150.105 289.181 149.416 292.351 148.125C295.521 146.834 297.992 144.999 299.452 142.851C300.911 140.704 301.293 138.341 300.549 136.062C299.805 133.782 297.969 131.689 295.272 130.045L296.963 129.015Z" stroke="url(#paint6_linear_0_2092)" stroke-width="20" stroke-linecap="round" mask="url(#path-21-inside-2_0_2092)"/>
<path d="M276.013 134.87L281.163 133.887L278.959 132.544L279.523 132.201L282.566 134.055L282.395 134.159L276.665 135.267L276.013 134.87ZM282.89 137.895C282.564 138.087 282.243 138.184 281.928 138.187C281.614 138.188 281.297 138.09 280.976 137.895L279.917 137.249C279.277 136.859 279.276 136.47 279.914 136.081L280.15 135.936L280.703 136.273L280.494 136.401C280.346 136.491 280.27 136.578 280.266 136.661C280.262 136.743 280.336 136.831 280.486 136.922L281.509 137.546C281.66 137.638 281.803 137.682 281.939 137.68C282.074 137.678 282.216 137.632 282.365 137.541L282.896 137.217C283.044 137.127 283.12 137.041 283.121 136.959C283.125 136.877 283.052 136.789 282.901 136.698L281.014 135.547L283.014 134.328L285.776 136.012L285.212 136.356L283.014 135.016L282.128 135.556L283.471 136.374C283.794 136.571 283.955 136.765 283.955 136.958C283.957 137.149 283.795 137.343 283.471 137.541L282.89 137.895ZM286.898 138.49C286.821 138.537 286.733 138.573 286.634 138.597C286.537 138.621 286.437 138.633 286.335 138.633C286.232 138.633 286.132 138.621 286.035 138.597C285.937 138.574 285.85 138.539 285.773 138.492L285.141 138.106C285.064 138.059 285.005 138.006 284.965 137.945C284.926 137.886 284.907 137.825 284.907 137.762C284.909 137.701 284.928 137.64 284.965 137.58C285.005 137.519 285.064 137.466 285.141 137.419L286.048 136.865C286.125 136.818 286.213 136.783 286.31 136.76C286.411 136.736 286.511 136.724 286.61 136.724C286.712 136.724 286.812 136.736 286.909 136.76C287.01 136.783 287.099 136.818 287.176 136.865L287.809 137.251C287.886 137.298 287.943 137.352 287.98 137.412C288.018 137.471 288.037 137.532 288.037 137.595C288.039 137.656 288.02 137.717 287.98 137.777C287.941 137.837 287.883 137.89 287.806 137.937L286.898 138.49ZM283.311 139.318L290.068 138.628L290.585 138.943L283.828 139.634L283.311 139.318ZM286.61 137.113L285.545 137.762L286.335 138.244L287.399 137.595L286.61 137.113ZM287.848 141.396C287.771 141.443 287.682 141.479 287.583 141.503C287.486 141.527 287.386 141.538 287.284 141.538C287.181 141.538 287.08 141.526 286.981 141.502C286.884 141.478 286.797 141.443 286.72 141.396L286.087 141.01C286.01 140.963 285.952 140.91 285.914 140.851C285.875 140.792 285.856 140.731 285.856 140.668C285.856 140.606 285.875 140.545 285.914 140.485C285.954 140.425 286.013 140.371 286.09 140.324L286.997 139.771C287.075 139.724 287.162 139.689 287.259 139.665C287.356 139.642 287.456 139.63 287.559 139.63C287.661 139.63 287.761 139.642 287.859 139.665C287.956 139.689 288.043 139.724 288.12 139.771L288.753 140.157C288.83 140.204 288.887 140.257 288.926 140.316C288.966 140.376 288.986 140.438 288.986 140.501C288.986 140.563 288.967 140.624 288.929 140.683C288.89 140.743 288.832 140.796 288.755 140.843L287.848 141.396ZM287.559 140.019L286.494 140.668L287.284 141.149L288.348 140.501L287.559 140.019Z" fill="#DDE2F9"/>
<path d="M273.434 136.411C273.46 136.395 273.489 136.383 273.522 136.376C273.555 136.367 273.588 136.364 273.621 136.364C273.656 136.364 273.689 136.368 273.721 136.376C273.755 136.383 273.785 136.395 273.81 136.411L274.524 136.846C274.549 136.861 274.568 136.879 274.581 136.899C274.594 136.919 274.601 136.94 274.601 136.961C274.601 136.981 274.595 137.002 274.582 137.022C274.569 137.042 274.549 137.059 274.524 137.075L274.354 137.178L274.166 137.064L274.336 136.96L273.622 136.525L272.683 137.098L273.397 137.533L273.566 137.43L273.754 137.544L273.585 137.647C273.559 137.663 273.53 137.675 273.497 137.683C273.464 137.691 273.431 137.695 273.397 137.695C273.363 137.695 273.329 137.691 273.296 137.682C273.264 137.675 273.235 137.663 273.209 137.647L272.495 137.212C272.47 137.197 272.45 137.179 272.437 137.159C272.424 137.139 272.417 137.119 272.417 137.098C272.417 137.077 272.424 137.057 272.437 137.037C272.45 137.017 272.47 136.999 272.495 136.983L273.434 136.411ZM275.013 138.517C274.987 138.533 274.957 138.545 274.924 138.553C274.892 138.561 274.859 138.565 274.825 138.565C274.79 138.565 274.757 138.561 274.724 138.553C274.691 138.545 274.662 138.533 274.637 138.517L273.886 138.06C273.86 138.044 273.84 138.026 273.827 138.006C273.814 137.986 273.808 137.966 273.808 137.945C273.808 137.924 273.814 137.904 273.827 137.884C273.84 137.864 273.86 137.846 273.886 137.831L274.825 137.258C274.85 137.243 274.879 137.231 274.912 137.223C274.945 137.215 274.978 137.211 275.012 137.211C275.046 137.211 275.079 137.215 275.112 137.223C275.145 137.231 275.175 137.243 275.2 137.258L275.951 137.716C275.977 137.732 275.996 137.749 276.008 137.77C276.022 137.79 276.029 137.81 276.029 137.831C276.029 137.852 276.023 137.872 276.009 137.892C275.996 137.912 275.977 137.929 275.951 137.945L275.013 138.517ZM275.013 137.373L274.074 137.945L274.825 138.403L275.764 137.831L275.013 137.373ZM275.841 139.252L276.315 138.365L275.351 138.953L275.163 138.838L276.478 138.037L276.683 138.162L276.194 139.071L277.685 138.773L277.89 138.897L276.575 139.699L276.388 139.585L277.352 138.998L275.897 139.286L275.841 139.252ZM276.914 139.906L278.229 139.104L278.949 139.543C279.162 139.673 279.161 139.803 278.948 139.933L278.761 140.047C278.548 140.177 278.335 140.177 278.122 140.047L277.59 139.723L277.102 140.02L276.914 139.906ZM277.778 139.608L278.3 139.926C278.35 139.957 278.397 139.972 278.441 139.972C278.485 139.972 278.532 139.957 278.582 139.926L278.751 139.824C278.801 139.793 278.826 139.764 278.826 139.738C278.826 139.711 278.801 139.682 278.751 139.651L278.229 139.333L277.778 139.608ZM279.719 140.013L278.592 140.699L279.268 141.111L279.08 141.226L278.216 140.699L279.531 139.898L279.719 140.013ZM280.621 140.562L281.579 141.146L281.391 141.261L280.621 140.791L280.245 141.02L280.902 141.421L280.714 141.536L280.057 141.135L279.682 141.363L280.452 141.833L280.264 141.948L279.306 141.363L280.621 140.562ZM281.748 141.249L282.799 141.89L282.611 142.005L282.18 141.741L281.053 142.428L280.865 142.314L281.992 141.627L281.56 141.363L281.748 141.249ZM283.025 142.027L283.983 142.611L283.795 142.726L283.025 142.257L282.649 142.486L283.306 142.886L283.119 143.001L282.461 142.6L282.086 142.829L282.856 143.298L282.668 143.413L281.71 142.829L283.025 142.027ZM283.806 143.877C283.894 143.931 283.984 143.957 284.079 143.957C284.173 143.957 284.264 143.931 284.351 143.877L284.745 143.637C284.788 143.611 284.82 143.584 284.842 143.556C284.863 143.528 284.873 143.5 284.873 143.471C284.873 143.442 284.863 143.414 284.842 143.386C284.82 143.358 284.788 143.331 284.745 143.305L284.265 143.012L283.326 143.585L283.806 143.877ZM282.95 143.585L284.265 142.783L284.933 143.191C285.004 143.233 285.056 143.279 285.09 143.326C285.125 143.374 285.143 143.422 285.142 143.471C285.143 143.52 285.125 143.568 285.09 143.616C285.055 143.664 285.003 143.709 284.933 143.752L284.539 143.992C284.469 144.035 284.395 144.066 284.316 144.088C284.238 144.109 284.158 144.12 284.078 144.12C283.998 144.12 283.919 144.109 283.84 144.088C283.763 144.067 283.689 144.035 283.618 143.992L282.95 143.585Z" fill="#DDE2F9"/>
<circle cx="24.4783" cy="24.4783" r="23.4783" transform="matrix(0.625986 0.381554 -0.625986 0.381554 203.683 71.9382)" stroke="#F1F2F4" stroke-width="2"/>
<circle cx="18.7667" cy="18.7667" r="18.2667" transform="matrix(0.625986 0.381554 -0.625986 0.381554 203.683 76.0896)" stroke="url(#paint7_linear_0_2092)"/>
<mask id="path-26-inside-3_0_2092" fill="white">
<path d="M219.006 81.278C221.018 82.5045 222.614 83.9606 223.703 85.5631C224.792 87.1657 225.353 88.8832 225.353 90.6178C225.353 92.3524 224.792 94.0699 223.703 95.6725C222.614 97.275 221.018 98.7311 219.006 99.9576L217.29 98.9121C219.077 97.8229 220.495 96.5298 221.462 95.1066C222.429 93.6835 222.927 92.1582 222.927 90.6178C222.927 89.0774 222.429 87.5521 221.462 86.1289C220.495 84.7058 219.077 83.4127 217.29 82.3235L219.006 81.278Z"/>
</mask>
<path d="M219.006 81.278C221.018 82.5045 222.614 83.9606 223.703 85.5631C224.792 87.1657 225.353 88.8832 225.353 90.6178C225.353 92.3524 224.792 94.0699 223.703 95.6725C222.614 97.275 221.018 98.7311 219.006 99.9576L217.29 98.9121C219.077 97.8229 220.495 96.5298 221.462 95.1066C222.429 93.6835 222.927 92.1582 222.927 90.6178C222.927 89.0774 222.429 87.5521 221.462 86.1289C220.495 84.7058 219.077 83.4127 217.29 82.3235L219.006 81.278Z" stroke="url(#paint8_linear_0_2092)" stroke-width="20" stroke-linecap="round" mask="url(#path-26-inside-3_0_2092)"/>
<path d="M201.508 85.116L200.999 85.4262L200.435 85.0825L200.944 84.7723C201.021 84.7253 201.108 84.6901 201.205 84.6666C201.304 84.642 201.404 84.6303 201.505 84.6314C201.608 84.6314 201.708 84.6431 201.805 84.6666C201.906 84.6901 201.995 84.7253 202.072 84.7723L203.857 85.8605C203.934 85.9074 203.991 85.9611 204.028 86.0214C204.068 86.0818 204.087 86.1427 204.085 86.2042C204.087 86.2657 204.068 86.3266 204.028 86.387C203.991 86.4473 203.934 86.501 203.857 86.5479L203.136 86.9872C203.059 87.0342 202.983 87.0716 202.908 87.0996C202.833 87.1275 202.754 87.1465 202.671 87.1566C202.592 87.1667 202.509 87.1683 202.421 87.1616C202.333 87.1549 202.236 87.1404 202.129 87.118L199.26 86.4859L198.691 86.833L200.548 87.9648L201.054 87.6563L201.618 88L200.548 88.6523L197.563 86.833L198.6 86.2008C198.677 86.1539 198.753 86.1165 198.828 86.0885C198.905 86.0617 198.983 86.0432 199.062 86.0332C199.141 86.0231 199.224 86.0214 199.312 86.0281C199.404 86.0349 199.5 86.0488 199.601 86.0701L202.476 86.7022L203.293 86.2042L201.508 85.116ZM205.216 90.3307C204.889 90.523 204.569 90.6202 204.253 90.6224C203.939 90.6236 203.622 90.5263 203.301 90.3307L202.242 89.6851C201.602 89.295 201.601 88.9054 202.239 88.5164L202.476 88.3722L203.029 88.7093L202.82 88.8367C202.671 88.9272 202.595 89.0139 202.592 89.0966C202.588 89.1793 202.661 89.2665 202.812 89.3582L203.835 89.9819C203.985 90.0736 204.128 90.1183 204.264 90.1161C204.4 90.1138 204.542 90.0674 204.69 89.9769L205.221 89.6533C205.37 89.5627 205.445 89.4767 205.447 89.3951C205.451 89.3123 205.377 89.2251 205.227 89.1335L203.34 87.9832L205.34 86.7642L208.102 88.4477L207.538 88.7914L205.34 87.4517L204.454 87.9916L205.796 88.8099C206.119 89.0066 206.281 89.2011 206.281 89.3934C206.282 89.5845 206.121 89.779 205.796 89.9769L205.216 90.3307ZM209.224 90.9259C209.147 90.9729 209.059 91.0086 208.96 91.0332C208.863 91.0567 208.763 91.0685 208.66 91.0685C208.557 91.0685 208.457 91.0567 208.36 91.0332C208.263 91.0098 208.176 90.9746 208.099 90.9276L207.466 90.542C207.389 90.495 207.33 90.4413 207.29 90.381C207.252 90.3217 207.232 90.2608 207.232 90.1982C207.234 90.1367 207.253 90.0758 207.29 90.0155C207.33 89.9551 207.389 89.9014 207.466 89.8545L208.374 89.3012C208.451 89.2542 208.538 89.219 208.635 89.1955C208.736 89.172 208.836 89.1603 208.935 89.1603C209.038 89.1603 209.138 89.172 209.235 89.1955C209.336 89.219 209.425 89.2542 209.502 89.3012L210.135 89.6868C210.212 89.7338 210.268 89.7874 210.305 89.8478C210.344 89.907 210.363 89.9679 210.363 90.0305C210.365 90.092 210.345 90.1529 210.305 90.2133C210.267 90.2726 210.209 90.3257 210.132 90.3726L209.224 90.9259ZM205.637 91.7542L212.393 91.0634L212.91 91.3787L206.154 92.0695L205.637 91.7542ZM208.935 89.5493L207.871 90.1982L208.66 90.6794L209.725 90.0305L208.935 89.5493ZM210.173 93.8317C210.096 93.8787 210.008 93.9145 209.909 93.9391C209.812 93.9625 209.712 93.9743 209.609 93.9743C209.506 93.9743 209.406 93.962 209.307 93.9374C209.209 93.9139 209.122 93.8787 209.045 93.8317L208.412 93.4461C208.335 93.3991 208.278 93.346 208.239 93.2868C208.201 93.2275 208.181 93.1666 208.181 93.104C208.181 93.0414 208.201 92.9805 208.239 92.9213C208.28 92.8609 208.338 92.8072 208.415 92.7603L209.323 92.207C209.4 92.16 209.487 92.1248 209.584 92.1013C209.682 92.0779 209.782 92.0661 209.884 92.0661C209.987 92.0661 210.087 92.0779 210.184 92.1013C210.281 92.1248 210.368 92.16 210.445 92.207L211.078 92.5926C211.155 92.6396 211.213 92.6927 211.251 92.7519C211.292 92.8123 211.312 92.8738 211.312 92.9364C211.312 92.999 211.293 93.0599 211.254 93.1191C211.216 93.1784 211.158 93.2315 211.081 93.2784L210.173 93.8317ZM209.884 92.4551L208.82 93.104L209.609 93.5853L210.674 92.9364L209.884 92.4551Z" fill="#DDE2F9"/>
<path d="M195.477 88.6741C195.502 88.6584 195.531 88.6467 195.564 88.6388C195.597 88.6307 195.63 88.6267 195.664 88.6271C195.698 88.6271 195.731 88.631 195.764 88.6388C195.797 88.6467 195.827 88.6584 195.853 88.6741L196.566 89.1089C196.592 89.1245 196.611 89.1424 196.623 89.1626C196.636 89.1827 196.643 89.2032 196.643 89.224C196.644 89.2445 196.637 89.2648 196.624 89.285C196.611 89.3047 196.592 89.3224 196.566 89.3381L196.396 89.4415L196.208 89.3269L196.378 89.2235L195.665 88.7886L194.726 89.361L195.439 89.7958L195.608 89.693L195.796 89.8075L195.627 89.9104C195.601 89.926 195.572 89.938 195.539 89.9462C195.507 89.954 195.473 89.9579 195.439 89.9579C195.405 89.9579 195.371 89.9538 195.338 89.9456C195.306 89.9378 195.277 89.926 195.251 89.9104L194.538 89.4755C194.512 89.4599 194.492 89.442 194.479 89.4219C194.466 89.4021 194.46 89.3818 194.46 89.361C194.46 89.3401 194.466 89.3198 194.479 89.3C194.492 89.2799 194.512 89.262 194.538 89.2464L195.477 88.6741ZM197.055 90.7806C197.029 90.7963 197 90.8082 196.967 90.8164C196.934 90.8242 196.901 90.8281 196.867 90.8281C196.833 90.8281 196.799 90.824 196.766 90.8158C196.734 90.808 196.705 90.7963 196.679 90.7806L195.928 90.3229C195.902 90.3072 195.883 90.2893 195.869 90.2692C195.856 90.2495 195.85 90.2291 195.85 90.2083C195.85 90.1874 195.856 90.1671 195.869 90.1474C195.883 90.1272 195.902 90.1094 195.928 90.0937L196.867 89.5214C196.893 89.5057 196.922 89.494 196.954 89.4862C196.987 89.478 197.02 89.4741 197.054 89.4744C197.088 89.4744 197.121 89.4783 197.154 89.4862C197.187 89.494 197.217 89.5057 197.243 89.5214L197.994 89.9791C198.019 89.9948 198.038 90.0127 198.051 90.0328C198.064 90.0529 198.071 90.0734 198.071 90.0943C198.071 90.1148 198.065 90.1351 198.052 90.1552C198.039 90.1749 198.019 90.1926 197.994 90.2083L197.055 90.7806ZM197.055 89.636L196.116 90.2083L196.867 90.666L197.806 90.0937L197.055 89.636ZM197.884 91.515L198.357 90.6286L197.393 91.216L197.205 91.1014L198.52 90.2999L198.726 90.4251L198.236 91.3339L199.728 91.036L199.932 91.1607L198.617 91.9622L198.43 91.8481L199.394 91.2607L197.94 91.5491L197.884 91.515ZM198.957 92.169L200.272 91.3675L200.991 91.8062C201.204 91.9359 201.204 92.0657 200.99 92.1958L200.803 92.3098C200.59 92.4398 200.377 92.44 200.164 92.3104L199.632 91.9862L199.145 92.2835L198.957 92.169ZM199.82 91.8716L200.342 92.1896C200.392 92.2202 200.439 92.2355 200.483 92.2355C200.527 92.2355 200.574 92.2202 200.625 92.1896L200.793 92.0868C200.843 92.0562 200.869 92.0276 200.869 92.0007C200.869 91.9739 200.843 91.9452 200.793 91.9147L200.272 91.5966L199.82 91.8716ZM201.762 92.2757L200.635 92.9626L201.311 93.3745L201.123 93.4891L200.259 92.9626L201.574 92.1611L201.762 92.2757ZM202.663 92.8251L203.621 93.4092L203.433 93.5238L202.663 93.0543L202.287 93.2834L202.945 93.6842L202.757 93.7988L202.099 93.398L201.724 93.6266L202.494 94.0961L202.306 94.2107L201.348 93.6266L202.663 92.8251ZM203.79 93.512L204.842 94.1531L204.654 94.2677L204.222 94.0044L203.095 94.6913L202.907 94.5768L204.034 93.8899L203.602 93.6266L203.79 93.512ZM205.067 94.2906L206.026 94.8747L205.838 94.9892L205.067 94.5198L204.691 94.7489L205.349 95.1497L205.161 95.2642L204.503 94.8635L204.128 95.0921L204.899 95.5616L204.711 95.6762L203.752 95.0921L205.067 94.2906ZM205.849 96.1406C205.936 96.1939 206.027 96.2205 206.121 96.2205C206.215 96.2205 206.306 96.1939 206.393 96.1406L206.788 95.9003C206.83 95.8742 206.862 95.8472 206.884 95.8192C206.905 95.7913 206.916 95.763 206.915 95.7343C206.916 95.7056 206.905 95.6773 206.884 95.6493C206.862 95.6214 206.83 95.5944 206.788 95.5683L206.307 95.2754L205.368 95.8477L205.849 96.1406ZM204.992 95.8477L206.307 95.0463L206.976 95.4537C207.046 95.4966 207.098 95.5418 207.132 95.5895C207.168 95.6372 207.185 95.6855 207.185 95.7343C207.185 95.7831 207.168 95.8313 207.132 95.879C207.098 95.9271 207.045 95.9724 206.976 96.0149L206.581 96.2552C206.512 96.2977 206.437 96.3295 206.358 96.3508C206.28 96.3724 206.201 96.3832 206.12 96.3832C206.041 96.3832 205.961 96.3726 205.883 96.3513C205.805 96.3301 205.731 96.298 205.661 96.2552L204.992 95.8477Z" fill="#DDE2F9"/>
<rect width="137.042" height="2.03263" rx="1.01632" transform="matrix(0.853883 0.520464 -0.853883 0.520465 148.306 102.618)" fill="#C7CCF2"/>
<rect width="70.4639" height="2.03263" rx="1.01632" transform="matrix(0.853883 0.520465 -0.853883 0.520465 128.998 114.255)" fill="#C7CCF2"/>
<rect width="93.2273" height="2.03263" rx="1.01632" transform="matrix(0.853883 0.520465 -0.853883 0.520465 108.957 125.892)" fill="#C7CCF2"/>
<rect width="116.665" height="2.03263" rx="1.01632" transform="matrix(0.853883 0.520464 -0.853884 0.520464 89.9175 138.587)" fill="#C7CCF2"/>
<rect width="104.993" height="2.03263" rx="1.01632" transform="matrix(0.853883 0.520465 -0.853883 0.520465 138.285 108.965)" fill="#C7CCF2"/>
<rect width="81.6856" height="2.03263" rx="1.01631" transform="matrix(0.853884 0.520464 -0.853884 0.520464 118.977 120.602)" fill="#C7CCF2"/>
<rect width="91.5155" height="2.03263" rx="1.01632" transform="matrix(0.853883 0.520465 -0.853883 0.520465 98.936 132.239)" fill="#C7CCF2"/>
<rect width="108.835" height="2.03263" rx="1.01632" transform="matrix(0.853884 0.520464 -0.853884 0.520464 79.8969 144.934)" fill="#C7CCF2"/>
<path d="M337.374 109.53L336.962 109.172L338.658 107.835L340.524 108.729L340.048 109.179L338.723 108.545L337.981 109.13C338.048 109.13 338.14 109.138 338.255 109.157C338.372 109.174 338.486 109.209 338.597 109.262C338.758 109.34 338.879 109.429 338.958 109.532C339.038 109.634 339.078 109.746 339.079 109.869C339.082 109.993 339.044 110.124 338.965 110.263C338.887 110.402 338.769 110.546 338.613 110.695C338.481 110.82 338.332 110.928 338.167 111.02C338.002 111.11 337.827 111.178 337.64 111.222C337.455 111.265 337.266 111.279 337.073 111.262C336.88 111.245 336.688 111.191 336.496 111.1C336.353 111.031 336.234 110.947 336.138 110.847C336.044 110.747 335.982 110.636 335.95 110.515C335.92 110.393 335.926 110.267 335.969 110.136C336.014 110.004 336.104 109.872 336.238 109.741L336.89 110.053C336.815 110.137 336.767 110.218 336.745 110.295C336.726 110.371 336.734 110.441 336.768 110.504C336.802 110.567 336.864 110.62 336.954 110.663C337.037 110.703 337.123 110.724 337.211 110.725C337.299 110.726 337.386 110.712 337.473 110.682C337.561 110.65 337.648 110.606 337.732 110.55C337.82 110.493 337.904 110.426 337.985 110.35C338.065 110.274 338.127 110.2 338.171 110.128C338.215 110.055 338.239 109.986 338.243 109.92C338.246 109.854 338.227 109.792 338.184 109.735C338.143 109.678 338.078 109.628 337.988 109.585C337.867 109.527 337.755 109.498 337.654 109.498C337.555 109.499 337.461 109.51 337.374 109.53ZM340.055 110.814L339.643 110.457L341.34 109.12L343.205 110.013L342.729 110.464L341.404 109.829L340.662 110.415C340.73 110.414 340.821 110.423 340.937 110.441C341.054 110.458 341.168 110.494 341.278 110.547C341.44 110.624 341.56 110.714 341.64 110.816C341.719 110.918 341.76 111.031 341.761 111.153C341.763 111.277 341.725 111.408 341.647 111.548C341.568 111.687 341.451 111.831 341.294 111.979C341.162 112.104 341.013 112.212 340.848 112.304C340.684 112.394 340.508 112.462 340.322 112.507C340.136 112.55 339.947 112.563 339.754 112.546C339.561 112.53 339.369 112.476 339.178 112.384C339.035 112.315 338.916 112.231 338.82 112.131C338.726 112.031 338.663 111.921 338.631 111.799C338.601 111.678 338.608 111.551 338.65 111.42C338.695 111.289 338.785 111.157 338.92 111.025L339.572 111.337C339.496 111.422 339.448 111.502 339.426 111.579C339.407 111.656 339.415 111.725 339.449 111.788C339.483 111.851 339.545 111.904 339.635 111.947C339.719 111.987 339.804 112.008 339.892 112.009C339.98 112.011 340.067 111.996 340.154 111.966C340.243 111.934 340.329 111.89 340.414 111.834C340.502 111.777 340.586 111.71 340.666 111.634C340.746 111.558 340.809 111.484 340.853 111.412C340.897 111.34 340.921 111.271 340.924 111.204C340.928 111.138 340.908 111.076 340.866 111.019C340.825 110.963 340.759 110.913 340.67 110.87C340.548 110.812 340.437 110.783 340.336 110.783C340.236 110.784 340.143 110.794 340.055 110.814ZM321.399 127.02L320.939 127.455L318.668 126.367L319.06 125.996L321.166 125.533C321.381 125.483 321.561 125.434 321.705 125.387C321.85 125.338 321.97 125.289 322.062 125.24C322.158 125.191 322.236 125.138 322.296 125.081C322.385 124.996 322.446 124.915 322.476 124.838C322.508 124.76 322.509 124.689 322.479 124.624C322.451 124.56 322.389 124.505 322.295 124.46C322.195 124.412 322.086 124.391 321.97 124.398C321.855 124.405 321.739 124.436 321.624 124.491C321.51 124.547 321.404 124.622 321.306 124.715L320.647 124.399C320.824 124.231 321.033 124.1 321.274 124.006C321.517 123.911 321.768 123.863 322.027 123.862C322.287 123.861 322.535 123.917 322.77 124.029C323.003 124.141 323.165 124.267 323.257 124.408C323.351 124.548 323.376 124.698 323.331 124.857C323.29 125.016 323.182 125.178 323.007 125.343C322.909 125.436 322.796 125.519 322.667 125.591C322.539 125.662 322.397 125.726 322.239 125.782C322.084 125.838 321.913 125.888 321.728 125.934C321.543 125.979 321.345 126.023 321.133 126.065L319.976 126.338L321.399 127.02ZM325.333 127.066L324.818 127.553C324.594 127.765 324.375 127.935 324.16 128.063C323.946 128.189 323.737 128.278 323.533 128.328C323.332 128.377 323.139 128.392 322.953 128.373C322.767 128.354 322.591 128.305 322.424 128.224C322.29 128.16 322.18 128.086 322.095 128.003C322.01 127.918 321.955 127.822 321.927 127.716C321.901 127.61 321.905 127.494 321.937 127.368C321.973 127.241 322.042 127.104 322.146 126.955C322.25 126.807 322.392 126.648 322.572 126.478L323.087 125.99C323.31 125.778 323.528 125.61 323.74 125.485C323.956 125.359 324.164 125.271 324.365 125.221C324.567 125.173 324.761 125.159 324.945 125.179C325.131 125.198 325.308 125.248 325.475 125.328C325.609 125.392 325.717 125.466 325.8 125.55C325.885 125.634 325.942 125.728 325.971 125.833C326 125.938 325.996 126.054 325.961 126.181C325.927 126.307 325.858 126.443 325.754 126.592C325.651 126.739 325.511 126.897 325.333 127.066ZM324.081 127.311L324.753 126.675C324.861 126.573 324.948 126.48 325.015 126.398C325.083 126.316 325.132 126.242 325.162 126.177C325.193 126.11 325.208 126.051 325.205 126C325.202 125.948 325.185 125.903 325.153 125.864C325.12 125.825 325.075 125.791 325.015 125.763C324.941 125.727 324.862 125.708 324.778 125.705C324.696 125.702 324.607 125.719 324.51 125.754C324.414 125.788 324.309 125.844 324.194 125.923C324.082 126.001 323.959 126.104 323.825 126.23L323.153 126.867C323.046 126.969 322.957 127.061 322.888 127.144C322.819 127.228 322.769 127.304 322.736 127.372C322.707 127.439 322.691 127.499 322.691 127.551C322.694 127.603 322.711 127.648 322.744 127.687C322.777 127.727 322.824 127.761 322.883 127.789C322.956 127.824 323.034 127.843 323.116 127.845C323.201 127.847 323.292 127.83 323.388 127.795C323.488 127.759 323.595 127.702 323.708 127.622C323.822 127.543 323.946 127.439 324.081 127.311ZM328.014 128.35L327.499 128.838C327.276 129.049 327.057 129.219 326.841 129.347C326.627 129.474 326.419 129.562 326.215 129.612C326.014 129.661 325.82 129.677 325.635 129.658C325.449 129.638 325.272 129.589 325.105 129.509C324.971 129.445 324.862 129.371 324.776 129.287C324.692 129.202 324.636 129.106 324.609 129C324.583 128.895 324.586 128.779 324.619 128.652C324.654 128.526 324.724 128.388 324.828 128.24C324.932 128.091 325.074 127.932 325.253 127.762L325.768 127.274C325.991 127.063 326.209 126.894 326.422 126.769C326.637 126.643 326.845 126.555 327.046 126.506C327.249 126.457 327.442 126.443 327.627 126.463C327.813 126.482 327.989 126.532 328.156 126.612C328.29 126.676 328.398 126.75 328.481 126.835C328.567 126.918 328.624 127.013 328.652 127.118C328.681 127.223 328.678 127.339 328.642 127.465C328.608 127.591 328.539 127.728 328.435 127.876C328.333 128.023 328.192 128.181 328.014 128.35ZM326.763 128.596L327.435 127.959C327.542 127.857 327.629 127.765 327.696 127.682C327.764 127.6 327.813 127.527 327.843 127.461C327.875 127.395 327.889 127.336 327.886 127.284C327.884 127.232 327.866 127.187 327.834 127.148C327.802 127.109 327.756 127.076 327.697 127.047C327.622 127.012 327.543 126.992 327.459 126.989C327.377 126.987 327.288 127.003 327.191 127.038C327.096 127.072 326.991 127.129 326.875 127.208C326.763 127.286 326.64 127.388 326.507 127.515L325.835 128.151C325.727 128.253 325.638 128.346 325.569 128.429C325.501 128.513 325.45 128.589 325.418 128.656C325.388 128.724 325.373 128.784 325.373 128.836C325.375 128.888 325.393 128.933 325.425 128.972C325.459 129.011 325.505 129.045 325.565 129.073C325.638 129.108 325.715 129.127 325.797 129.13C325.882 129.131 325.973 129.115 326.07 129.079C326.169 129.044 326.276 128.986 326.39 128.906C326.503 128.827 326.628 128.723 326.763 128.596Z" fill="#BCC7F1"/>
<path d="M318.583 95.7842L318.267 96.0839L314.324 97.9852L313.631 97.6536L317.43 95.8875L315.777 95.0966L316.237 94.6615L318.583 95.7842ZM320.617 96.7483L317.635 99.5694L316.978 99.2552L319.281 97.076L318.268 96.9112L318.732 96.4723L320.546 96.7144L320.617 96.7483ZM298.584 112.374L298.171 112.017L299.869 110.68L301.734 111.573L301.258 112.023L299.933 111.389L299.191 111.975C299.258 111.974 299.35 111.983 299.465 112.001C299.582 112.018 299.696 112.053 299.807 112.106C299.968 112.184 300.089 112.273 300.168 112.375C300.248 112.478 300.288 112.59 300.289 112.713C300.291 112.836 300.253 112.967 300.175 113.106C300.097 113.246 299.979 113.389 299.822 113.537C299.69 113.663 299.541 113.771 299.376 113.862C299.212 113.953 299.036 114.02 298.85 114.065C298.664 114.108 298.475 114.121 298.282 114.105C298.089 114.088 297.897 114.034 297.705 113.942C297.562 113.874 297.443 113.79 297.348 113.69C297.253 113.59 297.191 113.48 297.159 113.358C297.129 113.237 297.135 113.111 297.178 112.98C297.223 112.848 297.313 112.716 297.448 112.585L298.1 112.897C298.024 112.981 297.976 113.062 297.954 113.138C297.935 113.215 297.943 113.285 297.977 113.347C298.011 113.41 298.073 113.463 298.163 113.506C298.246 113.546 298.332 113.567 298.42 113.568C298.508 113.569 298.595 113.555 298.682 113.525C298.771 113.493 298.857 113.449 298.942 113.393C299.03 113.336 299.114 113.269 299.194 113.193C299.275 113.117 299.337 113.043 299.381 112.971C299.425 112.899 299.449 112.83 299.452 112.764C299.456 112.697 299.437 112.636 299.394 112.578C299.353 112.522 299.288 112.472 299.198 112.429C299.076 112.371 298.965 112.342 298.864 112.342C298.765 112.343 298.671 112.354 298.584 112.374ZM303.276 114.057L302.761 114.545C302.538 114.756 302.318 114.926 302.103 115.054C301.889 115.18 301.68 115.269 301.476 115.319C301.275 115.368 301.082 115.383 300.896 115.364C300.71 115.345 300.534 115.296 300.366 115.216C300.233 115.152 300.123 115.078 300.037 114.994C299.953 114.909 299.897 114.814 299.87 114.707C299.844 114.602 299.848 114.486 299.88 114.36C299.916 114.233 299.985 114.096 300.089 113.948C300.193 113.799 300.335 113.64 300.515 113.47L301.03 112.983C301.254 112.771 301.472 112.603 301.684 112.478C301.9 112.352 302.108 112.264 302.309 112.215C302.512 112.166 302.705 112.152 302.89 112.172C303.075 112.191 303.252 112.241 303.419 112.321C303.553 112.385 303.661 112.459 303.744 112.543C303.829 112.627 303.886 112.721 303.915 112.826C303.944 112.931 303.94 113.047 303.905 113.173C303.871 113.299 303.802 113.436 303.698 113.584C303.595 113.731 303.455 113.889 303.276 114.057ZM302.025 114.303L302.697 113.667C302.805 113.565 302.892 113.473 302.958 113.39C303.027 113.308 303.076 113.235 303.106 113.169C303.137 113.103 303.152 113.044 303.149 112.992C303.146 112.94 303.129 112.895 303.097 112.856C303.064 112.818 303.019 112.784 302.959 112.756C302.885 112.72 302.806 112.701 302.722 112.698C302.64 112.695 302.551 112.712 302.454 112.747C302.358 112.781 302.253 112.837 302.138 112.916C302.025 112.994 301.902 113.096 301.769 113.223L301.096 113.859C300.989 113.961 300.9 114.053 300.831 114.136C300.763 114.22 300.712 114.296 300.679 114.364C300.65 114.431 300.634 114.491 300.634 114.543C300.637 114.595 300.654 114.64 300.686 114.679C300.72 114.718 300.767 114.752 300.826 114.781C300.899 114.815 300.977 114.834 301.059 114.837C301.144 114.838 301.235 114.822 301.331 114.786C301.431 114.751 301.538 114.693 301.652 114.614C301.765 114.534 301.89 114.43 302.025 114.303ZM305.958 115.34L305.443 115.828C305.219 116.039 305 116.209 304.785 116.337C304.571 116.463 304.362 116.552 304.158 116.602C303.957 116.651 303.763 116.666 303.577 116.647C303.392 116.628 303.215 116.579 303.048 116.499C302.914 116.435 302.804 116.361 302.719 116.277C302.635 116.192 302.579 116.097 302.552 115.99C302.526 115.885 302.529 115.769 302.562 115.643C302.597 115.516 302.667 115.379 302.771 115.231C302.875 115.082 303.017 114.923 303.197 114.753L303.712 114.266C303.935 114.054 304.153 113.886 304.366 113.761C304.581 113.635 304.79 113.547 304.991 113.498C305.193 113.449 305.387 113.435 305.571 113.455C305.757 113.474 305.933 113.524 306.101 113.604C306.234 113.668 306.343 113.742 306.425 113.826C306.511 113.91 306.568 114.004 306.597 114.109C306.625 114.214 306.622 114.33 306.587 114.456C306.552 114.582 306.483 114.719 306.379 114.867C306.277 115.014 306.136 115.172 305.958 115.34ZM304.706 115.586L305.378 114.95C305.486 114.848 305.573 114.756 305.64 114.673C305.708 114.591 305.757 114.518 305.787 114.452C305.819 114.386 305.833 114.327 305.831 114.275C305.828 114.223 305.81 114.178 305.778 114.139C305.746 114.101 305.7 114.067 305.641 114.039C305.566 114.003 305.487 113.984 305.404 113.981C305.321 113.978 305.232 113.995 305.135 114.03C305.04 114.064 304.935 114.12 304.819 114.199C304.707 114.277 304.584 114.379 304.45 114.506L303.778 115.142C303.67 115.244 303.582 115.336 303.512 115.419C303.444 115.503 303.394 115.579 303.361 115.647C303.331 115.714 303.316 115.774 303.316 115.826C303.318 115.878 303.336 115.923 303.368 115.962C303.402 116.001 303.448 116.035 303.508 116.064C303.581 116.098 303.658 116.117 303.74 116.12C303.825 116.121 303.916 116.105 304.013 116.069C304.113 116.034 304.219 115.976 304.333 115.897C304.447 115.817 304.571 115.714 304.706 115.586Z" fill="#BCC7F1"/>
<path d="M296.717 85.1857L297.069 85.3541C297.181 85.408 297.291 85.4363 297.398 85.439C297.506 85.4405 297.609 85.4199 297.707 85.3773C297.807 85.3341 297.9 85.2725 297.984 85.1925C298.06 85.1202 298.111 85.0483 298.136 84.9768C298.164 84.9047 298.161 84.8371 298.127 84.774C298.094 84.7097 298.026 84.6531 297.924 84.6043C297.844 84.5657 297.755 84.5435 297.658 84.5378C297.561 84.5321 297.466 84.544 297.374 84.5734C297.281 84.6027 297.198 84.6523 297.124 84.722L296.465 84.406C296.629 84.2511 296.819 84.1396 297.038 84.0714C297.258 84.0039 297.485 83.9776 297.718 83.9925C297.952 84.0074 298.169 84.0626 298.368 84.158C298.593 84.2659 298.757 84.3912 298.86 84.5341C298.965 84.6756 299.002 84.8284 298.971 84.9923C298.94 85.1562 298.832 85.326 298.647 85.5015C298.553 85.5905 298.437 85.6654 298.3 85.7259C298.164 85.7852 298.015 85.8266 297.854 85.8499C297.694 85.8728 297.529 85.8732 297.358 85.8513C297.188 85.8281 297.022 85.7778 296.861 85.7006L296.405 85.4819L296.717 85.1857ZM296.27 85.6097L296.575 85.3213L297.031 85.5399C297.211 85.6266 297.352 85.7202 297.452 85.8206C297.552 85.9211 297.614 86.0264 297.637 86.1367C297.662 86.2457 297.651 86.356 297.604 86.4677C297.558 86.578 297.479 86.6868 297.366 86.7939C297.227 86.9255 297.074 87.0288 296.906 87.1036C296.739 87.1771 296.564 87.2235 296.381 87.2428C296.2 87.2628 296.018 87.2572 295.836 87.2261C295.655 87.1938 295.48 87.1371 295.311 87.0562C295.171 86.9892 295.051 86.9071 294.95 86.81C294.851 86.7123 294.782 86.6043 294.742 86.486C294.705 86.3671 294.707 86.2417 294.747 86.1097C294.791 85.9771 294.887 85.8412 295.034 85.7018L295.692 86.0177C295.616 86.09 295.569 86.1647 295.552 86.2419C295.535 86.3191 295.546 86.3917 295.587 86.4596C295.629 86.5284 295.696 86.5849 295.789 86.6294C295.894 86.6797 296 86.7065 296.109 86.71C296.22 86.7129 296.327 86.6941 296.429 86.6537C296.534 86.6127 296.629 86.5522 296.713 86.4722C296.822 86.3689 296.887 86.2757 296.909 86.1926C296.931 86.1083 296.917 86.0316 296.866 85.9625C296.816 85.8935 296.734 85.832 296.621 85.7781L296.27 85.6097ZM299.715 88.4534L299.255 88.889L296.985 87.8002L297.377 87.4285L299.481 86.9657C299.697 86.9155 299.877 86.8666 300.021 86.819C300.166 86.7702 300.285 86.7213 300.378 86.6725C300.473 86.6231 300.551 86.57 300.611 86.5132C300.701 86.428 300.761 86.3471 300.791 86.2704C300.823 86.1924 300.824 86.121 300.794 86.0561C300.766 85.9919 300.705 85.9372 300.61 85.892C300.51 85.8439 300.402 85.8231 300.285 85.8294C300.17 85.8364 300.055 85.8676 299.939 85.923C299.825 85.979 299.719 86.0536 299.621 86.1465L298.962 85.8306C299.139 85.6628 299.348 85.5318 299.589 85.4376C299.832 85.3421 300.083 85.2942 300.342 85.2939C300.602 85.2924 300.85 85.3481 301.085 85.4611C301.318 85.5726 301.48 85.6988 301.572 85.8399C301.666 85.9804 301.691 86.1303 301.646 86.2897C301.605 86.4485 301.497 86.6106 301.323 86.7758C301.225 86.8687 301.111 86.9513 300.982 87.0236C300.855 87.0946 300.712 87.1583 300.554 87.2147C300.399 87.2706 300.229 87.3212 300.044 87.3665C299.859 87.4119 299.66 87.4557 299.449 87.498L298.292 87.7713L299.715 88.4534ZM280.629 102.674C280.442 102.851 280.236 102.977 280.011 103.052C279.787 103.125 279.558 103.152 279.322 103.132C279.089 103.112 278.866 103.051 278.651 102.948C278.437 102.845 278.277 102.723 278.171 102.58C278.066 102.437 278.027 102.281 278.055 102.114C278.084 101.945 278.192 101.772 278.378 101.596C278.504 101.477 278.645 101.383 278.802 101.315C278.96 101.245 279.125 101.2 279.298 101.179C279.473 101.159 279.648 101.163 279.823 101.192C280 101.22 280.168 101.273 280.329 101.35C280.545 101.454 280.704 101.579 280.806 101.725C280.909 101.871 280.946 102.026 280.92 102.19C280.893 102.354 280.796 102.516 280.629 102.674ZM280.006 102.321C280.098 102.234 280.156 102.151 280.182 102.07C280.211 101.988 280.208 101.914 280.173 101.847C280.139 101.78 280.075 101.724 279.982 101.679C279.89 101.635 279.79 101.613 279.685 101.613C279.58 101.613 279.474 101.635 279.368 101.679C279.265 101.723 279.167 101.788 279.076 101.875C278.986 101.96 278.928 102.043 278.9 102.123C278.875 102.204 278.879 102.278 278.913 102.345C278.951 102.411 279.017 102.467 279.111 102.512C279.205 102.557 279.303 102.58 279.406 102.581C279.511 102.581 279.615 102.559 279.717 102.514C279.82 102.47 279.916 102.406 280.006 102.321ZM281.928 101.342C281.777 101.485 281.598 101.59 281.391 101.658C281.186 101.725 280.971 101.751 280.746 101.737C280.522 101.723 280.309 101.667 280.105 101.569C279.9 101.471 279.75 101.353 279.656 101.214C279.562 101.076 279.528 100.93 279.554 100.777C279.581 100.623 279.67 100.475 279.821 100.331C280.001 100.161 280.197 100.039 280.409 99.9661C280.624 99.8924 280.843 99.8631 281.065 99.8783C281.288 99.8941 281.501 99.9505 281.703 100.047C281.909 100.146 282.058 100.263 282.152 100.4C282.248 100.537 282.279 100.686 282.245 100.846C282.213 101.006 282.108 101.171 281.928 101.342ZM281.245 101.052C281.325 100.976 281.379 100.902 281.405 100.831C281.433 100.759 281.434 100.694 281.407 100.634C281.382 100.576 281.327 100.526 281.242 100.485C281.16 100.446 281.074 100.427 280.983 100.428C280.894 100.43 280.803 100.452 280.712 100.493C280.623 100.534 280.537 100.594 280.454 100.673C280.373 100.749 280.318 100.823 280.287 100.896C280.259 100.968 280.258 101.034 280.283 101.095C280.308 101.156 280.363 101.206 280.446 101.246C280.53 101.286 280.617 101.304 280.709 101.299C280.803 101.295 280.894 101.272 280.985 101.23C281.078 101.187 281.165 101.128 281.245 101.052ZM284.241 103.074L283.726 103.562C283.503 103.774 283.284 103.944 283.069 104.072C282.855 104.198 282.646 104.287 282.442 104.337C282.241 104.386 282.048 104.401 281.862 104.382C281.676 104.363 281.5 104.314 281.333 104.233C281.199 104.169 281.089 104.095 281.004 104.012C280.92 103.926 280.864 103.831 280.836 103.724C280.811 103.619 280.814 103.503 280.846 103.376C280.882 103.25 280.951 103.112 281.055 102.963C281.159 102.815 281.301 102.656 281.48 102.485L281.995 101.997C282.218 101.786 282.436 101.617 282.649 101.492C282.864 101.366 283.072 101.278 283.273 101.228C283.475 101.18 283.669 101.166 283.853 101.186C284.039 101.205 284.215 101.255 284.383 101.335C284.516 101.399 284.625 101.473 284.707 101.558C284.793 101.641 284.85 101.736 284.879 101.841C284.908 101.946 284.904 102.062 284.869 102.189C284.835 102.314 284.766 102.451 284.662 102.6C284.56 102.747 284.419 102.905 284.241 103.074ZM282.99 103.32L283.662 102.683C283.769 102.581 283.856 102.488 283.923 102.406C283.991 102.324 284.04 102.25 284.07 102.185C284.101 102.118 284.116 102.059 284.113 102.007C284.11 101.955 284.093 101.91 284.061 101.871C284.028 101.833 283.983 101.799 283.923 101.771C283.849 101.735 283.77 101.715 283.686 101.712C283.604 101.71 283.515 101.726 283.418 101.761C283.323 101.795 283.217 101.852 283.102 101.931C282.99 102.009 282.867 102.111 282.734 102.238L282.062 102.875C281.954 102.977 281.866 103.069 281.796 103.153C281.728 103.237 281.678 103.313 281.645 103.38C281.615 103.448 281.6 103.508 281.6 103.56C281.603 103.612 281.62 103.657 281.652 103.696C281.686 103.735 281.733 103.769 281.792 103.798C281.865 103.833 281.943 103.851 282.025 103.854C282.11 103.856 282.201 103.839 282.297 103.804C282.397 103.768 282.503 103.71 282.617 103.631C282.731 103.551 282.855 103.447 282.99 103.32ZM286.922 104.36L286.408 104.848C286.184 105.059 285.965 105.229 285.75 105.357C285.536 105.484 285.327 105.572 285.124 105.622C284.923 105.672 284.729 105.687 284.544 105.668C284.358 105.649 284.181 105.599 284.014 105.519C283.88 105.455 283.771 105.381 283.685 105.297C283.601 105.212 283.545 105.116 283.518 105.01C283.492 104.904 283.495 104.788 283.528 104.662C283.563 104.535 283.633 104.397 283.736 104.249C283.84 104.101 283.982 103.941 284.162 103.771L284.676 103.283C284.9 103.071 285.117 102.903 285.33 102.777C285.545 102.651 285.753 102.563 285.954 102.514C286.157 102.465 286.35 102.451 286.534 102.472C286.72 102.491 286.897 102.54 287.064 102.62C287.198 102.685 287.306 102.759 287.389 102.843C287.474 102.927 287.531 103.021 287.56 103.127C287.589 103.232 287.585 103.348 287.55 103.474C287.516 103.6 287.447 103.737 287.343 103.885C287.241 104.033 287.1 104.191 286.922 104.36ZM285.671 104.605L286.343 103.968C286.45 103.866 286.537 103.774 286.604 103.691C286.672 103.609 286.721 103.536 286.751 103.47C286.783 103.404 286.797 103.345 286.794 103.293C286.792 103.241 286.774 103.196 286.742 103.157C286.71 103.118 286.664 103.084 286.605 103.056C286.53 103.02 286.451 103.001 286.367 102.998C286.285 102.995 286.196 103.012 286.099 103.047C286.004 103.081 285.899 103.137 285.783 103.216C285.671 103.295 285.548 103.397 285.415 103.523L284.743 104.16C284.636 104.262 284.547 104.355 284.478 104.438C284.41 104.522 284.359 104.598 284.327 104.666C284.297 104.733 284.282 104.793 284.281 104.846C284.284 104.897 284.301 104.943 284.334 104.981C284.368 105.021 284.414 105.055 284.473 105.083C284.546 105.118 284.624 105.137 284.706 105.139C284.791 105.141 284.882 105.125 284.979 105.089C285.078 105.054 285.185 104.996 285.298 104.916C285.412 104.837 285.536 104.733 285.671 104.605Z" fill="#BCC7F1"/>
<path d="M278.695 75.5765L278.234 76.014L275.842 74.8673L276.168 74.5132L279.518 73.3124L280.04 73.5627L278.627 74.095L276.924 74.7271L278.695 75.5765ZM280.181 73.6305L277.209 76.4493L276.552 76.1345L279.525 73.3156L280.181 73.6305ZM282.638 74.7645L282.734 74.8105L282.264 75.2557L282.225 75.2372C282.052 75.1541 281.875 75.102 281.693 75.0811C281.511 75.0601 281.331 75.0677 281.151 75.1038C280.974 75.1394 280.8 75.2019 280.63 75.2914C280.462 75.3817 280.303 75.4972 280.155 75.6379L279.661 76.1064C279.555 76.2071 279.472 76.3016 279.413 76.3899C279.357 76.4778 279.324 76.558 279.314 76.6308C279.306 76.703 279.319 76.7666 279.353 76.8216C279.388 76.8752 279.443 76.9203 279.519 76.9567C279.591 76.991 279.669 77.009 279.754 77.0109C279.84 77.0135 279.929 77.0014 280.019 76.9746C280.112 76.9473 280.202 76.9071 280.29 76.8541C280.381 76.8005 280.467 76.7356 280.547 76.6594C280.627 76.5833 280.69 76.5075 280.735 76.432C280.782 76.3573 280.809 76.2865 280.815 76.2196C280.823 76.1514 280.81 76.0899 280.776 76.0349C280.743 75.9799 280.688 75.9342 280.612 75.8978C280.509 75.8483 280.396 75.8252 280.273 75.8286C280.153 75.8314 280.038 75.8539 279.927 75.896C279.817 75.9381 279.723 75.9933 279.646 76.0615L279.562 75.858C279.672 75.7608 279.795 75.6783 279.933 75.6103C280.073 75.5431 280.218 75.4943 280.369 75.4638C280.523 75.4327 280.677 75.4248 280.83 75.44C280.985 75.4539 281.133 75.4947 281.275 75.5625C281.43 75.6369 281.539 75.7273 281.603 75.8337C281.668 75.9409 281.694 76.0573 281.681 76.183C281.667 76.3086 281.62 76.4384 281.538 76.5722C281.457 76.706 281.347 76.8381 281.21 76.9685C281.065 77.1053 280.905 77.2196 280.728 77.3116C280.552 77.4043 280.369 77.4708 280.177 77.5112C279.987 77.5523 279.798 77.5646 279.61 77.5481C279.421 77.5315 279.242 77.4824 279.072 77.4008C278.895 77.3163 278.763 77.2123 278.676 77.0889C278.592 76.9649 278.55 76.8284 278.552 76.6794C278.553 76.5305 278.598 76.3741 278.686 76.2104C278.776 76.0473 278.906 75.8845 279.078 75.7219L279.306 75.505C279.546 75.2779 279.804 75.0886 280.08 74.9374C280.359 74.7855 280.645 74.6759 280.938 74.6085C281.233 74.5398 281.524 74.5173 281.813 74.541C282.101 74.5647 282.376 74.6392 282.638 74.7645ZM260.505 90.3872L260.093 90.0293L261.789 88.6913L263.654 89.5855L263.178 90.0366L261.853 89.4014L261.112 89.9874C261.179 89.9866 261.27 89.9955 261.386 90.0139C261.503 90.0311 261.617 90.0663 261.728 90.1195C261.889 90.1968 262.009 90.2866 262.089 90.3889C262.169 90.4913 262.209 90.6039 262.21 90.7267C262.212 90.8503 262.174 90.9817 262.096 91.1211C262.018 91.2604 261.901 91.4042 261.744 91.5527C261.612 91.6779 261.463 91.7863 261.298 91.878C261.134 91.9685 260.959 92.036 260.772 92.0806C260.587 92.1239 260.398 92.1372 260.205 92.1205C260.012 92.1038 259.819 92.0495 259.628 91.9577C259.485 91.8892 259.366 91.8048 259.27 91.7045C259.176 91.605 259.113 91.4942 259.082 91.3722C259.052 91.2509 259.058 91.1247 259.1 90.9934C259.145 90.8615 259.235 90.7297 259.37 90.5979L260.022 90.9105C259.946 90.9949 259.898 91.0756 259.876 91.1527C259.857 91.2291 259.865 91.2989 259.899 91.3619C259.933 91.425 259.995 91.478 260.085 91.521C260.169 91.5611 260.254 91.5818 260.342 91.5831C260.43 91.5844 260.517 91.5699 260.604 91.5397C260.693 91.5081 260.779 91.4641 260.864 91.4076C260.951 91.3505 261.035 91.2839 261.116 91.2077C261.196 91.1316 261.258 91.0574 261.302 90.9852C261.346 90.9131 261.37 90.8439 261.374 90.7776C261.377 90.7112 261.358 90.6494 261.315 90.5921C261.274 90.5355 261.209 90.4857 261.119 90.4427C260.998 90.3844 260.886 90.3554 260.785 90.3556C260.686 90.3565 260.593 90.3671 260.505 90.3872ZM263.945 93.3133L263.485 93.7489L261.215 92.6601L261.607 92.2884L263.712 91.8256C263.927 91.7754 264.107 91.7265 264.251 91.6789C264.396 91.6301 264.515 91.5812 264.608 91.5324C264.703 91.483 264.781 91.4299 264.841 91.3731C264.931 91.2879 264.991 91.207 265.022 91.1303C265.053 91.0523 265.054 90.9809 265.024 90.916C264.996 90.8518 264.935 90.7971 264.84 90.7519C264.74 90.7038 264.632 90.6829 264.515 90.6893C264.4 90.6963 264.285 90.7275 264.169 90.7829C264.055 90.8389 263.949 90.9134 263.851 91.0064L263.192 90.6905C263.369 90.5227 263.578 90.3917 263.82 90.2975C264.062 90.202 264.313 90.1541 264.572 90.1538C264.832 90.1523 265.08 90.208 265.316 90.321C265.548 90.4325 265.71 90.5587 265.802 90.6998C265.896 90.8403 265.921 90.9902 265.877 91.1496C265.835 91.3084 265.727 91.4704 265.553 91.6357C265.455 91.7286 265.341 91.8112 265.212 91.8835C265.085 91.9545 264.942 92.0182 264.784 92.0746C264.629 92.1305 264.459 92.1811 264.274 92.2264C264.089 92.2718 263.891 92.3156 263.679 92.3579L262.522 92.6312L263.945 93.3133ZM267.878 93.3597L267.363 93.8476C267.14 94.0593 266.921 94.2291 266.706 94.3572C266.492 94.484 266.283 94.5724 266.079 94.6224C265.879 94.6718 265.685 94.687 265.499 94.6679C265.314 94.6487 265.137 94.5991 264.97 94.5189C264.836 94.4548 264.727 94.3808 264.641 94.2971C264.557 94.212 264.501 94.1163 264.474 94.0098C264.448 93.9042 264.451 93.7882 264.483 93.6619C264.519 93.5351 264.588 93.3974 264.692 93.249C264.796 93.1006 264.938 92.9412 265.118 92.7708L265.632 92.283C265.855 92.0713 266.073 91.9027 266.286 91.7772C266.501 91.6511 266.709 91.5634 266.91 91.514C267.112 91.4653 267.306 91.4511 267.49 91.4715C267.676 91.4906 267.853 91.5403 268.02 91.6205C268.154 91.6846 268.262 91.7588 268.345 91.8432C268.43 91.927 268.487 92.0214 268.516 92.1265C268.545 92.2316 268.541 92.3476 268.506 92.4745C268.472 92.6 268.403 92.737 268.299 92.8854C268.197 93.0325 268.056 93.1906 267.878 93.3597ZM266.627 93.6052L267.299 92.9683C267.406 92.8663 267.493 92.774 267.56 92.6913C267.628 92.6093 267.677 92.5357 267.707 92.4703C267.738 92.4038 267.753 92.3446 267.75 92.2928C267.748 92.241 267.73 92.1957 267.698 92.1569C267.666 92.1181 267.62 92.0845 267.56 92.0561C267.486 92.0204 267.407 92.0009 267.323 91.9977C267.241 91.9953 267.152 92.0117 267.055 92.047C266.96 92.0809 266.855 92.1374 266.739 92.2162C266.627 92.2945 266.504 92.3969 266.371 92.5234L265.699 93.1603C265.591 93.2623 265.503 93.3549 265.433 93.4382C265.365 93.5222 265.315 93.5981 265.282 93.666C265.253 93.7333 265.238 93.7932 265.237 93.8455C265.24 93.8973 265.257 93.9426 265.29 93.9814C265.324 94.0209 265.37 94.0549 265.429 94.0833C265.502 94.1183 265.58 94.137 265.662 94.1395C265.747 94.1413 265.838 94.1247 265.934 94.0894C266.034 94.0536 266.141 93.9959 266.254 93.9163C266.368 93.8367 266.492 93.733 266.627 93.6052Z" fill="#BCC7F1"/>
<path d="M261.442 62.7767L261.126 63.0768L257.186 64.9801L256.493 64.6478L260.29 62.88L258.637 62.0875L259.096 61.6519L261.442 62.7767ZM259.808 65.599L259.851 65.6198C260.034 65.7072 260.21 65.7636 260.38 65.7888C260.553 65.8135 260.721 65.8101 260.882 65.7786C261.043 65.7472 261.2 65.689 261.351 65.6041C261.504 65.518 261.651 65.4078 261.792 65.2735L262.356 64.7392C262.463 64.6372 262.546 64.5417 262.603 64.4526C262.662 64.3642 262.696 64.2843 262.705 64.2128C262.717 64.1408 262.707 64.078 262.677 64.0245C262.648 63.9717 262.599 63.929 262.531 63.8962C262.458 63.8612 262.377 63.8457 262.288 63.8497C262.2 63.8524 262.11 63.8701 262.016 63.9028C261.923 63.9362 261.831 63.9814 261.739 64.0383C261.65 64.0946 261.567 64.159 261.491 64.2312C261.415 64.3035 261.352 64.3773 261.302 64.4526C261.254 64.5266 261.223 64.5983 261.209 64.6675C261.197 64.7355 261.205 64.7986 261.233 64.8567C261.262 64.9135 261.317 64.9612 261.398 64.9999C261.475 65.037 261.557 65.0579 261.644 65.0626C261.734 65.0666 261.821 65.0582 261.908 65.0373C261.995 65.0171 262.077 64.9874 262.153 64.9479C262.23 64.9093 262.296 64.8641 262.351 64.8125L262.461 65.017C262.366 65.1074 262.249 65.1855 262.111 65.2514C261.973 65.3173 261.824 65.3667 261.666 65.3996C261.511 65.432 261.357 65.444 261.206 65.4355C261.055 65.4271 260.918 65.3938 260.797 65.3355C260.642 65.2611 260.529 65.1713 260.46 65.066C260.391 64.9593 260.36 64.8434 260.366 64.7181C260.375 64.5923 260.419 64.4618 260.498 64.3265C260.576 64.1912 260.687 64.0565 260.828 63.9222C260.972 63.7854 261.134 63.6694 261.312 63.5741C261.492 63.4796 261.679 63.4098 261.872 63.3648C262.068 63.3206 262.261 63.3054 262.453 63.3194C262.647 63.3328 262.828 63.3799 262.997 63.4608C263.166 63.5417 263.29 63.6431 263.37 63.7649C263.449 63.8867 263.485 64.0223 263.476 64.1716C263.469 64.3196 263.418 64.4768 263.322 64.643C263.229 64.8099 263.091 64.9792 262.91 65.1508L262.706 65.3444C262.513 65.5277 262.31 65.6868 262.096 65.8217C261.885 65.9573 261.665 66.0667 261.438 66.15C261.213 66.2328 260.985 66.2866 260.753 66.3113C260.522 66.3368 260.292 66.3304 260.062 66.2922C259.833 66.2539 259.607 66.1816 259.385 66.0752L259.332 66.0501L259.808 65.599ZM242.925 80.4361L242.464 80.8737L240.072 79.727L240.397 79.3729L243.747 78.172L244.27 78.4223L242.857 78.9547L241.154 79.5868L242.925 80.4361ZM244.411 78.4901L241.438 81.309L240.782 80.9941L243.754 78.1753L244.411 78.4901ZM246.152 81.0739L245.638 81.5618C245.414 81.7735 245.195 81.9434 244.98 82.0714C244.766 82.1982 244.557 82.2866 244.354 82.3366C244.153 82.386 243.959 82.4012 243.774 82.3821C243.588 82.363 243.411 82.3133 243.244 82.2331C243.11 82.169 243.001 82.0951 242.915 82.0113C242.831 81.9262 242.775 81.8305 242.748 81.7241C242.722 81.6184 242.725 81.5024 242.758 81.3761C242.793 81.2493 242.863 81.1116 242.967 80.9632C243.07 80.8148 243.212 80.6554 243.392 80.4851L243.906 79.9972C244.13 79.7855 244.347 79.6169 244.56 79.4914C244.775 79.3653 244.983 79.2776 245.184 79.2282C245.387 79.1795 245.58 79.1653 245.765 79.1857C245.95 79.2049 246.127 79.2545 246.294 79.3347C246.428 79.3988 246.536 79.473 246.619 79.5574C246.704 79.6412 246.761 79.7356 246.79 79.8407C246.819 79.9458 246.816 80.0618 246.78 80.1887C246.746 80.3142 246.677 80.4512 246.573 80.5996C246.471 80.7467 246.33 80.9048 246.152 81.0739ZM244.901 81.3195L245.573 80.6825C245.68 80.5805 245.767 80.4882 245.834 80.4055C245.902 80.3235 245.951 80.2499 245.981 80.1846C246.013 80.118 246.027 80.0588 246.024 80.007C246.022 79.9552 246.004 79.9099 245.972 79.8711C245.94 79.8323 245.894 79.7987 245.835 79.7703C245.76 79.7346 245.681 79.7151 245.597 79.712C245.515 79.7095 245.426 79.7259 245.329 79.7612C245.234 79.7952 245.129 79.8516 245.013 79.9304C244.901 80.0087 244.778 80.1111 244.645 80.2376L243.973 80.8745C243.866 80.9765 243.777 81.0691 243.708 81.1524C243.64 81.2364 243.589 81.3123 243.557 81.3802C243.527 81.4476 243.512 81.5074 243.511 81.5597C243.514 81.6115 243.532 81.6568 243.564 81.6956C243.598 81.7351 243.644 81.7691 243.704 81.7975C243.776 81.8325 243.854 81.8512 243.936 81.8537C244.021 81.8556 244.112 81.8389 244.209 81.8036C244.308 81.7678 244.415 81.7101 244.529 81.6305C244.642 81.5509 244.766 81.4472 244.901 81.3195ZM248.833 82.3595L248.319 82.8473C248.096 83.059 247.876 83.2289 247.661 83.357C247.448 83.4838 247.239 83.5722 247.035 83.6222C246.834 83.6716 246.641 83.6867 246.455 83.6676C246.269 83.6485 246.093 83.5989 245.925 83.5187C245.792 83.4546 245.682 83.3806 245.596 83.2968C245.512 83.2117 245.456 83.116 245.429 83.0096C245.403 82.9039 245.406 82.7879 245.439 82.6617C245.474 82.5348 245.544 82.3972 245.648 82.2488C245.752 82.1004 245.893 81.941 246.073 81.7706L246.588 81.2827C246.811 81.071 247.029 80.9025 247.241 80.777C247.457 80.6509 247.665 80.5631 247.866 80.5137C248.068 80.465 248.261 80.4509 248.446 80.4713C248.632 80.4904 248.808 80.54 248.975 80.6202C249.109 80.6843 249.217 80.7586 249.3 80.8429C249.386 80.9267 249.443 81.0212 249.471 81.1263C249.5 81.2314 249.497 81.3474 249.462 81.4742C249.427 81.5998 249.359 81.7368 249.255 81.8852C249.152 82.0323 249.012 82.1904 248.833 82.3595ZM247.582 82.605L248.254 81.968C248.362 81.8661 248.449 81.7737 248.515 81.691C248.584 81.6091 248.633 81.5354 248.663 81.4701C248.694 81.4035 248.708 81.3443 248.706 81.2925C248.703 81.2408 248.686 81.1955 248.653 81.1567C248.621 81.1179 248.575 81.0842 248.516 81.0558C248.441 81.0201 248.362 81.0007 248.279 80.9975C248.197 80.9951 248.107 81.0115 248.011 81.0467C247.915 81.0807 247.81 81.1371 247.695 81.216C247.582 81.2943 247.46 81.3966 247.326 81.5231L246.654 82.1601C246.547 82.262 246.458 82.3547 246.389 82.4379C246.321 82.5219 246.271 82.5979 246.238 82.6658C246.208 82.7331 246.193 82.7929 246.193 82.8453C246.195 82.897 246.213 82.9423 246.245 82.9811C246.279 83.0207 246.326 83.0547 246.385 83.0831C246.458 83.1181 246.535 83.1368 246.617 83.1392C246.702 83.1411 246.793 83.1244 246.89 83.0891C246.989 83.0533 247.096 82.9956 247.21 82.916C247.323 82.8365 247.448 82.7328 247.582 82.605Z" fill="#BCC7F1"/>
<path d="M237.136 51.5273L236.724 51.1694L238.42 49.8314L240.285 50.7256L239.81 51.1767L238.485 50.5415L237.743 51.1275C237.811 51.1267 237.902 51.1356 238.018 51.154C238.135 51.1712 238.248 51.2064 238.359 51.2596C238.521 51.3369 238.641 51.4267 238.721 51.529C238.8 51.6314 238.841 51.744 238.842 51.8668C238.844 51.9904 238.806 52.1218 238.728 52.2612C238.65 52.4005 238.532 52.5443 238.376 52.6928C238.244 52.818 238.095 52.9264 237.929 53.0181C237.765 53.1086 237.59 53.1761 237.404 53.2207C237.218 53.264 237.029 53.2773 236.836 53.2606C236.643 53.2439 236.451 53.1896 236.26 53.0978C236.117 53.0293 235.997 52.9449 235.902 52.8446C235.808 52.7451 235.745 52.6343 235.713 52.5123C235.683 52.391 235.689 52.2648 235.732 52.1335C235.777 52.0016 235.867 51.8698 236.001 51.738L236.653 52.0506C236.578 52.135 236.53 52.2157 236.508 52.2928C236.489 52.3692 236.497 52.439 236.531 52.502C236.565 52.5651 236.627 52.6181 236.717 52.6611C236.8 52.7012 236.886 52.7219 236.974 52.7232C237.062 52.7245 237.149 52.71 237.236 52.6798C237.324 52.6482 237.411 52.6042 237.495 52.5477C237.583 52.4906 237.667 52.424 237.747 52.3478C237.828 52.2717 237.89 52.1975 237.934 52.1254C237.978 52.0532 238.002 51.984 238.005 51.9177C238.009 51.8514 237.989 51.7895 237.947 51.7322C237.906 51.6756 237.84 51.6258 237.751 51.5828C237.629 51.5245 237.518 51.4955 237.417 51.4957C237.318 51.4966 237.224 51.5072 237.136 51.5273ZM241.828 53.2143L241.314 53.7022C241.091 53.9138 240.871 54.0837 240.656 54.2118C240.442 54.3386 240.234 54.427 240.03 54.477C239.829 54.5264 239.636 54.5416 239.45 54.5224C239.264 54.5033 239.087 54.4537 238.92 54.3735C238.787 54.3094 238.677 54.2354 238.591 54.1516C238.507 54.0666 238.451 53.9708 238.424 53.8644C238.398 53.7587 238.401 53.6427 238.434 53.5165C238.469 53.3896 238.539 53.252 238.643 53.1036C238.747 52.9552 238.888 52.7958 239.068 52.6254L239.583 52.1375C239.806 51.9258 240.024 51.7573 240.236 51.6318C240.451 51.5057 240.659 51.4179 240.86 51.3685C241.063 51.3198 241.256 51.3057 241.441 51.3261C241.626 51.3452 241.803 51.3949 241.97 51.475C242.104 51.5391 242.212 51.6134 242.295 51.6977C242.38 51.7815 242.438 51.876 242.466 51.9811C242.495 52.0862 242.492 52.2022 242.456 52.329C242.422 52.4546 242.353 52.5916 242.25 52.74C242.147 52.8871 242.007 53.0452 241.828 53.2143ZM240.577 53.4598L241.249 52.8228C241.357 52.7209 241.444 52.6285 241.51 52.5458C241.578 52.4639 241.627 52.3902 241.657 52.3249C241.689 52.2583 241.703 52.1991 241.701 52.1473C241.698 52.0956 241.68 52.0503 241.648 52.0115C241.616 51.9727 241.57 51.939 241.511 51.9106C241.436 51.8749 241.357 51.8555 241.274 51.8523C241.192 51.8499 241.102 51.8663 241.005 51.9015C240.91 51.9355 240.805 51.9919 240.69 52.0708C240.577 52.1491 240.454 52.2514 240.321 52.3779L239.649 53.0149C239.542 53.1169 239.453 53.2095 239.384 53.2927C239.316 53.3767 239.265 53.4527 239.233 53.5206C239.203 53.5879 239.188 53.6477 239.188 53.7001C239.19 53.7518 239.208 53.7971 239.24 53.8359C239.274 53.8755 239.32 53.9095 239.38 53.9379C239.453 53.9729 239.53 53.9916 239.612 53.994C239.697 53.9959 239.788 53.9792 239.885 53.9439C239.984 53.9081 240.091 53.8504 240.205 53.7708C240.318 53.6913 240.443 53.5876 240.577 53.4598ZM221.49 68.6745C221.304 68.8513 221.098 68.9771 220.873 69.0517C220.649 69.1251 220.419 69.152 220.184 69.1323C219.951 69.1121 219.728 69.0506 219.513 68.9478C219.299 68.8451 219.139 68.7226 219.032 68.5803C218.927 68.4367 218.889 68.2812 218.917 68.1138C218.946 67.9451 219.054 67.7724 219.24 67.5955C219.365 67.4768 219.506 67.3832 219.663 67.3146C219.822 67.2448 219.987 67.1997 220.16 67.1794C220.335 67.1585 220.51 67.1628 220.685 67.1923C220.861 67.2204 221.03 67.2731 221.191 67.3504C221.407 67.4539 221.566 67.5787 221.668 67.7248C221.77 67.871 221.808 68.0261 221.781 68.1902C221.755 68.3543 221.658 68.5157 221.49 68.6745ZM220.868 68.3207C220.959 68.2342 221.018 68.1505 221.044 68.0696C221.072 67.9882 221.069 67.9139 221.035 67.8468C221 67.7797 220.937 67.724 220.844 67.6795C220.751 67.635 220.652 67.6128 220.547 67.6129C220.442 67.6129 220.336 67.6351 220.23 67.6794C220.126 67.7231 220.029 67.7882 219.938 67.8747C219.848 67.9599 219.789 68.0425 219.762 68.1227C219.736 68.2036 219.741 68.2776 219.775 68.3447C219.813 68.4112 219.878 68.4671 219.973 68.5122C220.067 68.5574 220.165 68.5803 220.268 68.5808C220.373 68.5808 220.476 68.5585 220.578 68.5141C220.682 68.4703 220.778 68.4059 220.868 68.3207ZM222.79 67.3415C222.639 67.4848 222.46 67.5904 222.253 67.6584C222.048 67.7251 221.832 67.7512 221.608 67.7366C221.384 67.7228 221.171 67.6671 220.967 67.5694C220.762 67.471 220.612 67.3526 220.518 67.2141C220.423 67.0756 220.389 66.93 220.415 66.7773C220.443 66.6233 220.532 66.4747 220.683 66.3315C220.863 66.1611 221.059 66.0393 221.271 65.9661C221.486 65.8924 221.704 65.8631 221.926 65.8783C222.15 65.8941 222.363 65.9505 222.565 66.0474C222.77 66.1458 222.92 66.2632 223.014 66.3997C223.11 66.5369 223.14 66.6857 223.106 66.8461C223.075 67.006 222.969 67.1712 222.79 67.3415ZM222.107 67.0519C222.187 66.9757 222.24 66.9022 222.267 66.8314C222.295 66.7593 222.296 66.6936 222.269 66.6342C222.244 66.5755 222.189 66.5258 222.104 66.485C222.022 66.4456 221.935 66.4266 221.845 66.4278C221.756 66.4298 221.665 66.4516 221.573 66.4931C221.484 66.534 221.398 66.5938 221.315 66.6725C221.235 66.7487 221.18 66.8231 221.149 66.8957C221.121 66.9678 221.119 67.0342 221.145 67.0949C221.17 67.1556 221.224 67.206 221.308 67.2461C221.391 67.2862 221.479 67.3039 221.571 67.2993C221.664 67.2955 221.756 67.2725 221.846 67.2303C221.94 67.1875 222.026 67.128 222.107 67.0519ZM224.557 69.7219L224.095 70.1595L221.704 69.0128L222.029 68.6587L225.379 67.4578L225.901 67.7081L224.488 68.2405L222.785 68.8726L224.557 69.7219ZM226.043 67.7759L223.07 70.5948L222.413 70.2799L225.386 67.4611L226.043 67.7759ZM227.784 70.3597L227.269 70.8476C227.046 71.0593 226.827 71.2291 226.612 71.3572C226.398 71.484 226.189 71.5724 225.985 71.6224C225.784 71.6718 225.591 71.687 225.405 71.6679C225.219 71.6487 225.043 71.5991 224.876 71.5189C224.742 71.4548 224.632 71.3808 224.547 71.2971C224.463 71.212 224.407 71.1163 224.379 71.0098C224.353 70.9042 224.357 70.7882 224.389 70.6619C224.425 70.5351 224.494 70.3974 224.598 70.249C224.702 70.1006 224.844 69.9412 225.023 69.7708L225.538 69.283C225.761 69.0713 225.979 68.9027 226.191 68.7772C226.407 68.6511 226.615 68.5634 226.816 68.514C227.018 68.4653 227.212 68.4511 227.396 68.4715C227.582 68.4906 227.758 68.5403 227.926 68.6205C228.059 68.6846 228.168 68.7588 228.25 68.8432C228.336 68.927 228.393 69.0214 228.422 69.1265C228.45 69.2316 228.447 69.3476 228.412 69.4745C228.378 69.6 228.309 69.737 228.205 69.8854C228.102 70.0325 227.962 70.1906 227.784 70.3597ZM226.533 70.6052L227.204 69.9683C227.312 69.8663 227.399 69.774 227.466 69.6913C227.534 69.6093 227.583 69.5357 227.613 69.4703C227.644 69.4038 227.659 69.3446 227.656 69.2928C227.653 69.241 227.636 69.1957 227.604 69.1569C227.571 69.1181 227.525 69.0845 227.466 69.0561C227.392 69.0204 227.313 69.0009 227.229 68.9977C227.147 68.9953 227.058 69.0117 226.961 69.047C226.866 69.0809 226.76 69.1374 226.645 69.2162C226.533 69.2945 226.41 69.3969 226.277 69.5234L225.605 70.1603C225.497 70.2623 225.409 70.3549 225.339 70.4382C225.271 70.5222 225.221 70.5981 225.188 70.666C225.158 70.7333 225.143 70.7932 225.143 70.8455C225.146 70.8973 225.163 70.9426 225.195 70.9814C225.229 71.0209 225.276 71.0549 225.335 71.0833C225.408 71.1183 225.486 71.137 225.568 71.1395C225.653 71.1413 225.744 71.1247 225.84 71.0894C225.94 71.0536 226.046 70.9959 226.16 70.9163C226.274 70.8367 226.398 70.733 226.533 70.6052Z" fill="#BCC7F1"/>
<rect width="6.93891" height="30.6558" transform="matrix(0.866553 0.499085 -2.20843e-08 1 318.557 70.0464)" fill="#D9DFF6"/>
<rect width="6.93891" height="30.6558" transform="matrix(0.866713 -0.498806 2.21008e-08 1 324.559 73.5076)" fill="#9EA4BA"/>
<rect width="6.93891" height="6.93891" transform="matrix(0.866545 -0.499098 0.866545 0.499098 318.557 70.0464)" fill="#94A9F3"/>
<rect width="6.93891" height="28.3781" transform="matrix(0.866552 0.499087 -2.20843e-08 1 318.557 45.4182)" fill="#6398C9"/>
<rect width="6.93891" height="28.3896" transform="matrix(0.866715 -0.498804 2.21009e-08 1 324.559 48.8774)" fill="#4F7EAA"/>
<rect width="6.93891" height="6.93891" transform="matrix(0.866545 -0.499098 0.866545 0.499098 318.557 45.4434)" fill="#94C6F4"/>
<rect width="6.93891" height="30.6558" transform="matrix(0.866553 0.499085 -2.20843e-08 1 298.51 59.0461)" fill="#D9DFF6"/>
<rect width="6.93891" height="30.6558" transform="matrix(0.866714 -0.498805 2.21009e-08 1 304.512 62.5073)" fill="#9EA4BA"/>
<rect width="6.93891" height="6.93891" transform="matrix(0.866552 -0.499088 0.866551 0.499088 298.51 59.0461)" fill="#94A9F3"/>
<rect width="6.93891" height="19.424" transform="matrix(0.866554 0.499084 -2.20844e-08 1 298.51 57.6226)" fill="#6398C9"/>
<rect width="6.93891" height="19.4278" transform="matrix(0.866716 -0.498803 2.2101e-08 1 304.512 61.0798)" fill="#4F7EAA"/>
<rect width="6.93891" height="6.93891" transform="matrix(0.866545 -0.499098 0.866545 0.499098 298.51 57.6245)" fill="#94C6F4"/>
<rect width="6.93891" height="30.6558" transform="matrix(0.866553 0.499085 -2.20843e-08 1 278.463 47.0461)" fill="#D9DFF6"/>
<rect width="6.93891" height="30.6558" transform="matrix(0.866714 -0.498805 2.21009e-08 1 284.466 50.5073)" fill="#9EA4BA"/>
<rect width="6.93891" height="6.93891" transform="matrix(0.866545 -0.499098 0.866545 0.499098 278.463 47.0461)" fill="#94A9F3"/>
<rect width="6.93891" height="9.41102" transform="matrix(0.866553 0.499086 -2.20843e-08 1 278.463 37.6226)" fill="#6398C9"/>
<rect width="6.93891" height="9.43329" transform="matrix(0.866715 -0.498803 2.2101e-08 1 284.466 41.0798)" fill="#4F7EAA"/>
<rect width="6.93891" height="6.93891" transform="matrix(0.866545 -0.499098 0.866545 0.499098 278.463 37.6245)" fill="#94C6F4"/>
<rect width="6.93891" height="30.6558" transform="matrix(0.866553 0.499085 -2.20843e-08 1 258.417 36.0464)" fill="#D9DFF6"/>
<rect width="6.93891" height="30.6558" transform="matrix(0.866713 -0.498806 2.21008e-08 1 264.419 39.5076)" fill="#9EA4BA"/>
<rect width="6.93891" height="6.93891" transform="matrix(0.866552 -0.499088 0.866551 0.499088 258.417 36.0464)" fill="#94A9F3"/>
<rect width="6.9389" height="25.6031" transform="matrix(0.866364 0.499413 -0.000371216 1 258.422 10.4424)" fill="#6398C9"/>
<rect width="6.9389" height="25.5989" transform="matrix(0.866536 -0.499114 0.000371511 1 264.415 13.9099)" fill="#4F7EAA"/>
<rect width="6.9389" height="6.93891" transform="matrix(0.866361 -0.499419 0.86673 0.498777 258.417 10.4634)" fill="#94C6F4"/>
<rect width="6.93891" height="30.6558" transform="matrix(0.866553 0.499085 -2.20843e-08 1 238.37 24.0461)" fill="#D9DFF6"/>
<rect width="6.93891" height="30.6558" transform="matrix(0.866713 -0.498806 2.21008e-08 1 244.372 27.5073)" fill="#9EA4BA"/>
<rect width="6.93891" height="6.93891" transform="matrix(0.866545 -0.499098 0.866545 0.499098 238.37 24.0461)" fill="#94A9F3"/>
<rect width="6.93891" height="22.5674" transform="matrix(0.866554 0.499084 -2.20844e-08 1 238.37 12.6228)" fill="#6398C9"/>
<rect width="6.93891" height="22.5757" transform="matrix(0.866716 -0.498802 2.2101e-08 1 244.372 16.0801)" fill="#4F7EAA"/>
<rect width="6.93891" height="6.93891" transform="matrix(0.866545 -0.499098 0.866545 0.499098 238.37 12.6248)" fill="#94C6F4"/>
<rect width="6.93891" height="30.6558" transform="matrix(0.866553 0.499085 -2.20843e-08 1 338.604 82.0464)" fill="#D9DFF6"/>
<rect width="6.93891" height="30.6558" transform="matrix(0.866714 -0.498805 2.21009e-08 1 344.606 85.5076)" fill="#9EA4BA"/>
<rect width="6.93891" height="6.93891" transform="matrix(0.866552 -0.499088 0.866551 0.499088 338.604 82.0464)" fill="#94A9F3"/>
<rect width="6.93891" height="19.424" transform="matrix(0.866554 0.499084 -2.20844e-08 1 338.604 62.6226)" fill="#6398C9"/>
<rect width="6.93891" height="19.4278" transform="matrix(0.866716 -0.498803 2.2101e-08 1 344.606 66.0798)" fill="#4F7EAA"/>
<rect width="6.93891" height="6.93891" transform="matrix(0.866545 -0.499098 0.866545 0.499098 338.604 62.6245)" fill="#94C6F4"/>
<defs>
<linearGradient id="paint0_linear_0_2092" x1="0.00120462" y1="137.932" x2="430.345" y2="137.932" gradientUnits="userSpaceOnUse">
<stop stop-color="#DBDEF6"/>
<stop offset="0.216" stop-color="#DBDEF6"/>
<stop offset="0.3198" stop-color="#DBDEF6"/>
<stop offset="0.4594" stop-color="#DBDEF6"/>
<stop offset="1" stop-color="#7F8CC3"/>
</linearGradient>
<linearGradient id="paint1_linear_0_2092" x1="27.809" y1="130.941" x2="402.969" y2="130.941" gradientUnits="userSpaceOnUse">
<stop stop-color="#5461AC"/>
<stop offset="0.4639" stop-color="#707BC9"/>
<stop offset="0.9368" stop-color="#8992E2"/>
</linearGradient>
<linearGradient id="paint2_linear_0_2092" x1="22.6556" y1="75.3549" x2="406.425" y2="95.7557" gradientUnits="userSpaceOnUse">
<stop stop-color="#3D4772"/>
<stop offset="0.2469" stop-color="#3E4874"/>
<stop offset="0.3358" stop-color="#434D7B"/>
<stop offset="0.3992" stop-color="#4B5586"/>
<stop offset="0.4505" stop-color="#566097"/>
<stop offset="0.4944" stop-color="#656FAD"/>
<stop offset="0.5326" stop-color="#7781C8"/>
<stop offset="0.5616" stop-color="#8992E2"/>
<stop offset="0.566" stop-color="#9EA6E8"/>
<stop offset="0.5713" stop-color="#AFB7EE"/>
<stop offset="0.5779" stop-color="#BAC2F1"/>
<stop offset="0.5872" stop-color="#C1C9F3"/>
<stop offset="0.6129" stop-color="#C3CBF4"/>
<stop offset="1" stop-color="#C3CBF4"/>
</linearGradient>
<linearGradient id="paint3_linear_0_2092" x1="230.573" y1="107.021" x2="243.302" y2="127.904" gradientUnits="userSpaceOnUse">
<stop stop-color="#69A1E2"/>
<stop offset="1" stop-color="#BCD7F8"/>
</linearGradient>
<linearGradient id="paint4_linear_0_2092" x1="257.824" y1="104.939" x2="241.221" y2="132.178" gradientUnits="userSpaceOnUse">
<stop stop-color="#69A1E2"/>
<stop offset="1" stop-color="#BCD7F8"/>
</linearGradient>
<linearGradient id="paint5_linear_0_2092" x1="269.712" y1="131.097" x2="282.441" y2="151.981" gradientUnits="userSpaceOnUse">
<stop stop-color="#69A1E2"/>
<stop offset="1" stop-color="#BCD7F8"/>
</linearGradient>
<linearGradient id="paint6_linear_0_2092" x1="296.963" y1="129.015" x2="280.36" y2="156.254" gradientUnits="userSpaceOnUse">
<stop stop-color="#69A1E2"/>
<stop offset="1" stop-color="#BCD7F8"/>
</linearGradient>
<linearGradient id="paint7_linear_0_2092" x1="-1.41908e-07" y1="19.0554" x2="37.5334" y2="19.0554" gradientUnits="userSpaceOnUse">
<stop stop-color="#69A1E2"/>
<stop offset="1" stop-color="#BCD7F8"/>
</linearGradient>
<linearGradient id="paint8_linear_0_2092" x1="219.006" y1="81.278" x2="202.403" y2="108.517" gradientUnits="userSpaceOnUse">
<stop stop-color="#69A1E2"/>
<stop offset="1" stop-color="#BCD7F8"/>
</linearGradient>
</defs>
</svg>
