<svg width="32" height="27" viewBox="0 0 32 27" fill="none" xmlns="http://www.w3.org/2000/svg">
<path d="M29.3055 26.5367L31.9999 21.7058L22.5196 5.32715L19.6922 10.2242L29.3055 26.5367Z" fill="url(#paint0_linear_0_1979)"/>
<path d="M29.3056 26.5368L27.3097 26.5037L17.2972 9.92651L19.6923 10.2243L29.3056 26.5368Z" fill="url(#paint1_linear_0_1979)"/>
<path d="M17.2972 9.9595L20.1247 5.32715H22.5197L19.6923 10.2242L17.2972 9.9595Z" fill="url(#paint2_linear_0_1979)"/>
<path d="M0 22.0698L2.36175 26.9669L25.1144 27L22.42 22.0698H0Z" fill="url(#paint3_linear_0_1979)"/>
<path d="M0 22.0698L1.26403 19.5881L20.657 19.6543L22.42 22.0698H0Z" fill="url(#paint4_linear_0_1979)"/>
<path d="M7.85023 16.5441H2.59451L12.2078 0L17.6631 0.0661767L7.85023 16.5441Z" fill="url(#paint5_linear_0_1979)"/>
<path d="M7.85034 16.5441L10.578 15.7169L19.0936 1.62131L17.6632 0.0661621L7.85034 16.5441Z" fill="url(#paint6_linear_0_1979)"/>
<defs>
<linearGradient id="paint0_linear_0_1979" x1="19.6802" y1="15.9358" x2="31.9938" y2="15.9358" gradientUnits="userSpaceOnUse">
<stop stop-color="#6379C9"/>
</linearGradient>
<linearGradient id="paint1_linear_0_1979" x1="17.2818" y1="18.2293" x2="29.312" y2="18.2293" gradientUnits="userSpaceOnUse">
<stop stop-color="#4E89CD"/>
<stop offset="1" stop-color="#6379C9" stop-opacity="0.97"/>
</linearGradient>
<linearGradient id="paint2_linear_0_1979" x1="17.2818" y1="7.77991" x2="22.5183" y2="7.77991" gradientUnits="userSpaceOnUse">
<stop stop-color="#69A1E2"/>
<stop offset="1" stop-color="#2678D7" stop-opacity="0.97"/>
</linearGradient>
<linearGradient id="paint3_linear_0_1979" x1="0.00615385" y1="24.5326" x2="25.1246" y2="24.5326" gradientUnits="userSpaceOnUse">
<stop stop-color="#6379C9"/>
</linearGradient>
<linearGradient id="paint4_linear_0_1979" x1="0.00615385" y1="20.8375" x2="22.4117" y2="20.8375" gradientUnits="userSpaceOnUse">
<stop stop-color="#5796DE"/>
<stop offset="1" stop-color="#366CAA" stop-opacity="0.97"/>
</linearGradient>
<linearGradient id="paint5_linear_0_1979" x1="5.19992" y1="18.4261" x2="8.63908" y2="11.2881" gradientUnits="userSpaceOnUse">
<stop stop-color="#6C90BA"/>
<stop offset="1" stop-color="#6379C9" stop-opacity="0.97"/>
</linearGradient>
<linearGradient id="paint6_linear_0_1979" x1="9.23386" y1="17.7675" x2="12.3059" y2="11.3916" gradientUnits="userSpaceOnUse">
<stop stop-color="#94B5DB"/>
<stop offset="1" stop-color="#69A1E2" stop-opacity="0.97"/>
</linearGradient>
</defs>
</svg>
