<svg width="118" height="167" viewBox="0 0 118 167" fill="none" xmlns="http://www.w3.org/2000/svg">
<path d="M51.3161 149.933L30.8966 137.445C28.3825 135.908 28.3825 133.414 30.8966 131.877L48.9146 123.625L73.7992 139.075L60.4197 149.933C57.9056 151.473 53.8302 151.473 51.3161 149.933Z" fill="#455198"/>
<path d="M72.1976 139.329H72.2021V138.133H70.3413V138.176L47.3176 123.881L29.2997 132.134C28.581 132.573 28.0696 133.091 27.761 133.642H27.4141V134.916V135.002H27.4163C27.4501 135.981 28.0764 136.954 29.2974 137.701L49.7169 150.19C52.231 151.727 56.3063 151.727 58.8205 150.19L72.1999 139.331L72.1976 139.329Z" fill="url(#paint0_linear_0_766)"/>
<path d="M49.717 148.99L29.2975 136.501C26.7833 134.964 26.7833 132.47 29.2975 130.933L47.3155 122.68L72.2001 138.131L58.8206 148.99C56.3065 150.529 52.2311 150.529 49.717 148.99Z" fill="#E6E6F4"/>
<path d="M114.879 67.8717L4.69228 0.481413C3.98715 0.0494541 3.33834 -0.0078222 2.82245 0.247534L2.82019 0.242761L0.993164 1.35726L1.66225 2.58393C1.65549 2.69132 1.65098 2.80349 1.65098 2.91565V92.0518C1.65098 94.424 3.01394 97.1804 4.69228 98.209L114.24 165.21L115.062 166.871L116.979 165.805L116.977 165.797C117.574 165.473 117.959 164.795 118 163.996V74.8594C117.921 71.6567 116.56 68.9003 114.879 67.8717Z" fill="url(#paint1_linear_0_766)"/>
<path d="M113.229 166.614L3.04386 99.2213C1.36326 98.1927 0.00256348 95.4363 0.00256348 93.0641V3.92781C0.00256348 1.55561 1.36551 0.464975 3.04386 1.49118L113.231 68.884C114.912 69.9126 116.272 72.669 116.272 75.0412V164.178C116.272 166.55 114.909 167.64 113.229 166.614Z" fill="#DBDFEB"/>
<path d="M111.514 147.066L4.75781 81.7712V8.24292L111.514 73.5378V147.066Z" fill="url(#paint2_linear_0_766)"/>
<path d="M113.219 166.607L3.05256 99.2288C1.36746 98.1978 0 95.4318 0 93.0501V84.3418L116.27 155.455V164.163C116.272 166.542 114.905 167.638 113.219 166.607Z" fill="#F5F5FF"/>
<path d="M15.6633 72.5909C15.6633 72.6319 15.6565 72.6671 15.643 72.6964C15.6295 72.7247 15.6108 72.7458 15.5872 72.7595C15.5635 72.7732 15.5356 72.7786 15.5034 72.7757C15.4721 72.7733 15.4387 72.7618 15.4032 72.7413L14.4935 72.2172C14.458 72.1968 14.4242 72.1694 14.392 72.1353C14.3607 72.1016 14.3332 72.0643 14.3096 72.0233C14.2859 71.9823 14.2673 71.9399 14.2537 71.896C14.2402 71.851 14.2334 71.8081 14.2334 71.7671L14.2334 70.2671C14.2334 70.2261 14.2402 70.1914 14.2537 70.163C14.2673 70.1337 14.2859 70.1127 14.3096 70.1C14.3333 70.0863 14.3607 70.0807 14.392 70.0831C14.4242 70.085 14.458 70.0962 14.4935 70.1166L15.4032 70.6408C15.4387 70.6612 15.4721 70.6888 15.5034 70.7234C15.5356 70.7576 15.5635 70.7951 15.5872 70.8361C15.6108 70.8761 15.6295 70.9186 15.643 70.9635C15.6565 71.0074 15.6633 71.0499 15.6633 71.0909L15.6633 72.5909ZM14.4935 70.4169L14.4935 71.9169L15.4032 72.4411L15.4032 70.9411L14.4935 70.4169Z" fill="white"/>
<path d="M14.6496 61.739L14.6496 63.8396L14.3895 63.6897L14.3895 61.8895L14.0774 61.7096L14.0774 61.4093L14.6496 61.739ZM16.5742 64.6482C16.5742 64.6893 16.5675 64.7244 16.5539 64.7537C16.5404 64.7821 16.5218 64.8031 16.4981 64.8168C16.4744 64.8305 16.4465 64.8359 16.4144 64.833C16.3831 64.8306 16.3497 64.8191 16.3141 64.7987L15.4045 64.2745C15.3689 64.2541 15.3351 64.2268 15.303 64.1926C15.2717 64.159 15.2442 64.1217 15.2205 64.0807C15.1968 64.0397 15.1782 63.9972 15.1647 63.9533C15.1512 63.9084 15.1444 63.8654 15.1444 63.8244L15.1444 62.3244C15.1444 62.2834 15.1512 62.2487 15.1647 62.2204C15.1782 62.1911 15.1968 62.17 15.2205 62.1573C15.2442 62.1436 15.2717 62.138 15.303 62.1404C15.3351 62.1423 15.3689 62.1535 15.4045 62.174L16.3141 62.6981C16.3497 62.7186 16.3831 62.7461 16.4144 62.7807C16.4465 62.8149 16.4744 62.8525 16.4981 62.8934C16.5218 62.9335 16.5404 62.9759 16.5539 63.0208C16.5675 63.0648 16.5742 63.1072 16.5742 63.1482L16.5742 64.6482ZM15.4045 62.4743L15.4045 63.9743L16.3141 64.4984L16.3141 62.9984L15.4045 62.4743ZM17.8535 64.0776L18.1029 64.2213L17.5079 64.6525L18.1523 65.8578L17.8873 65.7051L17.2585 64.5268L17.2585 65.3428L17.0298 65.211L17.0298 63.603L17.2585 63.7348L17.2585 64.5148L17.8535 64.0776Z" fill="white"/>
<path d="M14.4682 53.8184L14.4682 54.0894L14.2081 53.9396L14.2081 53.6686C14.2081 53.6276 14.2148 53.5929 14.2284 53.5646C14.2419 53.5353 14.2605 53.5142 14.2842 53.5015C14.3079 53.4878 14.3354 53.4822 14.3667 53.4846C14.3988 53.4865 14.4326 53.4977 14.4682 53.5182L15.2916 53.9926C15.3271 54.013 15.3605 54.0406 15.3918 54.0752C15.4239 54.1094 15.4514 54.1467 15.4743 54.1872C15.4979 54.2272 15.5165 54.2697 15.5301 54.3146C15.5445 54.359 15.5516 54.4017 15.5516 54.4427L15.5516 54.8265C15.5516 54.8675 15.5483 54.9022 15.5415 54.9305C15.5347 54.9589 15.5237 54.9818 15.5085 54.9994C15.4941 55.0165 15.4755 55.0287 15.4527 55.0361C15.4298 55.0434 15.4019 55.0469 15.3689 55.0464L14.4682 55.0152L14.4682 55.3184L15.3245 55.8119L15.3245 55.5423L15.5846 55.6922L15.5846 56.262L14.2081 55.4689L14.2081 54.9166C14.2081 54.8756 14.2115 54.8409 14.2182 54.8126C14.2258 54.7848 14.2368 54.7623 14.2512 54.7452C14.2656 54.7281 14.2842 54.7159 14.307 54.7085C14.3307 54.7007 14.3582 54.697 14.3895 54.6974L15.2916 54.7279L15.2916 54.2929L14.4682 53.8184ZM17.4573 57.0407C17.4573 57.0817 17.4505 57.1169 17.437 57.1462C17.4234 57.1745 17.4048 57.1955 17.3811 57.2092C17.3575 57.2229 17.3295 57.2283 17.2974 57.2254C17.2661 57.223 17.2327 57.2116 17.1972 57.1911L16.2875 56.667C16.252 56.6465 16.2181 56.6192 16.186 56.5851C16.1547 56.5514 16.1272 56.5141 16.1035 56.4731C16.0799 56.4321 16.0612 56.3897 16.0477 56.3457C16.0342 56.3008 16.0274 56.2579 16.0274 56.2168L16.0274 54.7168C16.0274 54.6758 16.0342 54.6412 16.0477 54.6128C16.0612 54.5835 16.0799 54.5625 16.1035 54.5498C16.1272 54.5361 16.1547 54.5304 16.186 54.5328C16.2181 54.5347 16.252 54.5459 16.2875 54.5664L17.1972 55.0905C17.2327 55.111 17.2661 55.1386 17.2974 55.1732C17.3295 55.2073 17.3575 55.2449 17.3811 55.2859C17.4048 55.3259 17.4234 55.3684 17.437 55.4133C17.4505 55.4572 17.4573 55.4997 17.4573 55.5407L17.4573 57.0407ZM16.2875 54.8667L16.2875 56.3667L17.1972 56.8908L17.1972 55.3908L16.2875 54.8667ZM18.7365 56.47L18.9859 56.6138L18.3909 57.0449L19.0353 58.2502L18.7703 58.0975L18.1415 56.9192L18.1415 57.7352L17.9128 57.6035L17.9128 55.9955L18.1415 56.1272L18.1415 56.9072L18.7365 56.47Z" fill="white"/>
<path d="M14.1294 46.6715L14.3844 46.8184L14.3844 46.9297C14.3844 47.0088 14.3996 47.0757 14.4301 47.1304C14.4605 47.185 14.5104 47.2323 14.5798 47.2723L15.1038 47.5742C15.1731 47.6142 15.223 47.6244 15.2535 47.6048C15.2839 47.5852 15.2992 47.5359 15.2992 47.4568L15.2992 47.2942C15.2992 47.2141 15.2839 47.1472 15.2535 47.0936C15.223 47.0399 15.1731 46.9931 15.1038 46.9531L14.5658 46.6432L14.5658 46.3502L15.0962 46.6558C15.1596 46.6894 15.2049 46.6959 15.2319 46.6754C15.2598 46.6544 15.2738 46.6058 15.2738 46.5296L15.2738 46.3919C15.2738 46.3118 15.2581 46.2442 15.2269 46.1891C15.1964 46.1344 15.1469 46.0873 15.0784 46.0479L14.6052 45.7752C14.5367 45.7357 14.4872 45.7258 14.4567 45.7453C14.4263 45.7649 14.4111 45.8147 14.4111 45.8948L14.4111 46.0061L14.1561 45.8592L14.1561 45.7332C14.1561 45.3924 14.3032 45.3068 14.5976 45.4764L15.086 45.7578C15.2357 45.8441 15.3465 45.9499 15.4184 46.0753C15.4912 46.2012 15.5275 46.3506 15.5275 46.5234L15.5275 46.5615C15.5275 46.6797 15.5094 46.7669 15.473 46.8231C15.4375 46.8788 15.3854 46.9054 15.3169 46.9031C15.3939 46.9738 15.4527 47.0604 15.4933 47.1629C15.5339 47.2654 15.5542 47.382 15.5542 47.5129L15.5542 47.6184C15.5542 47.9582 15.407 48.0433 15.1127 47.8738L14.5722 47.5623C14.277 47.3923 14.1294 47.1373 14.1294 46.7975L14.1294 46.6715ZM17.3735 48.8761C17.3735 48.9171 17.3668 48.9523 17.3532 48.9816C17.3397 49.0099 17.3211 49.0309 17.2974 49.0446C17.2737 49.0583 17.2458 49.0637 17.2137 49.0609C17.1824 49.0584 17.149 49.047 17.1134 49.0265L16.2038 48.5024C16.1682 48.4819 16.1344 48.4546 16.1023 48.4205C16.071 48.3868 16.0435 48.3495 16.0198 48.3085C15.9961 48.2675 15.9775 48.2251 15.964 48.1811C15.9504 48.1362 15.9437 48.0933 15.9437 48.0523L15.9437 46.5523C15.9437 46.5113 15.9504 46.4766 15.964 46.4482C15.9775 46.4189 15.9961 46.3979 16.0198 46.3852C16.0435 46.3715 16.071 46.3658 16.1023 46.3683C16.1344 46.3702 16.1682 46.3814 16.2038 46.4018L17.1134 46.926C17.149 46.9464 17.1824 46.974 17.2137 47.0086C17.2458 47.0428 17.2737 47.0803 17.2974 47.1213C17.3211 47.1613 17.3397 47.2038 17.3532 47.2487C17.3668 47.2926 17.3735 47.3351 17.3735 47.3761L17.3735 48.8761ZM16.2038 46.7021L16.2038 48.2021L17.1134 48.7262L17.1134 47.2262L16.2038 46.7021ZM18.6528 48.3055L18.9022 48.4492L18.3072 48.8803L18.9516 50.0856L18.6865 49.9329L18.0577 48.7546L18.0577 49.5706L17.8291 49.4389L17.8291 47.8309L18.0577 47.9626L18.0577 48.7426L18.6528 48.3055Z" fill="white"/>
<path d="M14.052 38.4228L14.949 37.5627L15.2548 37.7388L15.2548 39.1158L15.4996 39.2569L15.4996 39.5454L15.2548 39.4044L15.2548 39.8394L14.9947 39.6896L14.9947 39.2545L14.052 38.7114L14.052 38.4228ZM14.9947 38.9659L14.9947 37.9523L14.3349 38.5858L14.9947 38.9659ZM17.2416 40.6839C17.2416 40.7249 17.2348 40.76 17.2213 40.7894C17.2077 40.8177 17.1891 40.8387 17.1655 40.8524C17.1418 40.8661 17.1139 40.8715 17.0817 40.8686C17.0504 40.8662 17.017 40.8548 16.9815 40.8343L16.0718 40.3102C16.0363 40.2897 16.0025 40.2624 15.9703 40.2283C15.939 40.1946 15.9115 40.1573 15.8879 40.1163C15.8642 40.0753 15.8456 40.0328 15.832 39.9889C15.8185 39.944 15.8117 39.901 15.8117 39.86L15.8117 38.36C15.8117 38.319 15.8185 38.2843 15.832 38.256C15.8456 38.2267 15.8642 38.2057 15.8879 38.193C15.9115 38.1793 15.939 38.1736 15.9703 38.176C16.0025 38.1779 16.0363 38.1891 16.0718 38.2096L16.9815 38.7337C17.017 38.7542 17.0504 38.7817 17.0817 38.8164C17.1139 38.8505 17.1418 38.8881 17.1655 38.9291C17.1891 38.9691 17.2077 39.0115 17.2213 39.0564C17.2348 39.1004 17.2416 39.1429 17.2416 39.1839L17.2416 40.6839ZM16.0718 38.5099L16.0718 40.0099L16.9815 40.534L16.9815 39.034L16.0718 38.5099ZM18.5208 40.1132L18.7703 40.2569L18.1752 40.6881L18.8196 41.8934L18.5546 41.7407L17.9258 40.5624L17.9258 41.3784L17.6971 41.2466L17.6971 39.6386L17.9258 39.7704L17.9258 40.5504L18.5208 40.1132Z" fill="white"/>
<path d="M15.5022 31.3573C15.4996 31.5267 15.4624 31.6332 15.3905 31.6766C15.3186 31.7191 15.2087 31.6977 15.0606 31.6122L14.5722 31.3303C14.277 31.16 14.1294 30.9049 14.1294 30.565L14.1294 30.4391L14.3844 30.5862L14.3844 30.6976C14.3844 30.7767 14.3996 30.8436 14.4301 30.8982C14.4605 30.9529 14.5104 31.0003 14.5798 31.0403L15.0518 31.3127C15.1211 31.3527 15.171 31.363 15.2015 31.3434C15.2319 31.3239 15.2472 31.2746 15.2472 31.1955L15.2472 30.9127C15.2472 30.8336 15.2319 30.7672 15.2015 30.7135C15.171 30.6589 15.1211 30.6115 15.0518 30.5715L14.1814 30.0692L14.1814 29.0042L15.4552 29.7394L15.4552 30.0397L14.4415 29.4546L14.4415 29.9263L15.0606 30.2836C15.2095 30.3695 15.3203 30.4755 15.3931 30.6014C15.4658 30.7264 15.5022 30.8753 15.5022 31.0482L15.5022 31.3573ZM17.3228 32.6175C17.3228 32.6585 17.316 32.6936 17.3025 32.7229C17.2889 32.7513 17.2703 32.7723 17.2467 32.7859C17.223 32.7996 17.1951 32.805 17.1629 32.8021C17.1316 32.7996 17.0982 32.7882 17.0627 32.7677L16.153 32.2427C16.1175 32.2222 16.0837 32.1948 16.0515 32.1607C16.0202 32.127 15.9927 32.0896 15.9691 32.0486C15.9454 32.0076 15.9268 31.9651 15.9132 31.9212C15.8997 31.8763 15.8929 31.8333 15.8929 31.7923L15.8929 30.2923C15.8929 30.2513 15.8997 30.2166 15.9132 30.1883C15.9268 30.159 15.9454 30.138 15.9691 30.1253C15.9927 30.1116 16.0202 30.106 16.0515 30.1084C16.0837 30.1104 16.1175 30.1216 16.153 30.1421L17.0627 30.6671C17.0982 30.6876 17.1316 30.7152 17.1629 30.7498C17.1951 30.784 17.223 30.8216 17.2467 30.8626C17.2703 30.9026 17.2889 30.9451 17.3025 30.99C17.316 31.034 17.3228 31.0765 17.3228 31.1175L17.3228 32.6175ZM16.153 30.4424L16.153 31.9424L17.0627 32.4674L17.0627 30.9674L16.153 30.4424ZM18.602 32.048L18.8515 32.192L18.2564 32.6226L18.9008 33.8285L18.6358 33.6755L18.007 32.4966L18.007 33.3126L17.7783 33.1807L17.7783 31.5727L18.007 31.7046L18.007 32.4846L18.602 32.048Z" fill="white"/>
<line y1="-0.1" x2="90.0336" y2="-0.1" transform="matrix(0.866112 0.49903 -2.20756e-08 1 23.0557 77.118)" stroke="white" stroke-width="0.2"/>
<line y1="-0.1" x2="90.0336" y2="-0.1" transform="matrix(0.866112 0.49903 -2.20756e-08 1 23.0557 69.2916)" stroke="white" stroke-width="0.2"/>
<line y1="-0.1" x2="90.0336" y2="-0.1" transform="matrix(0.866112 0.49903 -2.20756e-08 1 23.0557 61.1755)" stroke="white" stroke-width="0.2"/>
<line y1="-0.1" x2="90.0336" y2="-0.1" transform="matrix(0.866112 0.49903 -2.20756e-08 1 23.0557 53.0592)" stroke="white" stroke-width="0.2"/>
<line y1="-0.1" x2="90.0336" y2="-0.1" transform="matrix(0.866112 0.49903 -2.20756e-08 1 23.0557 44.9429)" stroke="white" stroke-width="0.2"/>
<line y1="-0.1" x2="90.0336" y2="-0.1" transform="matrix(0.866112 0.49903 -2.20756e-08 1 23.0557 36.8267)" stroke="white" stroke-width="0.2"/>
<line y1="-0.1" x2="40.2916" y2="-0.1" transform="matrix(-6.00081e-08 1 -0.866112 -0.49903 23.0557 36.8267)" stroke="white" stroke-width="0.2"/>
<line y1="-0.25" x2="13.013" y2="-0.25" transform="matrix(0.676562 -0.23389 0.541913 1.09282 27.835 72.0454)" stroke="#C6EEFF" stroke-width="0.5"/>
<line y1="-0.25" x2="11.8253" y2="-0.25" transform="matrix(0.787037 0.0367678 0.362295 1.1174 36.6394 69.0018)" stroke="#C6EEFF" stroke-width="0.5"/>
<line y1="-0.25" x2="12.8836" y2="-0.25" transform="matrix(0.702879 0.98995 -0.50755 0.517387 45.9465 69.4366)" stroke="#C6EEFF" stroke-width="0.5"/>
<line y1="-0.25" x2="16.316" y2="-0.25" transform="matrix(0.539601 -0.470796 0.678601 1.01302 55.0022 82.1908)" stroke="#C6EEFF" stroke-width="0.5"/>
<line y1="-0.25" x2="11.5549" y2="-0.25" transform="matrix(0.783705 0.878013 -0.370306 0.690282 63.8062 74.5093)" stroke="#C6EEFF" stroke-width="0.5"/>
<line y1="-0.25" x2="15.4049" y2="-0.25" transform="matrix(0.587842 -0.395148 0.637251 1.04501 72.8618 84.6548)" stroke="#C6EEFF" stroke-width="0.5"/>
<line y1="-0.25" x2="12.0941" y2="-0.25" transform="matrix(0.748765 0.934738 -0.436885 0.611323 81.9175 78.5674)" stroke="#C6EEFF" stroke-width="0.5"/>
<line y1="-0.25" x2="15.8355" y2="-0.25" transform="matrix(0.571856 -0.421012 0.651646 1.03481 90.9731 89.8723)" stroke="#C6EEFF" stroke-width="0.5"/>
<ellipse cx="0.580688" cy="0.579735" rx="0.580688" ry="0.579735" transform="matrix(0.866112 0.49903 -2.20756e-08 1 36.1362 68.1321)" fill="#57A4DC"/>
<ellipse cx="0.580688" cy="0.579735" rx="0.580688" ry="0.579735" transform="matrix(0.866112 0.49903 -2.20756e-08 1 45.4434 68.5669)" fill="#57A4DC"/>
<ellipse cx="0.580688" cy="0.579735" rx="0.580688" ry="0.579735" transform="matrix(0.866112 0.49903 -2.20756e-08 1 54.499 81.3212)" fill="#57A4DC"/>
<ellipse cx="0.580688" cy="0.579735" rx="0.580688" ry="0.579735" transform="matrix(0.866112 0.49903 -2.20756e-08 1 63.303 73.6396)" fill="#57A4DC"/>
<ellipse cx="0.580688" cy="0.579735" rx="0.580688" ry="0.579735" transform="matrix(0.866112 0.49903 -2.20756e-08 1 72.3586 83.785)" fill="#57A4DC"/>
<ellipse cx="0.580688" cy="0.579735" rx="0.580688" ry="0.579735" transform="matrix(0.866112 0.49903 -2.20756e-08 1 81.4143 77.6979)" fill="#57A4DC"/>
<ellipse cx="0.580688" cy="0.579735" rx="0.580688" ry="0.579735" transform="matrix(0.866112 0.49903 -2.20756e-08 1 90.47 89.0026)" fill="#57A4DC"/>
<ellipse cx="0.580688" cy="0.579735" rx="0.580688" ry="0.579735" transform="matrix(0.866112 0.49903 -2.20756e-08 1 99.5259 82.3358)" fill="#57A4DC"/>
<line y1="-0.25" x2="14.5746" y2="-0.25" transform="matrix(0.621329 -0.338104 0.604598 1.06496 27.5837 71.9005)" stroke="#C6EEFF" stroke-width="0.5"/>
<line y1="-0.25" x2="14.7845" y2="-0.25" transform="matrix(0.629522 -0.323501 0.596046 1.06952 36.6394 66.9729)" stroke="#C6EEFF" stroke-width="0.5"/>
<line y1="-0.25" x2="11.116" y2="-0.25" transform="matrix(0.814594 0.130374 0.294753 1.11042 45.9465 62.1899)" stroke="#C6EEFF" stroke-width="0.5"/>
<line y1="-0.25" x2="17.2246" y2="-0.25" transform="matrix(0.511136 1.10228 -0.700023 0.184861 55.0022 63.6393)" stroke="#C6EEFF" stroke-width="0.5"/>
<line y1="-0.25" x2="13.2308" y2="-0.25" transform="matrix(0.684439 1.0078 -0.532173 0.481837 63.8062 82.6256)" stroke="#C6EEFF" stroke-width="0.5"/>
<line y1="-0.25" x2="11.562" y2="-0.25" transform="matrix(0.78321 0.0250702 0.37054 1.11771 72.8618 95.9595)" stroke="#C6EEFF" stroke-width="0.5"/>
<line y1="-0.25" x2="10.7781" y2="-0.25" transform="matrix(0.840186 0.242046 0.210488 1.0915 81.9175 96.2495)" stroke="#C6EEFF" stroke-width="0.5"/>
<line y1="-0.25" x2="11.2179" y2="-0.25" transform="matrix(0.807203 0.103353 0.314536 1.11325 90.9731 98.8583)" stroke="#C6EEFF" stroke-width="0.5"/>
<ellipse cx="0.580688" cy="0.579735" rx="0.580688" ry="0.579735" transform="matrix(0.866112 0.49903 -2.20756e-08 1 36.1362 66.1033)" fill="#57A4DC"/>
<ellipse cx="0.580688" cy="0.579735" rx="0.580688" ry="0.579735" transform="matrix(0.866112 0.49903 -2.20756e-08 1 45.4434 61.3203)" fill="#57A4DC"/>
<ellipse cx="0.580688" cy="0.579735" rx="0.580688" ry="0.579735" transform="matrix(0.866112 0.49903 -2.20756e-08 1 54.499 62.7695)" fill="#57A4DC"/>
<ellipse cx="0.580688" cy="0.579735" rx="0.580688" ry="0.579735" transform="matrix(0.866112 0.49903 -2.20756e-08 1 63.303 81.756)" fill="#57A4DC"/>
<ellipse cx="0.580688" cy="0.579735" rx="0.580688" ry="0.579735" transform="matrix(0.866112 0.49903 -2.20756e-08 1 72.3586 95.09)" fill="#57A4DC"/>
<ellipse cx="0.580688" cy="0.579735" rx="0.580688" ry="0.579735" transform="matrix(0.866112 0.49903 -2.20756e-08 1 27.0806 71.0309)" fill="#57A4DC"/>
<ellipse cx="0.580688" cy="0.579735" rx="0.580688" ry="0.579735" transform="matrix(0.866112 0.49903 -2.20756e-08 1 81.4143 95.3798)" fill="#57A4DC"/>
<ellipse cx="0.580688" cy="0.579735" rx="0.580688" ry="0.579735" transform="matrix(0.866112 0.49903 -2.20756e-08 1 90.47 97.9885)" fill="#57A4DC"/>
<ellipse cx="0.580688" cy="0.579735" rx="0.580688" ry="0.579735" transform="matrix(0.866112 0.49903 -2.20756e-08 1 99.5259 99.1481)" fill="#57A4DC"/>
<defs>
<linearGradient id="paint0_linear_0_766" x1="27.4124" y1="137.611" x2="72.2008" y2="137.611" gradientUnits="userSpaceOnUse">
<stop stop-color="#D9DCF4"/>
<stop offset="0.216" stop-color="#D9DCF4"/>
<stop offset="0.3198" stop-color="#D9DCF4"/>
<stop offset="0.4594" stop-color="#D9DCF4"/>
<stop offset="1" stop-color="#7F8AC1"/>
</linearGradient>
<linearGradient id="paint1_linear_0_766" x1="0.992939" y1="83.4821" x2="118" y2="83.4821" gradientUnits="userSpaceOnUse">
<stop stop-color="#D9DCF4"/>
<stop offset="0.216" stop-color="#D9DCF4"/>
<stop offset="0.3198" stop-color="#D9DCF4"/>
<stop offset="0.4594" stop-color="#D9DCF4"/>
<stop offset="1" stop-color="#7F8AC1"/>
</linearGradient>
<linearGradient id="paint2_linear_0_766" x1="4.76275" y1="45.0077" x2="111.515" y2="45.0077" gradientUnits="userSpaceOnUse">
<stop stop-color="#5461AA"/>
<stop offset="0.4639" stop-color="#6F7AC7"/>
<stop offset="0.9368" stop-color="#8790E0"/>
</linearGradient>
</defs>
</svg>
