<svg width="22" height="25" viewBox="0 0 22 25" fill="none" xmlns="http://www.w3.org/2000/svg">
<path d="M20.7328 14.2775C20.062 12.7703 19.1355 11.3098 17.9642 9.94283C16.5479 8.27963 15.137 7.16736 14.4182 6.65281L17.1336 1.73597C17.2667 1.49168 17.2241 1.19023 17.0165 0.997921C16.3137 0.327443 15.5682 0 14.7377 0C13.9763 0 13.2788 0.280665 12.6718 0.530146C12.1926 0.722453 11.7401 0.909563 11.3727 0.909563C11.2609 0.909563 11.1651 0.893971 11.0692 0.857588C9.80203 0.405405 8.82769 0.12474 7.88529 0.12474C6.69264 0.12474 5.6757 0.592516 4.68006 1.59044C4.47241 1.79834 4.44046 2.12578 4.60552 2.37006L7.53388 6.68919C6.80978 7.21414 5.42546 8.31601 4.03582 9.94283C2.8698 11.3098 1.93804 12.7703 1.26718 14.2775C0.425944 16.1746 0 18.1549 0 20.1611C0 22.8274 2.22556 25 4.95692 25H17.0431C19.7744 25 22 22.8274 22 20.1611C22 18.1549 21.5741 16.1746 20.7328 14.2775ZM5.96854 2.11019C6.58616 1.59044 7.17715 1.36175 7.88529 1.36175C8.64134 1.36175 9.49322 1.61123 10.6273 2.02183C10.8616 2.10499 11.1118 2.14657 11.3674 2.14657C11.9903 2.14657 12.5866 1.90748 13.1563 1.6736C13.7047 1.4501 14.2265 1.23701 14.7323 1.23701C14.9773 1.23701 15.3233 1.27859 15.7599 1.58004L13.2043 6.21622H8.75315L5.96854 2.11019ZM17.0431 23.7526H4.95692C2.92836 23.7526 1.27783 22.1414 1.27783 20.1611C1.27783 16.8295 2.52904 13.6694 4.98887 10.7692C6.54356 8.93451 8.12488 7.79626 8.60407 7.46362H13.3853C13.8698 7.79106 15.4458 8.93451 17.0005 10.7692C19.4656 13.6694 20.7115 16.8243 20.7115 20.1611C20.7222 22.1414 19.0716 23.7526 17.0431 23.7526Z" fill="#6379C9"/>
<path d="M11.9963 18.0691C13.5783 18.0691 14.7502 16.9558 14.7502 15.2957C14.7502 13.6355 13.5783 12.5417 11.9963 12.5417H8.73454C8.59782 12.5417 8.50016 12.6589 8.50016 12.7761V16.9949H7.48454C7.34782 16.9949 7.25016 17.1121 7.25016 17.2292V17.8347C7.25016 17.9714 7.34782 18.0691 7.48454 18.0691H8.50016V18.7917H7.48454C7.34782 18.7917 7.25016 18.9089 7.25016 19.0261V19.4949C7.25016 19.6316 7.34782 19.7292 7.48454 19.7292H8.50016V21.0574C8.50016 21.1941 8.59782 21.2917 8.73454 21.2917H9.51579C9.63297 21.2917 9.75016 21.1941 9.75016 21.0574V19.7292H13.2658C13.383 19.7292 13.5002 19.6316 13.5002 19.4949V19.0261C13.5002 18.9089 13.383 18.7917 13.2658 18.7917H9.75016V18.0691H11.9963ZM9.75016 13.616H11.8009C12.8361 13.616 13.4806 14.241 13.4806 15.2957C13.4806 16.3503 12.8361 16.9949 11.7814 16.9949H9.75016V13.616Z" fill="#6379C9"/>
</svg>
