<svg width="30" height="30" viewBox="0 0 30 30" fill="none" xmlns="http://www.w3.org/2000/svg">
<g clip-path="url(#clip0_0_726)">
<path d="M29.9499 18.2931L29.9544 18.2916L25.0289 7.54467L26.2234 6.95018L25.7764 6.05518L24.6119 6.63518L24.4544 6.29168C24.3393 6.04068 24.0426 5.9305 23.7916 6.04556C23.6827 6.09549 23.5954 6.18281 23.5454 6.29168L23.4049 6.59868C22.5574 6.20506 21.6344 6.00081 20.7 6.00018H16.5V5.00019H17.5V4.0002H16.6405L17 2.56171C17.276 1.45716 16.6044 0.33798 15.4998 0.0619202C14.3953 -0.214078 13.2761 0.457542 13 1.5621C12.918 1.89022 12.918 2.23353 13 2.56165L13.3595 4.00014H12.5V5.00013H13.5V6.00012H9.30255C8.36718 6.00087 7.44319 6.20562 6.59507 6.60012L6.45457 6.29312C6.33951 6.04212 6.0427 5.93193 5.79171 6.04699C5.68283 6.09693 5.59552 6.18424 5.54558 6.29312L5.38808 6.63661L4.22359 6.05412L3.7766 6.95011L4.97109 7.54711L0.0456283 18.2916C0.0152536 18.3569 -0.000246281 18.4281 0.000128716 18.5001C0.0023162 20.4321 1.56805 21.9979 3.5001 22H8.50006C10.4321 21.9979 11.9978 20.4321 12 18.5001C11.9988 18.4283 11.9817 18.3576 11.95 18.2931L7.01107 7.50567C7.729 7.17242 8.51106 6.99992 9.30255 7.00017H13.5V25.293L11.793 27H10C8.62006 27.0016 7.50169 28.12 7.50007 29.5C7.50007 29.7761 7.72394 30 8.00006 30H21.9999C22.2761 30 22.4999 29.7761 22.4999 29.5C22.4983 28.12 21.3799 27.0016 20 27H18.207L16.5 25.293V7.00017H20.7C21.4914 6.99992 22.2735 7.17242 22.9914 7.50567L18.0455 18.2916C18.0151 18.3569 17.9996 18.4281 18 18.5001C18.0022 20.4321 19.5679 21.9979 21.4999 22H26.4999C28.432 21.9979 29.9977 20.4321 29.9999 18.5001C29.9987 18.4283 29.9816 18.3576 29.9499 18.2931ZM8.50006 21.0001H3.5001C2.31248 20.9987 1.28918 20.1634 1.05012 19.0001H10.95C10.711 20.1634 9.68767 20.9987 8.50006 21.0001ZM10.721 18.0001H1.27912L5.87208 7.97967C5.95595 8.00217 6.0442 8.00217 6.12808 7.97967L10.721 18.0001ZM14.1635 1.40822C14.5529 0.946225 15.2431 0.887413 15.7051 1.27679C15.7525 1.31678 15.7965 1.36078 15.8365 1.40822C16.0387 1.66547 16.1102 2.00197 16.03 2.31921L15.6095 4.0002H14.3905L13.97 2.31921C13.8898 2.00197 13.9613 1.66547 14.1635 1.40822ZM14.5 6.00018V5.00019H15.5V6.00018H14.5ZM15.5 7.00017V25H14.5V7.00017H15.5ZM20 28C20.6355 28.0007 21.2018 28.4011 21.4144 29H8.58556C8.79824 28.4011 9.36455 28.0007 10 28H20ZM16.793 27H13.207L14.207 26H15.793L16.793 27ZM23.8709 7.98117C23.9535 8.01023 24.0441 8.00648 24.1239 7.97067L28.7209 18.0001H19.279L23.8709 7.98117ZM26.4999 21.0001H21.4999C20.3123 20.9987 19.289 20.1634 19.05 19.0001H28.9499C28.7109 20.1634 27.6875 20.9987 26.4999 21.0001Z" fill="#6379C9"/>
</g>
<defs>
<clipPath id="clip0_0_726">
<rect width="30" height="30" fill="white"/>
</clipPath>
</defs>
</svg>
