<svg width="30" height="30" viewBox="0 0 30 30" fill="none" xmlns="http://www.w3.org/2000/svg">
<g clip-path="url(#clip0_0_733)">
<path d="M22.9871 4.97363C23.0001 4.97458 23.0132 4.97553 23.0265 4.97553C23.049 4.97553 23.0716 4.97363 23.0936 4.97055C23.6843 4.98265 24.1571 5.46443 24.1578 6.05513C24.1578 6.32355 24.3754 6.54118 24.6439 6.54118C24.9123 6.54118 25.1299 6.32355 25.1299 6.05513C25.1287 5.08897 24.4561 4.25311 23.5125 4.04521V3.57815C23.5125 3.30973 23.2949 3.0921 23.0265 3.0921C22.7581 3.0921 22.5404 3.30973 22.5404 3.57815V4.06728C21.5427 4.33404 20.8972 5.29925 21.0317 6.32331C21.1663 7.34738 22.0392 8.113 23.072 8.113C23.6718 8.113 24.1578 8.59928 24.1578 9.19901C24.1578 9.7985 23.6718 10.2848 23.072 10.2848C22.4723 10.2848 21.9863 9.7985 21.9863 9.19901C21.9863 8.93059 21.7686 8.71296 21.5002 8.71296C21.2318 8.71296 21.0142 8.93059 21.0142 9.19901C21.0154 10.1303 21.641 10.945 22.5404 11.1869V11.7194C22.5404 11.9878 22.7581 12.2055 23.0265 12.2055C23.2949 12.2055 23.5125 11.9878 23.5125 11.7194V11.2092C24.539 10.9844 25.2312 10.0223 25.118 8.97758C25.0051 7.93287 24.1229 7.14114 23.072 7.14138C22.4889 7.14162 22.0098 6.6812 21.9867 6.09857C21.964 5.51593 22.4056 5.0192 22.9871 4.97387V4.97363Z" fill="#6379C9"/>
<path d="M23.0998 0.715759C20.1097 0.715759 17.558 2.66683 16.602 5.27933H4.53841C4.27118 5.27933 4.05427 5.52021 4.05237 5.78721L3.9375 22.8378H0.498863C0.230445 22.8378 0 23.0321 0 23.301V25.4647C0.00617049 27.5017 1.6105 29.1751 3.64535 29.2672V29.2779H18.652V29.2636C18.7736 29.2681 18.8236 29.2779 18.9005 29.2779H18.911C21.017 29.2745 22.7227 27.5663 22.7227 25.4602V14.5204C22.8442 14.527 22.9728 14.5306 23.0986 14.5306C26.9037 14.5306 30.0001 11.4282 30.0001 7.62293C30.0001 3.81786 26.9051 0.715759 23.0998 0.715759ZM3.83023 28.3058H3.82714C2.25485 28.3036 0.979213 27.0323 0.972094 25.4597V23.8098H15.0674V25.4529C15.0682 26.4672 15.4733 27.4395 16.1929 28.1546C16.2439 28.2056 16.3072 28.245 16.3606 28.3058H3.83023ZM21.7506 25.4597C21.7508 27.0294 20.4799 28.3027 18.9105 28.3058H18.9012C17.3254 28.3029 16.0474 27.029 16.0395 25.4533V23.301C16.0436 23.1767 15.9961 23.0563 15.9081 22.9685C15.82 22.8807 15.6997 22.8335 15.5756 22.8378H4.90959L5.02114 6.25142H16.3322C16.246 6.69641 16.2014 7.14828 16.199 7.60134C16.1981 8.55943 16.3979 9.50684 16.7857 10.3828H12.1948C11.9262 10.3828 11.7088 10.6004 11.7088 10.8689C11.7088 11.1373 11.9262 11.3549 12.1948 11.3549H17.313C18.3158 12.9317 19.9187 14.031 21.7506 14.3989V25.4597ZM23.0998 13.5587C19.8256 13.5587 17.1711 10.9045 17.1714 7.63005C17.1714 4.35565 19.8256 1.70138 23.1 1.70138C26.3742 1.70138 29.0285 4.35589 29.0285 7.63005C29.0249 10.9028 26.3728 13.5552 23.0998 13.5587Z" fill="#6379C9"/>
<path d="M9.07497 13.6176C8.21703 13.6176 7.51929 14.2933 7.51929 15.1239C7.51929 15.9546 8.21703 16.6303 9.07497 16.6303C9.93291 16.6303 10.6309 15.9546 10.6309 15.1239C10.6309 14.2933 9.93291 13.6176 9.07497 13.6176ZM9.07497 15.6582C8.75292 15.6582 8.49138 15.4185 8.49138 15.1239C8.49138 14.8292 8.75315 14.5897 9.07497 14.5897C9.39679 14.5897 9.6588 14.8294 9.6588 15.1239C9.6588 15.4185 9.39679 15.6582 9.07497 15.6582Z" fill="#6379C9"/>
<path d="M11.7088 15.1217C11.7088 15.3902 11.9262 15.6078 12.1948 15.6078H18.6748C18.9432 15.6078 19.1609 15.3902 19.1609 15.1217C19.1609 14.8533 18.9432 14.6357 18.6748 14.6357H12.1948C11.9262 14.6357 11.7088 14.8533 11.7088 15.1217Z" fill="#6379C9"/>
<path d="M9.07497 9.39246C8.21703 9.39246 7.51929 10.0684 7.51929 10.899C7.51929 11.7297 8.21703 12.4053 9.07497 12.4053C9.93291 12.4053 10.6309 11.7297 10.6309 10.899C10.6309 10.0684 9.93291 9.39246 9.07497 9.39246ZM9.07497 11.4332C8.75292 11.4332 8.49138 11.1935 8.49138 10.899C8.49138 10.6045 8.75315 10.3645 9.07497 10.3645C9.39679 10.3645 9.6588 10.6043 9.6588 10.899C9.6588 11.1935 9.39679 11.4335 9.07497 11.4335V11.4332Z" fill="#6379C9"/>
<path d="M9.07497 17.8423C8.21703 17.8423 7.51929 18.518 7.51929 19.3486C7.51929 20.1792 8.21703 20.8549 9.07497 20.8549C9.93291 20.8549 10.6309 20.1792 10.6309 19.3486C10.6309 18.518 9.93291 17.8423 9.07497 17.8423ZM9.07497 19.8828C8.75292 19.8828 8.49138 19.6434 8.49138 19.3486C8.49138 19.0541 8.75315 18.8144 9.07497 18.8144C9.39679 18.8144 9.6588 19.0541 9.6588 19.3486C9.6588 19.6431 9.39679 19.8828 9.07497 19.8828Z" fill="#6379C9"/>
<path d="M18.6748 18.8885H12.1948C11.9262 18.8885 11.7088 19.1062 11.7088 19.3746C11.7088 19.643 11.9262 19.8606 12.1948 19.8606H18.6748C18.9432 19.8606 19.1609 19.643 19.1609 19.3746C19.1609 19.1062 18.9432 18.8885 18.6748 18.8885Z" fill="#6379C9"/>
</g>
<defs>
<clipPath id="clip0_0_733">
<rect width="30" height="30" fill="white"/>
</clipPath>
</defs>
</svg>
