<svg width="30" height="30" viewBox="0 0 30 30" fill="none" xmlns="http://www.w3.org/2000/svg">
<path d="M25.5 7.3125H18.5V6.8125C18.4971 4.32837 16.4841 2.31543 14 2.3125H4.5C2.01587 2.31543 0.00292969 4.32837 0 6.8125V12.8125C0.00292969 15.2966 2.01587 17.3096 4.5 17.3125H5V21.3125C5 21.5147 5.12183 21.697 5.30859 21.7744C5.49536 21.8518 5.71045 21.8088 5.85352 21.666L10.207 17.3125H11.5V17.8125C11.5029 20.2966 13.5159 22.3096 16 22.3125H18.793L24.1465 27.666C24.2896 27.8088 24.5046 27.8518 24.6914 27.7744C24.8782 27.697 25 27.5147 25 27.3125V22.3125H25.5C27.9841 22.3096 29.9971 20.2966 30 17.8125V11.8125C29.9971 9.32837 27.9841 7.31543 25.5 7.3125ZM10 16.3125C9.86743 16.3125 9.74023 16.3652 9.64648 16.459L6 20.1055V16.8125C6 16.5364 5.77612 16.3125 5.5 16.3125H4.5C2.56787 16.3103 1.0022 14.7446 1 12.8125V6.8125C1.0022 4.88037 2.56787 3.3147 4.5 3.3125H14C15.9321 3.3147 17.4978 4.88037 17.5 6.8125V7.3125H16C13.5159 7.31543 11.5029 9.32837 11.5 11.8125V16.3125H10ZM29 17.8125C28.9978 19.7446 27.4321 21.3103 25.5 21.3125H24.5C24.2239 21.3125 24 21.5364 24 21.8125V26.1055L19.3535 21.459C19.2598 21.3652 19.1326 21.3125 19 21.3125H16C14.0679 21.3103 12.5022 19.7446 12.5 17.8125V11.8125C12.5022 9.88037 14.0679 8.3147 16 8.3125H25.5C27.4321 8.3147 28.9978 9.88037 29 11.8125V17.8125Z" fill="#6379C9"/>
<path d="M26.5 11.3125H15C14.7239 11.3125 14.5 11.5364 14.5 11.8125C14.5 12.0886 14.7239 12.3125 15 12.3125H26.5C26.7761 12.3125 27 12.0886 27 11.8125C27 11.5364 26.7761 11.3125 26.5 11.3125Z" fill="#6379C9"/>
<path d="M26.5 14.3125H15C14.7239 14.3125 14.5 14.5364 14.5 14.8125C14.5 15.0886 14.7239 15.3125 15 15.3125H26.5C26.7761 15.3125 27 15.0886 27 14.8125C27 14.5364 26.7761 14.3125 26.5 14.3125Z" fill="#6379C9"/>
<path d="M26.5 17.3125H15C14.7239 17.3125 14.5 17.5364 14.5 17.8125C14.5 18.0886 14.7239 18.3125 15 18.3125H26.5C26.7761 18.3125 27 18.0886 27 17.8125C27 17.5364 26.7761 17.3125 26.5 17.3125Z" fill="#6379C9"/>
<path d="M3 7.3125H13.5C13.7761 7.3125 14 7.08862 14 6.8125C14 6.53638 13.7761 6.3125 13.5 6.3125H3C2.72388 6.3125 2.5 6.53638 2.5 6.8125C2.5 7.08862 2.72388 7.3125 3 7.3125Z" fill="#6379C9"/>
<path d="M10.5 9.3125H3C2.72388 9.3125 2.5 9.53638 2.5 9.8125C2.5 10.0886 2.72388 10.3125 3 10.3125H10.5C10.7761 10.3125 11 10.0886 11 9.8125C11 9.53638 10.7761 9.3125 10.5 9.3125Z" fill="#6379C9"/>
<path d="M10 12.3125H3C2.72388 12.3125 2.5 12.5364 2.5 12.8125C2.5 13.0886 2.72388 13.3125 3 13.3125H10C10.2761 13.3125 10.5 13.0886 10.5 12.8125C10.5 12.5364 10.2761 12.3125 10 12.3125Z" fill="#6379C9"/>
</svg>
