<svg width="30" height="30" viewBox="0 0 30 30" fill="none" xmlns="http://www.w3.org/2000/svg">
<path d="M28.3365 1.24176H1.66348C0.746191 1.24176 0 1.98795 0 2.90518V21.3032C0 22.2204 0.746191 22.9666 1.66348 22.9666H12.0776L11.3904 25.8792H7.88889C7.33184 25.8792 6.87861 26.3324 6.87861 26.8895V27.7481C6.87861 28.3051 7.33178 28.7583 7.88889 28.7583H22.1111C22.6682 28.7583 23.1214 28.3051 23.1214 27.7481V26.8895C23.1214 26.3324 22.6682 25.8792 22.1111 25.8792H18.6096L17.9224 22.9666H28.3365C29.2537 22.9666 30 22.2204 30 21.3032V2.90518C30 1.98795 29.2538 1.24176 28.3365 1.24176ZM22.1111 26.7588C22.1831 26.7588 22.2418 26.8174 22.2418 26.8895V27.7481C22.2418 27.8201 22.1831 27.8788 22.1111 27.8788H7.88889C7.81687 27.8788 7.75822 27.8201 7.75822 27.7481V26.8895C7.75822 26.8174 7.81687 26.7588 7.88889 26.7588H22.1111ZM12.2941 25.8793L12.9813 22.9667H17.0188L17.706 25.8793H12.2941ZM28.3366 22.0871H1.66348C1.23123 22.0871 0.879609 21.7355 0.879609 21.3033V2.90518C0.879609 2.47293 1.23129 2.12131 1.66348 2.12131H28.3365C28.7688 2.12131 29.1204 2.47299 29.1204 2.90518V21.3033H29.1204C29.1204 21.7355 28.7688 22.0871 28.3366 22.0871Z" fill="#6379C9"/>
<path d="M27.6252 12.8372C27.3823 12.8372 27.1854 13.0341 27.1854 13.277V18.6194H2.81467V13.277C2.81467 13.0342 2.61779 12.8372 2.37486 12.8372C2.13193 12.8372 1.93506 13.0341 1.93506 13.277V18.6473C1.93506 19.1169 2.31715 19.499 2.78678 19.499H27.2132C27.6829 19.499 28.0649 19.1169 28.0649 18.6473V13.277C28.065 13.0342 27.8681 12.8372 27.6252 12.8372Z" fill="#6379C9"/>
<path d="M27.2133 3.17676H2.7869C2.31721 3.17676 1.93518 3.55885 1.93518 4.02854V10.9314C1.93518 11.1743 2.13206 11.3712 2.37499 11.3712C2.61791 11.3712 2.81479 11.1743 2.81479 10.9314V4.05631H27.1855V10.9314C27.1855 11.1743 27.3824 11.3712 27.6253 11.3712C27.8682 11.3712 28.0651 11.1743 28.0651 10.9314V4.02854C28.0651 3.55885 27.683 3.17676 27.2133 3.17676Z" fill="#6379C9"/>
</svg>
