<svg width="30" height="30" viewBox="0 0 30 30" fill="none" xmlns="http://www.w3.org/2000/svg">
<g clip-path="url(#clip0_0_658)">
<path d="M11.75 28.9201L25.535 15.1301C26.511 14.1538 26.511 12.5713 25.535 11.5951L18.465 4.52506C17.4888 3.5491 15.9063 3.5491 14.93 4.52506L1.14003 18.3151C0.170034 19.2851 -0.164966 20.7651 0.205034 22.4701C1.39503 27.9401 8.60504 32.0651 11.75 28.9201ZM15.635 5.23006C15.9165 4.94763 16.2988 4.78887 16.6975 4.78887C17.0963 4.78887 17.4786 4.94763 17.76 5.23006L24.83 12.3001C25.1125 12.5815 25.2712 12.9638 25.2712 13.3626C25.2712 13.7613 25.1125 14.1436 24.83 14.4251L11.04 28.2101C8.54004 30.7101 2.22003 27.0401 1.18503 22.2601C0.890034 20.8951 1.12503 19.7601 1.85003 19.0201L15.635 5.23006Z" fill="#6379C9"/>
<path d="M16.7 9.20511C17.3786 9.20344 17.9715 8.74644 18.1459 8.09067C18.3203 7.4349 18.0328 6.74371 17.4447 6.40515C16.8567 6.06659 16.1145 6.16499 15.635 6.64511C15.2059 7.07473 15.0782 7.72065 15.3114 8.28127C15.5446 8.84188 16.0928 9.2066 16.7 9.20511ZM16.345 7.35511C16.54 7.16125 16.855 7.16125 17.05 7.35511C17.1447 7.44899 17.1979 7.57679 17.1979 7.71011C17.1979 7.84343 17.1447 7.97122 17.05 8.06511C16.9278 8.20779 16.736 8.26995 16.5533 8.22601C16.3707 8.18208 16.228 8.03947 16.1841 7.85682C16.1402 7.67417 16.2023 7.4823 16.345 7.36011V7.35511Z" fill="#6379C9"/>
<path d="M22.355 14.865C22.9635 14.8665 23.5126 14.5003 23.745 13.9379C23.9774 13.3755 23.8471 12.7285 23.415 12.3C22.8208 11.7362 21.8892 11.7362 21.295 12.3C20.863 12.7285 20.7326 13.3755 20.965 13.9379C21.1974 14.5003 21.7465 14.8665 22.355 14.865ZM22 13C22.0939 12.9053 22.2217 12.8521 22.355 12.8521C22.4884 12.8521 22.6162 12.9053 22.71 13C22.9039 13.195 22.9039 13.51 22.71 13.705C22.6162 13.7997 22.4884 13.8529 22.355 13.8529C22.2217 13.8529 22.0939 13.7997 22 13.705C21.8062 13.51 21.8062 13.195 22 13Z" fill="#6379C9"/>
<path d="M16.345 15.7151C17.2499 15.7144 18.0415 15.1062 18.2754 14.2321C18.5093 13.3579 18.1272 12.4357 17.3436 11.9831C16.56 11.5306 15.5702 11.6606 14.93 12.3001C14.3573 12.8721 14.1859 13.7329 14.4957 14.4807C14.8056 15.2284 15.5356 15.7157 16.345 15.7151ZM15.635 13.0001C16.0256 12.6099 16.6586 12.6101 17.0489 13.0006C17.4393 13.3911 17.4393 14.0241 17.0489 14.4145C16.6586 14.805 16.0256 14.8053 15.635 14.4151C15.4472 14.2275 15.3417 13.973 15.3417 13.7076C15.3417 13.4422 15.4472 13.1876 15.635 13.0001Z" fill="#6379C9"/>
<path d="M16.345 17.7151C18.1544 17.7091 19.7345 16.4893 20.1982 14.7404C20.662 12.9914 19.8939 11.1489 18.3253 10.2472C16.7566 9.34551 14.7779 9.60913 13.5 10.8901C12.3563 12.0365 12.0167 13.7595 12.6398 15.2542C13.2628 16.7489 14.7257 17.7204 16.345 17.7151ZM14.225 11.5951C15.1849 10.634 16.6709 10.4378 17.8473 11.1168C19.0238 11.7959 19.5972 13.1807 19.2451 14.4927C18.8931 15.8046 17.7034 16.7163 16.345 16.7151C15.1324 16.714 14.0398 15.9831 13.5759 14.8628C13.112 13.7425 13.3681 12.453 14.225 11.5951Z" fill="#6379C9"/>
<path d="M9.62506 13.865H10.5401V14.775C10.5401 15.0512 10.7639 15.275 11.0401 15.275C11.3162 15.275 11.5401 15.0512 11.5401 14.775V13.365C11.5401 13.0889 11.3162 12.8651 11.0401 12.8651H9.62506C9.34892 12.8651 9.12506 13.0889 9.12506 13.365C9.12506 13.6412 9.34892 13.865 9.62506 13.865Z" fill="#6379C9"/>
<path d="M8.56503 16.34H10C10.2762 16.34 10.5 16.1161 10.5 15.84C10.5 15.5638 10.2762 15.34 10 15.34H9.06503V14.425C9.06503 14.1488 8.84118 13.925 8.56503 13.925C8.28889 13.925 8.06503 14.1488 8.06503 14.425V15.84C8.06503 16.1161 8.28889 16.34 8.56503 16.34Z" fill="#6379C9"/>
<path d="M16.7 18.5001H15.285C15.0089 18.5001 14.785 18.724 14.785 19.0001C14.785 19.2763 15.0089 19.5001 15.285 19.5001H16.2V20.4151C16.2 20.6913 16.4239 20.9151 16.7 20.9151C16.9762 20.9151 17.2 20.6913 17.2 20.4151V19.0001C17.2 18.724 16.9762 18.5001 16.7 18.5001Z" fill="#6379C9"/>
<path d="M15.635 21H14.725V20.08C14.725 19.8039 14.5011 19.58 14.225 19.58C13.9488 19.58 13.725 19.8039 13.725 20.08V21.5C13.725 21.7762 13.9488 22 14.225 22H15.635C15.9111 22 16.135 21.7762 16.135 21.5C16.135 21.2239 15.9111 21 15.635 21Z" fill="#6379C9"/>
<path d="M7.86 18.6651C7.98219 18.8078 8.17406 18.8699 8.35671 18.826C8.53936 18.7821 8.68197 18.6395 8.7259 18.4568C8.76984 18.2742 8.70768 18.0823 8.565 17.9601L7.15 16.5451C6.95162 16.3752 6.6559 16.3866 6.47122 16.5713C6.28653 16.756 6.27511 17.0517 6.445 17.2501L7.86 18.6651Z" fill="#6379C9"/>
<path d="M10.6901 21.2901C10.8923 21.2893 11.0741 21.1667 11.1507 20.9795C11.2273 20.7924 11.1836 20.5775 11.0401 20.4351L9.62507 19.0001C9.42669 18.8302 9.13097 18.8416 8.94628 19.0263C8.7616 19.211 8.75018 19.5067 8.92007 19.7051L10.3351 21.1201C10.4252 21.2229 10.5535 21.2844 10.6901 21.2901Z" fill="#6379C9"/>
<path d="M11.3951 22.2001L12.8101 23.6151C12.9045 23.7087 13.0322 23.7609 13.1651 23.7601C13.3651 23.7573 13.5442 23.6355 13.6204 23.4505C13.6966 23.2655 13.6552 23.053 13.5151 22.9101L12.1001 21.5001C11.9779 21.3574 11.786 21.2953 11.6034 21.3392C11.4207 21.3831 11.2781 21.5257 11.2342 21.7084C11.1903 21.891 11.2524 22.0829 11.3951 22.2051V22.2001Z" fill="#6379C9"/>
<path d="M6.44507 20.08C6.56727 20.2227 6.75913 20.2849 6.94178 20.2409C7.12443 20.197 7.26704 20.0544 7.31097 19.8717C7.35491 19.6891 7.29276 19.4972 7.15007 19.375L5.74007 17.96C5.64619 17.8654 5.51839 17.8121 5.38507 17.8121C5.25175 17.8121 5.12395 17.8654 5.03007 17.96C4.83621 18.155 4.83621 18.47 5.03007 18.665L6.44507 20.08Z" fill="#6379C9"/>
<path d="M7.49998 20.435C7.30612 20.63 7.30612 20.945 7.49998 21.14L8.91498 22.555C9.03717 22.6977 9.22904 22.7598 9.41169 22.7159C9.59434 22.672 9.73694 22.5294 9.78088 22.3467C9.82482 22.1641 9.76266 21.9722 9.61998 21.85L8.20998 20.435C8.1161 20.3404 7.9883 20.2871 7.85498 20.2871C7.72166 20.2871 7.59386 20.3404 7.49998 20.435Z" fill="#6379C9"/>
<path d="M10.69 22.91C10.5962 22.8153 10.4684 22.7621 10.3351 22.7621C10.2017 22.7621 10.0739 22.8153 9.98005 22.91C9.78619 23.105 9.78619 23.42 9.98005 23.615L11.395 25.03C11.4894 25.1236 11.6171 25.1757 11.75 25.175C11.9501 25.1722 12.1292 25.0504 12.2054 24.8654C12.2815 24.6804 12.2401 24.4678 12.1 24.325L10.69 22.91Z" fill="#6379C9"/>
<path d="M5.03009 21.5001C5.12398 21.5948 5.25178 21.648 5.38509 21.648C5.51841 21.648 5.64621 21.5948 5.74009 21.5001C5.93396 21.3051 5.93396 20.9902 5.74009 20.7951L4.32509 19.3751C4.23121 19.2805 4.10341 19.2272 3.97009 19.2272C3.83677 19.2272 3.70898 19.2805 3.61509 19.3751C3.42123 19.5702 3.42123 19.8851 3.61509 20.0801L5.03009 21.5001Z" fill="#6379C9"/>
<path d="M6.8001 21.8501C6.70622 21.7555 6.57842 21.7022 6.4451 21.7022C6.31178 21.7022 6.18398 21.7555 6.0901 21.8501C5.89624 22.0451 5.89624 22.3601 6.0901 22.5551L7.5001 23.9701C7.59446 24.0637 7.7222 24.1159 7.8551 24.1151C8.05823 24.1163 8.24189 23.9944 8.31979 23.8068C8.39768 23.6192 8.35433 23.4031 8.2101 23.2601L6.8001 21.8501Z" fill="#6379C9"/>
<path d="M9.27507 24.325C9.18119 24.2303 9.05339 24.1771 8.92007 24.1771C8.78676 24.1771 8.65896 24.2303 8.56507 24.325C8.37121 24.52 8.37121 24.8349 8.56507 25.03L10.0001 26.445C10.0944 26.5385 10.2222 26.5907 10.3551 26.59C10.5582 26.5911 10.7419 26.4693 10.8198 26.2817C10.8977 26.0941 10.8543 25.878 10.7101 25.735L9.27507 24.325Z" fill="#6379C9"/>
<path d="M21.57 1.07506C23.5958 0.785258 25.6397 1.46635 27.0867 2.91336C28.5337 4.36036 29.2148 6.40431 28.925 8.43006C28.9 8.60869 28.9722 8.7871 29.1144 8.89807C29.2566 9.00905 29.4472 9.03573 29.6144 8.96807C29.7816 8.90041 29.9 8.74869 29.925 8.57006C30.2651 6.22783 29.4797 3.86248 27.8062 2.1889C26.1326 0.515326 23.7672 -0.270083 21.425 0.0700588C21.2907 0.0884376 21.1696 0.160564 21.0895 0.269911C21.0094 0.379258 20.9771 0.516453 21 0.650059C21.0185 0.782333 21.0892 0.901695 21.1963 0.981533C21.3034 1.06137 21.4379 1.09505 21.57 1.07506Z" fill="#6379C9"/>
<path d="M27.3701 8.71005C27.6435 8.74866 27.8964 8.55841 27.9351 8.28505C28.1789 6.57219 27.6024 4.84448 26.3791 3.6211C25.1557 2.39772 23.428 1.8213 21.7151 2.06504C21.4417 2.10374 21.2515 2.35667 21.2901 2.63004C21.3288 2.9034 21.5817 3.09366 21.8551 3.05504C23.2569 2.85523 24.6709 3.32682 25.6721 4.32803C26.6733 5.32924 27.1449 6.74329 26.9451 8.14505C26.9065 8.41842 27.0968 8.67135 27.3701 8.71005Z" fill="#6379C9"/>
<path d="M25.39 8.42998C25.522 8.44845 25.656 8.41342 25.7621 8.33267C25.8682 8.25193 25.9376 8.13216 25.955 7.99998C26.1088 6.91112 25.7418 5.8133 24.9642 5.03572C24.1867 4.25814 23.0888 3.89122 22 4.04498C21.7266 4.08367 21.5364 4.33661 21.575 4.60998C21.6137 4.88333 21.8666 5.07359 22.14 5.03498C22.9195 4.92302 23.7063 5.18494 24.2631 5.74182C24.82 6.2987 25.0819 7.08543 24.97 7.86498C24.9312 8.13666 25.1187 8.38882 25.39 8.42998Z" fill="#6379C9"/>
</g>
<defs>
<clipPath id="clip0_0_658">
<rect width="30" height="30" fill="white"/>
</clipPath>
</defs>
</svg>
