<svg width="30" height="30" viewBox="0 0 30 30" fill="none" xmlns="http://www.w3.org/2000/svg">
<g clip-path="url(#clip0_0_684)">
<path d="M10 0C5.85787 0 2.5 3.35787 2.5 7.5V13C2.50219 14.9321 4.06794 16.4978 6 16.5H6.5V15.5H6C4.62 15.4984 3.50162 14.38 3.5 13V7.5C3.5 3.91013 6.41012 1 10 1C13.5899 1 16.5 3.91013 16.5 7.5V13C16.4984 14.38 15.38 15.4984 14 15.5H13.5V16.5H14C15.9321 16.4978 17.4978 14.9321 17.5 13V7.5C17.5 3.35787 14.1421 0 10 0Z" fill="#6379C9"/>
<path d="M4.12048 23.5645L4.48598 22.989L3.64148 22.453L3.27599 23.029C2.17055 24.771 2.25261 27.014 3.48248 28.6705V30H4.48248V28.5C4.48255 28.3864 4.44392 28.2762 4.37298 28.1875C3.30999 26.8586 3.20855 25.0013 4.12048 23.5645Z" fill="#6379C9"/>
<path d="M27.5 0H21C19.62 0.001625 18.5016 1.12 18.5 2.5V7.5C18.5016 8.88 19.62 9.99837 21 10H22V12C21.9999 12.2022 22.1217 12.3846 22.3085 12.462C22.3692 12.4873 22.4342 12.5002 22.5 12.5C22.6326 12.5 22.7597 12.4472 22.8535 12.3535L25.207 10H27.5C28.88 9.99837 29.9983 8.88 30 7.5V2.5C29.9983 1.12 28.88 0.001625 27.5 0ZM29 7.5C29 8.32844 28.3284 9 27.5 9H25C24.8673 9 24.7402 9.05275 24.6465 9.1465L23 10.793V9.5C23 9.22387 22.7761 9 22.5 9H21C20.1715 9 19.5 8.32844 19.5 7.5V2.5C19.5 1.67156 20.1715 1 21 1H27.5C28.3284 1 29 1.67156 29 2.5V7.5Z" fill="#6379C9"/>
<path d="M24.5 2.5H21V3.5H24.5V2.5Z" fill="#6379C9"/>
<path d="M27.5 2.5H25.5V3.5H27.5V2.5Z" fill="#6379C9"/>
<path d="M27.5 4.5H21V5.5H27.5V4.5Z" fill="#6379C9"/>
<path d="M24.5 6.5H21V7.5H24.5V6.5Z" fill="#6379C9"/>
<path d="M16.7239 23.029L16.3584 22.453L15.5139 22.989L15.8794 23.565C16.7914 25.0016 16.69 26.8588 15.6269 28.1875C15.556 28.2762 15.5174 28.3864 15.5174 28.5V30H16.5174V28.6705C17.7473 27.014 17.8294 24.771 16.7239 23.029Z" fill="#6379C9"/>
<path d="M29.5 16.9999H25C23.124 17.0021 21.5834 18.483 21.507 20.3574L20 23.0704V20.9999C19.9978 19.0679 18.4321 17.5021 16.5 17.4999H14.6725L14.659 17.4894L14.65 17.4999H13.5C12.9477 17.4999 12.5 17.0522 12.5 16.4999V15.3234C14.0449 14.4314 14.9976 12.7839 15 10.9999V6.99994C14.9993 6.1715 14.7931 5.35619 14.4 4.62694C14.2741 4.39494 13.9894 4.30075 13.75 4.41194L5.287 8.39394C5.11175 8.47644 4.99994 8.65275 5 8.84644V10.9999C5.00238 12.7839 5.95506 14.4314 7.5 15.3234V16.4999C7.5 17.0522 7.05231 17.4999 6.5 17.4999H3.5C1.56794 17.5021 0.0021875 19.0679 0 20.9999V29.9999H1V20.9999C1.00162 19.6199 2.12 18.5016 3.5 18.4999H5.091L9.5935 24.7909C9.686 24.9202 9.8345 24.9978 9.9935 24.9999H10C10.1574 24.9999 10.3056 24.9258 10.4 24.7999L15.15 18.4999H16.5C17.88 18.5016 18.9984 19.6199 19 20.9999V24.9999C19.0002 25.2761 19.2243 25.4997 19.5004 25.4995C19.6818 25.4993 19.8489 25.401 19.937 25.2424L22.294 20.9999H25.1605L20.2855 29.9999H21.423L26.3 20.9999H26.5C28.4321 20.9977 29.9978 19.432 30 17.4999C30 17.2238 29.7761 16.9999 29.5 16.9999ZM6 10.9999V9.16394L13.7205 5.53094C13.9052 5.99869 14 6.49707 14 6.99994V10.9999C14 13.2091 12.2091 14.9999 10 14.9999C7.79087 14.9999 6 13.2091 6 10.9999ZM10.0105 23.6559L8.4675 21.4999H11.6355L10.0105 23.6559ZM12.392 20.4999H7.75L6.3185 18.4999H6.5C7.60456 18.4999 8.5 17.6045 8.5 16.4999V15.7694C9.47637 16.0767 10.5236 16.0767 11.5 15.7694V16.4999C11.5 17.6045 12.3954 18.4999 13.5 18.4999H13.9L12.392 20.4999ZM26.5 19.9999H22.55C22.7891 18.8366 23.8124 18.0012 25 17.9999H28.95C28.7109 19.1632 27.6876 19.9986 26.5 19.9999Z" fill="#6379C9"/>
</g>
<defs>
<clipPath id="clip0_0_684">
<rect width="30" height="30" fill="white"/>
</clipPath>
</defs>
</svg>
