<svg width="23" height="19" viewBox="0 0 23 19" fill="none" xmlns="http://www.w3.org/2000/svg">
<path d="M12.1328 9.43359C12.1328 12.4258 11.6406 14.6406 10.6562 16.0781C9.67969 17.5156 8.17188 18.2344 6.13281 18.2344C4.15625 18.2344 2.66406 17.4922 1.65625 16.0078C0.65625 14.5234 0.15625 12.332 0.15625 9.43359C0.15625 6.41016 0.644531 4.18359 1.62109 2.75391C2.59766 1.31641 4.10156 0.597656 6.13281 0.597656C8.10938 0.597656 9.60156 1.34766 10.6094 2.84766C11.625 4.34766 12.1328 6.54297 12.1328 9.43359ZM3.75391 9.43359C3.75391 11.5352 3.93359 13.043 4.29297 13.957C4.66016 14.8633 5.27344 15.3164 6.13281 15.3164C6.97656 15.3164 7.58594 14.8555 7.96094 13.9336C8.33594 13.0117 8.52344 11.5117 8.52344 9.43359C8.52344 7.33203 8.33203 5.82422 7.94922 4.91016C7.57422 3.98828 6.96875 3.52734 6.13281 3.52734C5.28125 3.52734 4.67188 3.98828 4.30469 4.91016C3.9375 5.82422 3.75391 7.33203 3.75391 9.43359ZM22.9141 18H19.293V8.08594L19.3281 6.45703L19.3867 4.67578C18.7852 5.27734 18.3672 5.67188 18.1328 5.85938L16.1641 7.44141L14.418 5.26172L19.9375 0.867188H22.9141V18Z" fill="#6379C9" fill-opacity="0.4"/>
</svg>
