<svg width="40" height="42" viewBox="0 0 40 42" fill="none" xmlns="http://www.w3.org/2000/svg">
<path d="M26.3468 1.0128C22.4081 -0.287394 18.1678 -0.336893 14.2002 0.871004C10.2327 2.0789 6.72952 4.48583 4.16524 7.76581C1.6473 11.0758 0.199986 15.0851 0.0192609 19.2511C-0.161464 23.417 0.933129 27.5382 3.15484 31.0568C5.16148 34.1684 7.98242 36.6613 11.3065 38.2604C11.3591 38.3505 11.4433 38.3611 11.6064 38.4353V38.4035C15.6653 40.2931 20.2339 40.7651 24.5891 39.7446C25.4251 39.5423 26.2477 39.2874 27.0519 38.9813C27.1193 38.9548 27.1844 38.9228 27.2466 38.8858C30.5892 37.55 33.5179 35.3411 35.7313 32.4865C37.9447 29.6319 39.3629 26.2348 39.8398 22.6447C39.9697 21.6201 40.0207 20.5869 39.9925 19.5544C39.8497 15.4355 38.4685 11.4574 36.0319 8.1465C33.5952 4.83558 30.2178 2.34794 26.3468 1.0128ZM16.2269 33.8768C16.8683 33.8329 17.5023 33.7137 18.1162 33.5216C19.347 33.0567 20.6098 32.6829 21.8947 32.4032C22.663 32.276 24.5838 32.0215 24.6417 33.2195C25.3158 32.9397 26.0235 32.7508 26.7467 32.6576C26.6362 32.7159 26.5362 32.7848 26.4257 32.8431C23.2702 34.4469 19.6364 34.8152 16.2269 33.8768ZM27.3624 32.3237C27.2237 32.2964 27.0828 32.2822 26.9414 32.2813C26.5341 32.2922 26.1303 32.36 25.7416 32.4827C25.5289 32.5763 25.3065 32.6456 25.0785 32.6894C24.9364 32.8113 24.8469 32.7795 24.8101 32.6099C24.7592 32.5322 24.6991 32.461 24.6312 32.3979C23.5787 31.4014 21.3579 32.0798 20.1633 32.435C18.4635 32.9385 16.8321 33.7919 15.0113 33.4527C14.9166 33.4527 14.8271 33.4103 14.7376 33.3891C12.9817 32.7055 11.3827 31.6684 10.0382 30.3412C8.03875 28.3479 6.67172 25.8017 6.11036 23.0251C5.549 20.2485 5.81856 17.3666 6.88489 14.7444C7.95122 12.1223 9.76633 9.87803 12.1002 8.29596C14.4341 6.7139 17.1817 5.86526 19.9949 5.85758C20.678 5.85774 21.3602 5.90556 22.0368 6.0007C24.7631 6.4013 27.315 7.59164 29.3817 9.4268C31.4485 11.262 32.941 13.6628 33.6774 16.3369C34.4619 19.3315 34.2717 22.5006 33.135 25.3783C31.9983 28.256 29.9749 30.6904 27.3624 32.3237Z" fill="#0066B3"/>
<path d="M19.9949 34.7726C17.1166 34.7822 14.3003 33.93 11.9039 32.324C9.50742 30.7181 7.63896 28.4309 6.53581 25.753C5.43267 23.0752 5.14463 20.1275 5.70828 17.2844C6.27193 14.4413 7.66184 11.8311 9.70144 9.78536C11.7366 7.7245 14.3353 6.32125 17.1658 5.75475C19.9963 5.18824 22.9302 5.48418 25.5929 6.60479C28.2557 7.72539 30.5265 9.61982 32.1155 12.0462C33.7045 14.4727 34.5396 17.321 34.5142 20.2276C34.4675 23.6631 33.2334 26.9748 31.0242 29.5927C28.8151 32.2106 25.7691 33.9711 22.4104 34.5711C21.6106 34.707 20.8008 34.7744 19.9897 34.7726H19.9949ZM19.9897 35.1383C23.0541 35.1357 26.0432 34.181 28.5491 32.4045C31.0551 30.6279 32.9559 28.1159 33.9924 25.2112C35.0289 22.3065 35.1505 19.1504 34.3407 16.1735C33.5309 13.1966 31.8291 10.5437 29.4675 8.57681C27.0937 6.59675 24.1686 5.40697 21.0954 5.17144C18.0222 4.9359 14.9521 5.6662 12.3082 7.2617C9.66436 8.8572 7.57682 11.2394 6.33331 14.0799C5.0898 16.9204 4.75153 20.0795 5.36513 23.1218C6.04513 26.5212 7.8754 29.5775 10.5435 31.769C13.2116 33.9605 16.5522 35.1514 19.9949 35.1383" fill="white"/>
<path d="M34.1088 31.5708C33.9036 31.2369 33.6878 30.9135 33.4721 30.5849L33.0142 31.168L34.1088 31.5708ZM31.8723 31.3164C31.525 31.2051 31.9723 30.7863 32.1986 30.8393C32.4248 30.8923 32.4617 31.0514 32.6564 30.993C32.7511 30.9612 32.8722 30.7545 32.93 30.6856C33.1563 30.3888 33.2668 30.2934 33.0669 29.9859C32.9458 29.8057 32.8564 29.7527 32.9879 29.546C33.1195 29.3392 33.1774 29.3764 33.33 29.4877C33.651 29.7156 33.7931 30.2351 34.0089 30.5478C34.2246 30.8605 34.7298 31.3482 34.5983 31.7934C34.4193 32.3235 33.7668 32.0638 33.4089 31.9154C32.9037 31.6821 32.388 31.5019 31.8723 31.3164ZM34.293 28.9629C34.493 29.0742 34.8193 28.8622 34.9351 28.6926C35.0508 28.523 34.9877 28.3798 34.7772 28.2526C34.5667 28.1254 34.4141 27.9929 34.2509 28.2526C34.0878 28.5124 34.0089 28.7827 34.2878 28.9629H34.293ZM34.0562 29.4506C33.3984 29.0795 33.7457 28.3427 34.0247 27.8604C34.2404 27.4628 34.3825 27.4628 34.7825 27.6695C35.1824 27.8763 35.435 28.0724 35.7771 28.2473C36.1191 28.4222 36.5033 28.5442 36.4244 28.9258C36.3158 29.2337 36.171 29.5273 35.9928 29.8004C35.8665 30.0177 35.5613 30.3782 35.435 29.9541C35.335 29.6361 35.7823 29.212 35.9244 28.9629C35.8139 28.9046 35.4981 28.6396 35.3982 28.6767C35.2982 28.7138 35.1561 28.9841 35.0929 29.0689C34.8193 29.44 34.5667 29.7368 34.0825 29.4718L34.0562 29.4506ZM34.6719 26.9328C34.5667 26.8904 34.6719 26.5935 34.7088 26.5299C34.8403 26.355 34.9772 26.3921 35.1877 26.3974C35.556 26.3974 35.9613 26.3974 36.0876 25.9839C35.8192 25.8938 34.9877 25.8408 35.0351 25.4115C35.135 24.7489 36.5507 25.9892 36.2612 25.0881C36.1665 24.786 35.7823 24.7065 35.5824 24.4998C35.3824 24.293 35.3508 24.0015 35.5824 23.8955C35.9402 23.7418 36.6349 24.6588 36.6349 24.9556C36.7973 24.8203 36.9896 24.7261 37.1956 24.6809C37.4016 24.6357 37.6153 24.6409 37.8189 24.6959C37.8681 24.7184 37.9104 24.7539 37.9412 24.7986C37.972 24.8433 37.9903 24.8956 37.9941 24.9499C37.9979 25.0042 37.987 25.0585 37.9626 25.1071C37.9383 25.1557 37.9014 25.1968 37.8558 25.226C37.7031 25.332 37.4032 25.226 37.2243 25.2631C37.0453 25.3002 36.3559 25.4539 36.8138 25.7295C36.9717 25.8196 37.961 25.9203 37.4979 26.3603C37.219 26.6253 36.8348 26.0953 36.5349 26.1748C36.0507 26.302 36.7822 26.8479 36.9559 26.9752C37.1295 27.1024 37.2664 27.2031 37.1611 27.4469C37.0559 27.6908 36.9717 27.6695 36.7769 27.5847C36.4383 27.385 36.188 27.0628 36.077 26.6836C35.8732 26.8387 35.6358 26.9431 35.3843 26.9882C35.1328 27.0334 34.8743 27.018 34.6298 26.9434L34.6719 26.9328ZM36.4086 22.9202C36.2487 22.8491 36.1083 22.7402 35.9993 22.6027C35.8902 22.4651 35.8158 22.3031 35.7823 22.1304C35.7823 21.9131 35.9034 21.5473 36.177 21.5685C36.5928 21.5685 36.2349 21.9131 36.277 22.0986C36.3507 22.4272 36.8033 22.194 36.9927 22.0986C37.1822 22.0032 38.782 21.2664 38.4504 21.9873C38.2347 22.459 37.3979 22.5173 36.9506 22.6021C37.3365 22.7771 37.7125 22.9735 38.0768 23.1905C38.2768 23.323 38.4452 23.6517 38.1136 23.7789C37.9084 23.8531 37.5874 23.5457 37.4242 23.4449C37.098 23.2541 36.7612 23.0792 36.4296 22.8884L36.4086 22.9202ZM35.977 20.7999C35.8613 20.7999 35.8613 20.3865 35.8981 20.3282C36.0139 20.1744 36.4822 20.2487 36.6559 20.2434C36.9769 20.2434 37.9189 20.3971 38.0557 20.0525C38.2925 19.4642 37.4821 19.5914 37.1558 19.5225C36.8296 19.4536 35.5771 19.268 35.8297 18.6161C35.8436 18.556 35.8795 18.5035 35.9303 18.4691C35.9811 18.4347 36.0429 18.4209 36.1033 18.4305C36.3402 18.4729 36.2139 18.5737 36.3454 18.685C36.5803 18.8644 36.8618 18.9712 37.1558 18.9924C37.6137 19.0666 38.4241 18.9023 38.4925 19.5225C38.5399 19.9359 38.6504 20.625 38.182 20.7628C37.8467 20.8079 37.507 20.8079 37.1716 20.7628C36.798 20.7469 36.398 20.7681 35.9981 20.784L35.977 20.7999ZM36.1665 18.1072C35.7087 18.1973 35.5613 17.4764 35.5666 17.1531C35.5738 16.9272 35.6484 16.7087 35.7808 16.5262C35.9132 16.3437 36.0971 16.2056 36.3086 16.1301C36.559 16.0052 36.8387 15.9521 37.1171 15.9764C37.3955 16.0007 37.6619 16.1015 37.8873 16.2679C38.0544 16.4164 38.1787 16.6075 38.2472 16.821C38.3157 17.0346 38.3259 17.2628 38.2768 17.4817C38.2136 17.6195 37.9768 17.8793 37.8031 17.7468C37.6295 17.6142 37.8031 17.4075 37.8031 17.2167C37.8041 17.1149 37.7826 17.0141 37.7403 16.9216C37.698 16.8292 37.6358 16.7473 37.5583 16.6819C37.4808 16.6165 37.3899 16.5692 37.2921 16.5435C37.1943 16.5177 37.0921 16.5141 36.9927 16.5329C36.6085 16.5329 36.0876 16.7396 36.0455 17.1902C36.0191 17.4393 36.5454 18.0065 36.1665 18.0701V18.1072ZM36.0665 11.8577C35.956 11.651 35.8665 11.3542 35.6034 11.3277C35.3403 11.3012 35.2456 11.4284 35.214 11.6457C35.214 11.7782 35.2508 12.1281 35.3771 12.1758C35.5034 12.2235 35.956 11.9532 36.0876 11.879L36.0665 11.8577ZM34.4509 13.3472C34.2773 13.4267 34.172 12.9921 34.2088 12.8914C34.2983 12.6634 34.8561 12.5203 35.0508 12.409C35.0083 12.2958 34.9328 12.1983 34.8341 12.1292C34.7355 12.0602 34.6184 12.0228 34.4983 12.0221C34.2141 12.0221 33.7668 12.2712 33.551 11.9479C33.2195 11.4496 34.5614 11.4178 34.7982 11.6351C34.7714 11.5467 34.7642 11.4535 34.7771 11.362C34.79 11.2705 34.8227 11.1829 34.8729 11.1055C34.9231 11.0282 34.9896 10.9629 35.0676 10.9142C35.1456 10.8656 35.2333 10.8348 35.3245 10.8241C35.5297 10.8106 35.7341 10.8601 35.9108 10.9661C36.0874 11.0721 36.228 11.2296 36.3138 11.4178C36.6243 11.9055 36.6559 12.2023 36.1139 12.4779C35.5718 12.7536 35.0193 13.0663 34.472 13.3684L34.4509 13.3472ZM34.2036 9.07491C33.8299 9.19153 33.4668 9.32935 33.1037 9.46186L33.5458 10.0608L34.2036 9.07491ZM33.43 11.1952C33.3089 11.3701 33.1511 11.2376 33.0721 11.1051C32.9932 10.9725 33.0406 10.8347 33.1248 10.6704C33.3142 10.3153 33.3142 10.31 33.0353 9.97072C32.7564 9.63148 32.7616 9.63678 32.3722 9.7481C31.9828 9.85941 31.7197 9.52017 32.1196 9.27104C32.4923 9.11237 32.8779 8.98645 33.2721 8.89469C33.6247 8.75688 34.2036 8.36463 34.5562 8.67737C34.9088 8.9901 34.5562 9.51487 34.3457 9.82761C34.0141 10.2782 33.7194 10.7393 33.4195 11.2005L33.43 11.1952ZM32.3775 7.33631C32.5354 7.17199 32.4512 7.00237 32.3301 6.84865C32.1301 6.58362 32.0828 6.65252 31.8775 6.87515C31.6723 7.09778 31.6144 7.09778 31.8302 7.2992C32.0459 7.50063 32.2143 7.52713 32.3564 7.33631H32.3775ZM31.6986 8.24802C31.8775 8.06249 31.7881 7.85577 31.646 7.68085C31.3987 7.37341 31.3618 7.41582 31.1197 7.68085C30.8777 7.94588 30.8303 7.95648 31.1197 8.17381C31.2987 8.32222 31.525 8.47064 31.7302 8.24802H31.6986ZM32.1407 8.61376C32.0107 8.74433 31.839 8.82444 31.6561 8.83996C31.4732 8.85548 31.2906 8.8054 31.1408 8.69857C30.9145 8.57666 30.4672 8.29042 30.383 8.03069C30.2672 7.67025 30.6619 7.42112 30.9092 7.17729C31.1566 6.93346 31.3302 6.68433 31.546 6.4405C31.7618 6.19667 31.9091 6.04825 32.188 6.13306C32.4651 6.28857 32.6945 6.51777 32.8511 6.79564C33.1195 7.2621 32.8511 8.07309 32.2091 7.79746C32.296 7.91842 32.3383 8.06614 32.3287 8.21516C32.3191 8.36417 32.2582 8.50515 32.1565 8.61376H32.1407ZM30.0146 6.06415C30.2514 5.70901 30.3777 5.20545 29.9515 4.92982C29.5252 4.65418 28.9305 5.10474 28.7516 5.56589C28.399 6.49351 29.541 6.82214 30.0146 6.06415ZM30.4935 6.35039C30.4075 6.48961 30.295 6.61039 30.1627 6.70585C30.0303 6.8013 29.8805 6.86956 29.7219 6.90672C29.5634 6.94388 29.3991 6.94922 29.2385 6.92243C29.0778 6.89564 28.924 6.83725 28.7858 6.75059C28.6476 6.66392 28.5277 6.55069 28.4329 6.41734C28.3381 6.284 28.2704 6.13316 28.2335 5.97344C28.1966 5.81372 28.1913 5.64824 28.2179 5.48646C28.2445 5.32467 28.3025 5.16975 28.3885 5.03053C29.3463 3.59406 31.4408 4.87151 30.4935 6.35039ZM28.4148 3.82198C28.2675 4.16653 27.8886 3.79018 27.7096 3.71067C27.4149 3.59936 27.3939 3.74247 27.2781 4.00751C27.1044 4.40505 26.9887 4.8238 26.7782 5.20545C26.6624 5.41748 26.3098 5.85743 26.1309 5.35387C26.0361 5.09944 26.3729 4.71249 26.4835 4.50047C26.6677 4.13472 26.7782 3.50395 27.0781 3.22831C27.3781 2.95268 27.557 3.18591 27.8517 3.30782C28.0464 3.38733 28.5622 3.51455 28.4148 3.83789V3.82198ZM25.2573 3.70007C25.352 3.35553 25.3731 2.89437 25.0152 2.69295C24.5311 2.41732 24.1259 2.82016 23.9627 3.26012C23.7996 3.70007 23.8048 4.20363 24.289 4.38385C24.7731 4.56407 25.1573 4.12412 25.2573 3.70007ZM25.7835 3.82198C25.7517 3.99292 25.6847 4.15525 25.5869 4.29853C25.489 4.4418 25.3624 4.56285 25.2153 4.65387C25.0681 4.74489 24.9037 4.80387 24.7326 4.82701C24.5615 4.85015 24.3874 4.83694 24.2217 4.78823C24.0559 4.73952 23.9021 4.65639 23.7702 4.54418C23.6383 4.43198 23.5311 4.2932 23.4557 4.13677C23.3802 3.98034 23.3381 3.80973 23.3321 3.63592C23.3261 3.46211 23.3562 3.28895 23.4207 3.1276C23.4615 2.96625 23.5341 2.81482 23.6342 2.68234C23.7343 2.54986 23.8599 2.43904 24.0034 2.35648C24.147 2.27392 24.3056 2.22132 24.4697 2.20181C24.6339 2.1823 24.8003 2.19627 24.9589 2.2429C25.1176 2.28954 25.2654 2.36787 25.3933 2.47324C25.5213 2.5786 25.627 2.70885 25.7039 2.8562C25.7809 3.00356 25.8276 3.16501 25.8412 3.33093C25.8549 3.49686 25.8353 3.66386 25.7835 3.82198ZM22.4261 4.27254C22.4261 4.40505 21.9787 4.33084 21.9366 4.27254C21.8945 4.21423 21.9366 3.65766 21.9682 3.50925C21.9998 3.1647 22.2998 2.24239 21.9051 2.08868C21.3788 1.87665 21.4262 2.61874 21.3315 2.95798C21.2367 3.29722 20.8684 4.51107 20.279 4.15062C19.979 3.9651 20.2105 3.76898 20.3684 3.62056C20.6162 3.40978 20.7806 3.11631 20.8315 2.79366C20.8837 2.47405 20.9522 2.15736 21.0368 1.84485C21.1683 1.52151 21.3683 1.57981 21.6577 1.61162C22.1156 1.66993 22.6523 1.54271 22.6681 2.14168C22.6485 2.42874 22.608 2.71396 22.5471 2.99508C22.5313 3.42974 22.505 3.85379 22.4629 4.26724L22.4261 4.27254ZM18.5371 2.10988C18.4371 2.49152 18.3476 2.86787 18.2529 3.24952L18.9896 3.19651L18.5371 2.10988ZM19.8737 3.9386C20 4.27254 19.458 4.21953 19.3475 4.06051C19.237 3.90149 19.3106 3.68417 19.1423 3.58876C19.0212 3.55949 18.8949 3.55949 18.7739 3.58876C18.5954 3.58044 18.417 3.6056 18.2476 3.66296C18.0634 3.77428 18.1476 3.84319 18.0845 4.03931C17.9687 4.37325 17.5582 4.49516 17.5582 4.03931C17.6414 3.55678 17.7628 3.08174 17.9213 2.61874C17.995 2.2583 18.0371 1.65932 18.4897 1.59042C18.9423 1.52151 19.1212 2.06747 19.2475 2.41732C19.437 2.91557 19.6527 3.41914 19.8737 3.928V3.9386ZM16.9899 4.34145C17.0425 4.52697 16.5636 4.52697 16.4636 4.45806C16.2426 4.28844 16.3952 3.83789 16.2531 3.62586C16.111 3.41383 16.0689 3.48274 15.7953 3.54105C15.6216 3.57815 15.3322 3.54105 15.269 3.74247C15.2059 3.9439 15.4269 4.27254 15.4637 4.42096C15.5006 4.56937 15.4322 5.04643 15.0954 4.88211C14.927 4.7973 14.9007 4.46866 14.8691 4.30964C14.7954 3.9704 14.7217 3.62586 14.627 3.28662C14.5639 3.04809 14.3007 2.57633 14.5007 2.35371C14.7691 2.04627 14.9638 2.42792 15.027 2.63994C15.1164 2.98978 15.0533 3.22831 15.448 3.20711C15.5953 3.20711 15.9742 3.117 16.0689 2.97388C16.1637 2.83076 15.9479 2.50213 15.9163 2.3113C15.869 1.97206 16.1321 1.68583 16.4163 2.02507C16.5794 2.22119 16.5689 2.60814 16.6162 2.84137C16.7268 3.33433 16.8688 3.83258 16.9899 4.33084V4.34145ZM10.5222 4.57997C10.2696 4.74429 9.65393 5.25846 10.2696 5.47048C10.3628 5.48821 10.4587 5.48405 10.55 5.4583C10.6413 5.43256 10.7254 5.38594 10.7959 5.32206C10.9696 5.15774 10.9117 5.26906 10.8485 5.06233C10.7596 4.88878 10.6501 4.7268 10.5222 4.57997ZM12.101 6.10656C12.1852 6.24968 11.7695 6.414 11.6853 6.39279C11.5169 6.33979 11.4327 6.05885 11.359 5.92104C11.0064 5.26376 10.717 5.92104 10.8327 6.39279C10.8959 6.65252 11.0011 6.88045 10.7538 7.07657C10.5065 7.2727 10.4749 7.21439 10.3644 7.02357C10.2146 6.65316 10.2146 6.23844 10.3644 5.86803C10.2797 5.90163 10.1887 5.91589 10.0978 5.9098C10.007 5.90371 9.91866 5.87741 9.83914 5.8328C9.75963 5.78819 9.69092 5.72638 9.63796 5.65181C9.585 5.57725 9.54912 5.49178 9.53289 5.40157C9.50581 5.19217 9.54143 4.97939 9.63519 4.79051C9.72895 4.60163 9.87657 4.44526 10.0591 4.34145C10.5222 3.9969 10.8169 3.9439 11.1432 4.46866C11.4695 4.99342 11.7852 5.57119 12.101 6.10656ZM7.89099 6.66843C8.03307 7.03417 8.19621 7.38931 8.34882 7.72855L8.90139 7.23029L7.89099 6.66843ZM10.0486 7.3045C10.3749 7.47942 9.85917 7.78686 9.6434 7.71795C9.42764 7.64904 9.42238 7.46882 9.2224 7.49002C9.12242 7.49002 8.96454 7.68615 8.90139 7.74446C8.62774 7.99889 8.5067 8.07309 8.64879 8.41234C8.73299 8.60846 8.81193 8.67737 8.64879 8.85759C8.48565 9.03781 8.43302 8.9901 8.30146 8.85759C8.02781 8.57665 7.97519 8.04129 7.81731 7.68615C7.65943 7.33101 7.23843 6.77974 7.44367 6.38749C7.7068 5.85743 8.30672 6.27088 8.633 6.4776C9.09084 6.76914 9.56973 7.03417 10.0434 7.3045H10.0486ZM7.99624 9.38765C8.0857 9.45656 7.88046 9.71099 7.83836 9.73749C7.68048 9.82761 7.61733 9.73749 7.46998 9.65268C7.32263 9.56787 6.98583 9.12262 6.84374 9.12262C6.79112 9.12262 6.60167 9.38235 6.55957 9.42476C6.32276 9.68979 6.18067 9.8223 6.45432 10.0873C6.63324 10.2623 7.09108 10.416 7.05424 10.681C6.98583 11.1422 6.59114 10.8718 6.40696 10.7128C6.06489 10.416 5.70178 10.1191 5.35445 9.85411C5.14395 9.70569 4.56507 9.38765 4.97555 9.10142C5.38603 8.81518 5.67547 9.41946 5.90702 9.60498C6.14383 9.31344 6.66482 8.9742 6.29644 8.65616C6.09647 8.48124 5.47023 8.21621 5.92807 7.89287C6.22277 7.68615 6.57009 8.1367 6.76481 8.32222C7.13845 8.71977 7.57523 9.04841 7.99624 9.38765ZM5.49128 11.5768C5.10711 11.3701 4.43877 11.9744 4.96503 12.2924C5.07344 12.3652 5.19237 12.4206 5.31761 12.4567C5.51233 12.4832 5.39129 12.5309 5.53864 12.3666C5.59184 12.3147 5.63356 12.252 5.66107 12.1828C5.68858 12.1135 5.70125 12.0392 5.69827 11.9646C5.69529 11.89 5.67672 11.817 5.64377 11.7501C5.61082 11.6833 5.56424 11.6243 5.50707 11.5768H5.49128ZM5.73335 11.0786C6.40169 11.4655 6.12804 12.462 5.70178 12.9497C5.42813 13.2677 5.17553 12.9921 4.89661 12.8225C4.48614 12.568 4.05461 12.3507 3.62835 12.1281C3.41785 12.0168 3.10209 11.7199 3.49152 11.5238C3.88095 11.3277 4.06513 11.9638 4.3651 11.8737C4.52824 11.8259 4.73347 11.3754 4.85977 11.2376C4.95783 11.1039 5.10287 11.013 5.26524 10.9835C5.4276 10.9539 5.59505 10.9879 5.73335 11.0786ZM5.14395 13.8614C5.32288 13.925 5.0387 14.3278 4.94924 14.3544C4.85977 14.3809 4.51771 14.2059 4.3651 14.1423C3.92703 13.9224 3.46404 13.7568 2.98632 13.6494C2.87264 13.8026 2.81001 13.9882 2.80739 14.1794C2.88633 14.4498 3.70202 14.6777 3.93357 14.8261C4.1894 14.961 4.39586 15.1745 4.52297 15.4357C4.60191 15.6371 4.67559 16.0134 4.3651 16.0294C4.05461 16.0453 4.0704 15.6583 3.9441 15.4993C3.75796 15.304 3.5291 15.1551 3.27576 15.0646C2.92317 14.9003 2.29693 14.7307 2.2864 14.2695C2.2864 13.9515 2.6232 13.1511 2.94422 13.1034C3.26523 13.0557 3.63361 13.3366 3.88095 13.4214L5.14395 13.8614ZM2.10222 17.1637C2.43375 17.3598 2.78108 17.5347 3.12314 17.7203L3.24944 16.9888L2.10222 17.1637ZM4.20722 16.305C4.55981 16.2573 4.38089 16.782 4.20722 16.8669C4.03356 16.9517 3.83358 16.8138 3.68097 16.9517C3.62256 17.063 3.59017 17.1863 3.58625 17.3121C3.51783 17.6938 3.45995 17.8422 3.79148 18.0542C3.95462 18.139 4.03882 18.1284 4.06513 18.3404C4.09145 18.5525 4.01251 18.6267 3.84937 18.6373C3.45468 18.6373 2.93369 18.1072 2.5811 17.9535C2.22852 17.7998 1.62859 17.6248 1.57596 17.2008C1.50229 16.6707 2.10222 16.6071 2.48112 16.5594C3.04421 16.4852 3.6073 16.4216 4.17565 16.305H4.20722ZM2.18115 19.3582C2.12076 19.3579 2.06098 19.3703 2.00568 19.3948C1.95038 19.4192 1.90079 19.4551 1.86011 19.5001C1.81944 19.545 1.78859 19.5981 1.76956 19.6558C1.75052 19.7136 1.74373 19.7747 1.74963 19.8352C1.74963 20.0207 1.71805 19.9783 1.8233 20.0578C1.95871 20.1035 2.1022 20.1198 2.2443 20.1055C2.92843 20.1373 2.65478 19.3794 2.18115 19.3582ZM2.18115 18.8281C2.34759 18.8241 2.51101 18.8732 2.64806 18.9684C2.78511 19.0636 2.88877 19.2 2.94422 19.3582C3.04947 19.6179 2.94422 20.0472 3.21261 20.1426C3.481 20.2381 3.79675 19.9889 3.95462 20.2169C4.19144 20.5561 3.79675 20.6992 3.57046 20.6833C3.14419 20.6833 2.71793 20.6356 2.29167 20.6303C1.97592 20.6303 1.4865 20.7628 1.34968 20.3918C1.13917 19.8087 1.50229 18.8016 2.18115 18.8334V18.8281ZM3.75991 21.383C4.10723 21.3512 4.09671 22.2205 4.11776 22.4431C4.15986 23.0845 3.59151 22.9732 3.10736 23.0103C2.6232 23.0474 1.77068 23.3972 1.5286 22.9467C1.40756 22.7135 1.23916 21.8335 1.5286 21.6533C2.05485 21.2982 1.80751 22.5173 1.93382 22.6127C2.1348 22.6405 2.33948 22.6093 2.52322 22.5226C2.58637 22.4431 2.52322 22.2735 2.52322 22.1728C2.52322 22.0721 2.39165 21.7858 2.52322 21.6745C2.55521 21.6551 2.59114 21.6433 2.62832 21.6399C2.6655 21.6365 2.70296 21.6416 2.7379 21.6549C2.77283 21.6682 2.80433 21.6892 2.83004 21.7165C2.85574 21.7437 2.87499 21.7765 2.88633 21.8123C2.97053 21.982 2.80213 22.2364 2.94422 22.4007C3.08631 22.565 3.47047 22.4325 3.68097 22.4007C3.68097 22.1728 3.37048 21.4148 3.77043 21.3406L3.75991 21.383ZM2.33377 24.8708C2.46007 25.3108 2.39692 25.4751 2.86002 25.4009C3.32912 25.2762 3.82232 25.2762 4.29142 25.4009C4.20196 25.0828 4.1967 24.4998 3.8599 24.4256C3.41258 24.3301 2.76529 24.7489 2.33377 24.8708ZM4.7861 23.2806C4.97029 23.2223 4.9545 23.6835 4.85451 23.763C4.75452 23.8425 4.42299 23.71 4.32826 23.9432C4.23354 24.1764 4.60717 25.0033 4.68611 25.2684C4.83346 25.7666 4.98608 25.3479 5.3334 25.438C5.37816 25.4448 5.42027 25.4636 5.45534 25.4924C5.4904 25.5213 5.51713 25.5591 5.53273 25.6019C5.54833 25.6447 5.55222 25.6909 5.544 25.7357C5.53579 25.7806 5.51576 25.8224 5.48601 25.8567C5.23377 25.9985 4.95331 26.0818 4.66506 26.1006C4.40194 26.0688 4.24932 25.8514 3.94936 25.8514C3.47573 25.8514 2.80739 26.1642 2.3706 25.9786C2.09695 25.8673 2.10748 25.597 2.04433 25.3426C1.98118 25.0881 1.74436 24.7436 1.90224 24.5157C2.21273 24.0651 3.24418 24.2135 3.68097 23.9485C3.93357 23.7948 3.74412 23.9114 3.86516 23.6941C3.9862 23.4767 3.92305 23.5616 4.12828 23.4767C4.3436 23.3986 4.56324 23.3331 4.7861 23.2806ZM4.91766 26.461C5.25973 26.3179 5.49128 27.1395 5.586 27.3621C5.84913 27.9876 5.09659 28.1148 4.6598 28.3056C4.31247 28.4593 3.67571 29.0318 3.31786 28.6979C3.05385 28.3582 2.8735 27.9604 2.79161 27.537C3.00211 26.9646 3.34417 27.8657 3.40206 27.9876C3.45995 28.1095 3.49678 28.1837 3.65992 28.1784C3.81902 28.1512 3.968 28.0817 4.09145 27.977C4.22301 27.6854 3.65466 27.4469 3.8178 27.1713C4.09671 26.6836 4.41246 27.6536 4.47561 27.7915C4.7861 27.643 5.165 27.6324 5.05449 27.2614C4.99134 27.0494 4.52824 26.6412 4.89661 26.4716L4.91766 26.461ZM5.31235 30.8075C5.40447 30.9411 5.54548 31.0323 5.70438 31.0611C5.86327 31.09 6.02703 31.054 6.15962 30.9612C6.29221 30.8685 6.38278 30.7264 6.4114 30.5664C6.44002 30.4063 6.40435 30.2414 6.31223 30.1078L5.31235 30.8075ZM5.20184 29.5831C5.1375 29.6241 5.08181 29.6775 5.03799 29.7402C4.99416 29.8029 4.96304 29.8737 4.94642 29.9485C4.9298 30.0234 4.928 30.1008 4.94113 30.1763C4.95425 30.2519 4.98205 30.3241 5.02291 30.3888L6.02279 29.6732C5.92858 29.5558 5.79384 29.4786 5.64553 29.457C5.49722 29.4353 5.34628 29.4709 5.22289 29.5566L5.20184 29.5831ZM4.89661 29.1431C5.05046 29.0334 5.23434 28.9744 5.42286 28.9744C5.61139 28.9744 5.79527 29.0334 5.94912 29.1431C6.07015 29.212 6.23855 29.3658 6.38064 29.3764C6.42274 29.3764 6.52799 29.2438 6.64377 29.2809C7.03846 29.3923 6.76481 29.6838 6.71744 29.811C6.62798 30.0866 6.93321 30.4418 6.83848 30.7757C6.77192 30.9671 6.65226 31.1353 6.49369 31.2602C6.33512 31.3852 6.1443 31.4617 5.94385 31.4807C5.54917 31.5125 5.4597 31.2157 5.14395 31.0938C4.8282 30.9718 4.64927 31.274 4.51245 30.9241C4.42299 30.6962 4.56507 30.6697 4.64927 30.569C4.73347 30.4683 4.46509 29.9541 4.46509 29.8481C4.47623 29.7045 4.52119 29.5657 4.59623 29.4431C4.67128 29.3205 4.77425 29.2176 4.89661 29.1431Z" fill="white"/>
<path d="M19.9949 34.7726C17.1166 34.7822 14.3003 33.93 11.9039 32.324C9.50742 30.7181 7.63896 28.4309 6.53581 25.753C5.43267 23.0752 5.14463 20.1275 5.70828 17.2844C6.27193 14.4413 7.66184 11.8311 9.70144 9.78536C11.7366 7.7245 14.3353 6.32125 17.1658 5.75475C19.9963 5.18824 22.9302 5.48418 25.5929 6.60479C28.2557 7.72539 30.5265 9.61982 32.1155 12.0462C33.7045 14.4727 34.5396 17.321 34.5142 20.2276C34.4675 23.6631 33.2334 26.9748 31.0242 29.5927C28.8151 32.2106 25.7691 33.9711 22.4104 34.5711C21.6106 34.707 20.8008 34.7744 19.9897 34.7726H19.9949ZM19.9897 35.1383C23.0541 35.1357 26.0432 34.181 28.5491 32.4045C31.0551 30.6279 32.9559 28.1159 33.9924 25.2112C35.0289 22.3065 35.1505 19.1504 34.3407 16.1735C33.5309 13.1966 31.8291 10.5437 29.4675 8.57681C27.0937 6.59675 24.1686 5.40697 21.0954 5.17144C18.0222 4.9359 14.9521 5.6662 12.3082 7.2617C9.66436 8.8572 7.57682 11.2394 6.33331 14.0799C5.0898 16.9204 4.75153 20.0795 5.36513 23.1218C6.04513 26.5212 7.8754 29.5775 10.5435 31.769C13.2116 33.9605 16.5522 35.1514 19.9949 35.1383" fill="white"/>
<path d="M23.0051 32.3234C23.605 32.3234 24.6101 32.4454 24.6312 33.2511C25.3891 32.923 26.1971 32.7276 27.0204 32.6733C27.2466 32.6733 27.5045 32.8005 27.7097 32.8005C27.8308 32.8005 27.8624 32.8005 28.0044 32.6839L26.7099 40.9476C26.471 40.7988 26.2051 40.6996 25.9276 40.6559C25.6501 40.6122 25.3668 40.6249 25.0943 40.6932C24.1969 40.9599 23.318 41.2857 22.463 41.6685C21.9368 41.8699 20.9211 42.225 20.358 41.801C20.058 41.5678 20.1317 41.2709 20.1686 40.9264C19.3216 41.3042 18.4404 41.5989 17.5373 41.8063C16.5801 41.9521 15.6054 41.936 14.6534 41.7586C13.736 41.6148 12.8475 41.3231 12.0222 40.8946C11.7433 40.7462 11.317 40.5924 11.2749 40.2903C11.2884 40.0012 11.3361 39.7147 11.417 39.4369L11.6433 38.0534L12.1695 34.7617L12.5011 32.7475C13.9009 33.585 15.2113 34.078 16.8742 33.8076C18.9792 33.4684 20.8106 32.3181 22.963 32.3022" fill="white"/>
<path d="M20.842 38.1807L20.5999 39.9405C20.5473 40.3115 20.2105 41.3823 20.5999 41.6261C20.9894 41.8699 21.6524 41.6261 22.0103 41.5307C22.5365 41.3717 23.0102 41.149 23.4996 40.9476C24.3416 40.6084 25.6046 40.0094 26.4834 40.513C26.615 39.4528 26.8097 38.3927 26.9465 37.3326C26.9728 37.163 27.0097 37.1418 26.9465 37.0251C26.7623 36.7866 26.2045 36.8343 25.9677 36.8555C25.0481 37.0335 24.1488 37.3052 23.2838 37.6665C22.5786 37.8998 21.6156 38.3344 20.8578 38.1966" fill="#ED1C24"/>
<path d="M26.8676 37.953C26.9412 37.4972 27.0097 37.036 27.0833 36.5749C27.1307 36.2727 27.3728 35.5678 27.1675 35.3769C26.8044 35.0271 25.8782 35.2815 25.4783 35.3769C24.2416 35.7268 23.047 36.2939 21.7945 36.5166C21.5795 36.512 21.3645 36.528 21.1525 36.5643C21.1051 36.6067 21.1104 36.8346 21.0998 36.8929L20.8788 38.3082C20.8262 38.6686 20.7104 38.9496 21.1209 39.1404C21.6472 39.3948 22.3997 39.1404 22.9207 38.9337C23.9732 38.5202 25.7151 37.3435 26.8886 37.9371" fill="#0066B3"/>
<path d="M20.3948 41.3931C20.5158 40.5662 21.9104 40.8631 22.4629 40.8207C22.7892 40.8207 23.1892 40.7518 23.3313 40.4178C23.4356 40.0077 23.4817 39.5847 23.4681 39.1616H22.3103H21.3999C21.2684 39.1616 20.9263 39.098 20.8053 39.1616C20.6842 39.2252 20.6369 39.8347 20.6 40.0574L20.3948 41.3931Z" fill="#BE1E2D"/>
<path d="M11.5747 40.2748L12.2062 36.4743C13.0018 36.9785 13.9023 37.2905 14.8375 37.386C16.5688 37.5238 18.095 36.8029 19.7106 36.3258C20.5194 36.0543 21.3562 35.8765 22.205 35.7958C22.6576 35.764 23.3364 35.7216 23.7101 36.0555C24.0837 36.3894 23.7785 37.4231 23.7101 37.8789C23.5838 38.7323 23.4522 39.5857 23.3259 40.4391C23.5311 39.1087 19.1159 41.0487 18.6317 41.2289C17.461 41.6215 16.2166 41.7397 14.9936 41.5743C13.7706 41.409 12.6013 40.9645 11.5747 40.2748Z" fill="#ED1C24"/>
<path d="M18.6896 35.9124C17.4251 36.4589 16.031 36.6264 14.6743 36.3947C13.8594 36.1942 13.085 35.8535 12.3851 35.3876L12.2167 36.4159C12.0913 36.8417 12.0188 37.2815 12.001 37.7252C12.0378 38.128 13.0535 38.4567 13.3903 38.5945C14.2338 38.9 15.1253 39.0491 16.0215 39.0344C17.6845 39.0026 19.1317 38.2818 20.6947 37.81C21.2577 37.6404 23.4049 36.8665 23.7259 37.7676C23.7943 37.3329 23.8574 36.893 23.9206 36.453C24.0275 36.1102 24.079 35.7522 24.0732 35.3929C23.9679 35.0537 23.3154 35.0113 23.0207 34.9954C21.5231 35.004 20.0434 35.3233 18.6738 35.9336" fill="#0066B3"/>
<path d="M26.6364 22.528C26.5943 22.422 26.5469 22.316 26.4996 22.2153C26.6289 22.2831 26.7352 22.3883 26.8048 22.5174C26.7364 22.6022 26.6785 22.6022 26.6364 22.5174V22.528ZM25.2892 22.5174C25.2892 22.1464 25.1576 21.7912 25.1366 21.4255C25.297 21.8006 25.4186 22.1914 25.4997 22.5916C25.4325 22.5591 25.3619 22.5342 25.2892 22.5174ZM24.7313 25.9999C24.7313 26.0794 24.7577 25.9416 24.7313 25.9999V25.9999ZM24.7313 26.3763V26.3127C24.7364 26.3225 24.7391 26.3334 24.7391 26.3445C24.7391 26.3555 24.7364 26.3665 24.7313 26.3763ZM26.6153 28.2686C26.5469 28.417 26.3785 28.9418 26.2417 28.9577C26.131 28.9348 26.032 28.8727 25.9628 28.7828C25.7891 28.3693 26.4048 28.311 26.6153 28.2527V28.2686ZM26.9416 28.1573C26.9153 28.3428 26.789 28.3534 26.6627 28.2421C26.7585 28.2244 26.8521 28.1959 26.9416 28.1573ZM16.3113 29.9065C16.3296 29.8425 16.3662 29.7854 16.4166 29.7422C16.3797 29.8906 16.3639 29.8482 16.2745 29.9224L16.3113 29.9065ZM15.2588 26.3551C15.2588 26.3286 15.3062 26.2438 15.2588 26.3551V26.3551ZM13.2485 25.1677C13.2485 25.1677 13.3064 25.1677 13.2485 25.1677V25.1677ZM13.8222 23.7419C13.5735 23.66 13.3656 23.4851 13.2412 23.2534C13.1169 23.0216 13.0856 22.7506 13.1538 22.4962C13.39 21.9712 13.6792 21.4721 14.0169 21.0067C13.8748 21.4149 12.8275 22.9468 13.7011 23.2118C14.5747 23.4768 14.6168 21.8919 14.8431 21.452C14.7545 21.7906 14.6964 22.1365 14.6694 22.4856C14.6946 22.6212 14.7616 22.7453 14.8608 22.8405C14.9599 22.9356 15.0863 22.9969 15.222 23.0157C15.9535 23.0475 15.843 21.9555 15.8535 21.505C16.2324 21.7806 16.4745 20.9749 16.7007 21.6216C16.8004 21.866 16.8325 22.1331 16.7936 22.3944C16.7547 22.6557 16.6462 22.9016 16.4797 23.1058C16.6005 23.1115 16.721 23.0898 16.8323 23.0422C16.7294 23.2196 16.5646 23.3521 16.3701 23.4138C16.1755 23.4756 15.9651 23.4621 15.7798 23.3761C15.789 23.4489 15.8122 23.5191 15.8482 23.5828C15.588 23.6047 15.344 23.7191 15.1599 23.9055C14.9757 24.092 14.8634 24.3384 14.8431 24.6006C14.6589 24.3461 14.18 24.537 14.18 24.8391C14.0354 24.7587 13.8817 24.6964 13.7222 24.6536C13.8695 24.7225 14.0221 24.7861 14.1695 24.8603C13.9274 24.749 13.6748 24.6748 13.4275 24.5794L13.8222 23.7419ZM27.7573 21.8389V21.929C27.7409 21.9162 27.7276 21.8997 27.7185 21.8808C27.7094 21.862 27.7046 21.8413 27.7046 21.8204C27.7046 21.7994 27.7094 21.7788 27.7185 21.7599C27.7276 21.7411 27.7409 21.7246 27.7573 21.7117C27.8099 21.7541 27.8047 21.7965 27.7573 21.8389ZM26.3627 21.8389C26.4179 21.8463 26.4693 21.8714 26.5091 21.9106C26.549 21.9497 26.5751 22.0009 26.5838 22.0563C26.4259 22.0563 26.4206 21.9661 26.3627 21.8389ZM23.5052 23.3655C23.3541 23.2953 23.2329 23.1731 23.1631 23.021C23.2744 23.0686 23.3949 23.0903 23.5157 23.0846C23.3491 22.8847 23.24 22.6427 23.2001 22.3849C23.1603 22.127 23.1911 21.8631 23.2894 21.6216C23.542 20.9166 23.7473 21.77 24.1419 21.4838C24.1419 21.8177 24.3103 22.2842 24.1419 22.5969C23.9735 22.9097 23.6157 23.0475 23.4894 23.3655H23.5052ZM24.9155 29.016L24.2209 28.6927L24.7313 27.659C24.8682 27.7703 25.3208 27.8976 25.3734 28.0672C25.426 28.2368 25.0103 28.8464 24.9313 29.016H24.9155ZM15.2588 26.2173C15.2588 26.2703 15.2588 26.3074 15.2588 26.2173V26.2173ZM27.3626 21.399C27.4024 21.3922 27.4433 21.3976 27.4799 21.4147C27.5165 21.4317 27.5472 21.4595 27.5678 21.4944C27.5289 21.4941 27.4904 21.4855 27.455 21.469C27.4196 21.4526 27.3881 21.4287 27.3626 21.399ZM26.1207 21.399C26.2093 21.4614 26.2786 21.5477 26.3206 21.6481C26.1838 21.6481 26.168 21.4944 26.1207 21.399ZM24.2051 26.4929V26.6413V26.4929ZM24.2051 26.2862V26.3551V26.2862ZM22.2738 29.5037L22.6106 29.6627C22.4001 30.0549 21.958 29.5514 22.2738 29.5037ZM19.1162 28.8358L19.4109 28.6874C19.3425 29.0054 19.4109 29.5143 18.9899 29.4666C19.0112 29.2526 19.0535 29.0413 19.1162 28.8358ZM17.3638 29.6733C17.4172 29.6398 17.4736 29.6114 17.5322 29.5885C17.5322 29.7316 17.4796 29.8323 17.3638 29.6733ZM19.332 28.1149C19.6162 28.1785 19.332 28.3269 19.2268 28.3905C19.2583 28.3004 19.2952 28.205 19.332 28.1149ZM22.4369 25.12C22.1966 25.0849 21.9517 25.0997 21.7173 25.1635C21.4829 25.2273 21.2639 25.3388 21.0739 25.4911C21.316 25.014 22.0106 24.6324 22.4369 25.12ZM21.6212 27.1555C21.5686 27.1555 21.0949 26.8798 21.1265 26.8321C21.2441 26.8265 21.3614 26.8458 21.4711 26.8887C21.5808 26.9316 21.6803 26.9972 21.7633 27.0813L21.6212 27.1555ZM19.2004 27.1555C19.1215 27.1555 19.311 26.9753 19.3057 26.9859L19.2004 27.1555ZM19.6899 27.1555C19.5741 27.1555 19.6899 26.9912 19.6899 26.9806V27.1555ZM21.1581 27.7491C21.4212 27.5053 21.7843 27.9983 21.9264 28.1732C21.6379 28.1019 21.373 27.9557 21.1581 27.7491ZM21.0476 27.4311C21.0476 27.4788 21.0792 27.4311 21.0476 27.4311V27.4311ZM20.2161 27.023C20.2161 27.1237 20.2687 27.2244 20.3003 27.3251C20.2161 27.2827 20.2266 27.0972 20.2161 27.023ZM21.8475 25.9045C21.8475 26.4346 22.5895 26.583 22.9421 26.2703C22.9404 26.3435 22.9646 26.4149 23.0105 26.4717L21.8317 27.0813C21.8317 26.5512 20.816 26.2544 21.8317 25.9045H21.8475ZM21.8317 25.9045C22.0286 25.8543 22.2348 25.8543 22.4316 25.9045C22.3414 25.9603 22.2376 25.9898 22.1317 25.9898C22.0258 25.9898 21.922 25.9603 21.8317 25.9045ZM23.2052 26.265C23.2052 26.318 23.2631 26.3339 23.3105 26.3021C23.2575 26.3452 23.1968 26.3776 23.1315 26.3975L23.2052 26.265ZM23.0579 28.0725C22.7265 27.8124 22.3744 27.5802 22.0054 27.3781L23.4999 26.6201C23.5343 26.8788 23.5141 27.1418 23.4406 27.3921C23.3672 27.6424 23.2421 27.8742 23.0737 28.0725H23.0579ZM18.5532 26.9647L18.4479 26.9116C18.5712 26.8862 18.696 26.8685 18.8215 26.8586C18.7886 26.8968 18.747 26.9265 18.7003 26.9449C18.6536 26.9634 18.6031 26.9702 18.5532 26.9647ZM17.9743 26.689L17.448 26.4452C17.599 26.4529 17.7473 26.4024 17.8627 26.3039C17.978 26.2055 18.0518 26.0664 18.069 25.9151C17.7322 26.0688 17.2796 25.9151 17.3165 25.5123C17.3313 25.4132 17.3679 25.3188 17.4236 25.2358C17.4793 25.1528 17.5527 25.0834 17.6384 25.0326C17.7242 24.9818 17.82 24.951 17.9191 24.9422C18.0182 24.9335 18.1179 24.9472 18.2111 24.9822C18.401 25.0343 18.5716 25.1415 18.7017 25.2903C18.8317 25.4392 18.9155 25.6233 18.9426 25.8197C18.9426 26.1961 18.4163 26.8321 17.9953 26.6519L17.9743 26.689ZM14.5221 24.9716C14.4747 24.9716 14.5221 25.0617 14.5221 24.9716V24.9716ZM19.2583 30.4313C19.1394 30.3433 19.0554 30.2155 19.0215 30.0708C19.3162 30.0708 19.2215 30.1397 19.2583 30.4313ZM20.6476 29.1432C20.7145 29.0323 20.7743 28.9172 20.8266 28.7987C21.0476 29.1962 21.1739 30.1397 20.7108 30.4207C20.7477 29.9939 20.7265 29.5641 20.6476 29.1432ZM25.4207 24.9822C25.4207 25.279 25.3471 25.2313 25.0734 25.3692C25.0208 25.1942 25.3734 25.1412 25.4207 24.9822ZM26.7153 20.4926C26.8789 20.6433 27.027 20.8102 27.1574 20.9908C26.9507 20.8898 26.7919 20.7107 26.7153 20.4926ZM25.9628 20.9961L26.0259 21.1021C25.968 21.1021 25.947 21.0597 25.9628 20.9961ZM12.3486 21.7223H12.2013C12.5097 21.2807 12.8624 20.8722 13.2538 20.5032C12.9903 20.937 12.6873 21.3451 12.3486 21.7223ZM11.5014 25.0246C11.2751 25.0246 11.2172 25.4646 10.9751 25.3321C10.7331 25.1995 10.9751 24.9504 10.9278 24.802C10.8804 24.6536 10.7752 24.6218 10.7278 24.5317C10.6346 24.3508 10.5996 24.1451 10.6278 23.9433C10.6486 23.7787 10.7114 23.6223 10.8101 23.4895C10.9088 23.3566 11.04 23.2518 11.1909 23.1853C11.333 23.1164 11.4909 23.1058 11.6277 23.0475C11.7645 22.9892 11.8487 22.8567 11.9487 22.8355C12.3013 22.7718 12.1645 23.2224 12.196 23.3655C12.2276 23.5086 12.3802 23.6624 12.4065 23.8373C12.435 24.0278 12.4095 24.2226 12.3329 24.3991C12.2585 24.5625 12.1442 24.7042 12.0006 24.8108C11.857 24.9174 11.6888 24.9855 11.5119 25.0087L11.5014 25.0246ZM19.5372 11.121C19.9652 11.0821 20.3943 11.1804 20.7634 11.402C21.201 11.7018 21.6927 11.9125 22.2106 12.0222C21.8843 12.0222 21.2107 12.1706 20.9634 11.8843C20.9634 12.2713 21.6159 12.4674 21.9212 12.5363C21.6404 12.5728 21.355 12.5325 21.0949 12.4197C21.2203 12.6133 21.4051 12.7604 21.6212 12.8385C21.454 13.0155 21.2478 13.1504 21.0192 13.2323C20.7907 13.3143 20.5462 13.341 20.3056 13.3102C20.3757 13.3922 20.4646 13.4557 20.5645 13.4954C20.6644 13.5351 20.7724 13.5498 20.8792 13.5381C20.3934 14.2671 20.0901 15.1037 19.9951 15.9764C19.89 15.1003 19.5778 14.2623 19.0847 13.5328C19.1924 13.5463 19.3017 13.5325 19.4028 13.4927C19.5039 13.453 19.5935 13.3884 19.6635 13.3049C19.4237 13.3361 19.1799 13.3096 18.9521 13.2276C18.7243 13.1456 18.5191 13.0104 18.3532 12.8332C18.5692 12.7551 18.754 12.608 18.8794 12.4144C18.6194 12.5272 18.334 12.5675 18.0532 12.531C18.3584 12.4621 18.9847 12.266 19.011 11.879C18.7689 12.1653 18.0795 12.0169 17.7585 12.0169C18.4242 11.8955 19.0414 11.5846 19.5372 11.121ZM13.4853 24.6271C13.3748 24.5635 13.459 24.6271 13.4853 24.6271V24.6271ZM24.6998 26.1271C24.6577 26.1271 24.6577 26.0953 24.6998 26.0529V26.1271ZM24.6998 26.1749C24.7366 26.2226 24.7419 26.2544 24.6998 26.2756V26.1749ZM31.199 17.0631C30.8268 16.8744 30.406 16.806 29.9939 16.8669C30.3675 16.745 31.2569 16.268 31.2148 15.7644C31.1727 15.2608 30.4254 15.5471 30.1202 15.616C30.4728 15.3563 31.0358 14.8951 30.9885 14.3915C30.9411 13.888 30.036 14.3067 29.7465 14.4233C30.4728 14.0205 30.978 12.9445 30.4517 12.1971C29.7939 12.5787 29.3992 13.2572 28.794 13.7237C29.3887 13.0346 30.8569 10.962 29.4413 10.2729C28.9324 11.4393 28.2685 12.5306 27.4679 13.5169C27.4199 13.4504 27.3542 13.3989 27.2784 13.3685C27.0994 13.9062 26.7615 14.376 26.3101 14.7149C26.2787 14.6284 26.2362 14.5465 26.1838 14.471C25.7567 15.0171 25.2792 15.5211 24.7577 15.9764C24.3998 16.3422 24.0051 16.8245 24.3419 17.3387C24.463 17.5242 24.6998 17.6408 24.7524 17.8688C24.7698 18.0014 24.7476 18.1364 24.6886 18.2563C24.6295 18.3762 24.5363 18.4756 24.4209 18.5419C24.3252 18.6135 24.2165 18.6653 24.1009 18.6945C23.9854 18.7236 23.8652 18.7295 23.7474 18.7118C23.6296 18.694 23.5164 18.653 23.4143 18.5912C23.3122 18.5293 23.2233 18.4477 23.1526 18.3511C23.2745 18.3272 23.3878 18.2711 23.481 18.1885C23.5743 18.1059 23.644 17.9998 23.6831 17.8812C23.7222 17.7625 23.7293 17.6354 23.7035 17.5131C23.6778 17.3908 23.6203 17.2775 23.5368 17.185C23.2631 17.6726 22.6 17.4977 22.2895 17.1479C22.3816 17.1856 22.4818 17.1988 22.5804 17.1863C22.679 17.1737 22.7728 17.1358 22.8526 17.0761C22.9325 17.0165 22.9957 16.9371 23.0363 16.8457C23.0768 16.7543 23.0933 16.6539 23.0842 16.5542C22.6579 16.9252 22.1948 16.5118 22.0633 16.0718C22.019 15.825 22.0266 15.5715 22.0855 15.3277C22.1444 15.084 22.2534 14.8554 22.4053 14.6566C22.5264 14.471 22.7 14.2431 22.8737 14.206C22.8737 14.206 23.0526 14.259 23.1052 14.2643C23.2255 14.2493 23.3438 14.2208 23.4578 14.1795C23.9104 14.0894 24.3998 14.2696 24.384 14.8156C24.9103 14.5082 24.4945 14.0311 24.0683 13.9145C24.5945 13.9145 24.8997 14.5559 25.4418 14.4445C25.7102 14.3968 26.4259 13.9781 26.0838 13.6494C25.8891 14.4604 24.5051 13.6017 24.0104 13.6494C24.3998 13.4268 25.0629 13.3738 25.3576 13.8032C25.5103 13.6705 25.6092 13.4859 25.6354 13.2845C25.6616 13.0831 25.6133 12.8791 25.4997 12.7112C25.3418 12.4939 25.1523 12.4992 24.9208 12.4091C24.8384 12.3695 24.7592 12.3234 24.684 12.2713C24.5366 12.1971 24.5208 12.1229 24.4103 12.0275C24.675 12.046 24.9404 12.0047 25.1872 11.9066C25.434 11.8085 25.6558 11.656 25.8365 11.4603C26.1943 10.9302 25.4892 10.3631 25.7733 9.82239C26.0101 9.939 26.4522 10.0291 26.6206 10.2464C26.789 10.4638 26.6206 10.8613 26.5048 11.1104C26.426 11.2531 26.3847 11.4137 26.3847 11.5769C26.3847 11.7401 26.426 11.9007 26.5048 12.0434C26.6469 12.3402 26.8469 12.6158 26.5417 12.9021C26.6159 12.9086 26.6908 12.8999 26.7616 12.8765C26.8325 12.8531 26.8979 12.8155 26.9539 12.766C27.01 12.7165 27.0555 12.656 27.0878 12.5883C27.12 12.5206 27.1383 12.447 27.1416 12.372C27.1416 12.1017 26.8785 11.9267 26.889 11.6617C27.0837 11.9267 27.2679 11.8896 27.5626 11.8949C27.8573 11.9002 27.9467 11.8949 27.7889 12.2183C28.0257 12.0858 28.2414 11.6405 27.9731 11.4391C27.7047 11.2377 27.0942 11.6352 27.4784 11.0521C27.7205 10.6917 28.0046 10.3525 27.4784 10.0291C27.11 9.79059 26.81 9.80119 26.5048 9.44074C26.1996 9.0803 26.0154 8.95308 25.5944 9.18631C25.1734 9.41954 24.8366 9.58386 24.9155 10.0609C24.9945 10.538 25.4418 10.8825 25.2839 11.3278C25.126 11.773 24.6471 11.8578 24.2946 11.9267C24.2156 11.4762 24.8208 11.0998 24.5103 10.6546C24.4366 10.5486 23.7209 10.1245 23.7262 10.4161C23.5999 10.3578 23.7262 10.2676 23.7262 10.1775C23.7262 10.0874 23.6525 9.9602 23.7683 9.9602C23.7153 9.90676 23.6677 9.84817 23.6262 9.78528C23.687 9.82716 23.7434 9.87511 23.7946 9.9284V9.39834C23.7458 9.45269 23.689 9.49917 23.6262 9.53615C23.6678 9.47494 23.7154 9.41812 23.7683 9.36653H23.2421C23.2937 9.41927 23.3412 9.47598 23.3841 9.53615C23.3206 9.4979 23.2623 9.45159 23.2105 9.39834V9.9284C23.2623 9.87515 23.3206 9.82883 23.3841 9.79058C23.3396 9.8495 23.2922 9.90611 23.2421 9.9602C23.2842 9.9602 23.3789 10.3631 23.2421 10.4161C23.2052 10.1351 22.5632 10.5221 22.479 10.6281C22.158 11.0362 22.6211 11.4709 22.679 11.879C22.1893 11.7409 21.7363 11.4946 21.3528 11.1581C20.9108 10.7341 21.0949 10.3631 21.3528 9.886C21.4813 9.70882 21.5594 9.49977 21.5789 9.28126C21.5984 9.06275 21.5584 8.84303 21.4633 8.64565C21.316 8.42832 20.4108 7.91416 20.3635 8.30641C20.2003 8.30641 20.274 8.12618 20.1477 8.13679C20.2029 8.10445 20.2477 8.05673 20.2766 7.99937C20.3056 7.94201 20.3175 7.87744 20.3108 7.81345C20.3108 7.65443 20.1003 7.57492 20.3108 7.57492C20.2221 7.49822 20.1519 7.40214 20.1056 7.29398C20.2144 7.33553 20.3105 7.40496 20.3845 7.49541V6.88053C20.309 6.96697 20.2156 7.03571 20.1109 7.08196C20.1109 6.97065 20.2424 6.87523 20.3108 6.80103H19.6425C19.7109 6.88053 19.8214 6.97595 19.8425 7.08196C19.7354 7.03719 19.64 6.96828 19.5636 6.88053V7.54842C19.6425 7.47951 19.732 7.36819 19.8425 7.34699C19.8 7.4559 19.7313 7.55245 19.6425 7.62792C19.853 7.62792 19.6425 7.71273 19.6425 7.86645C19.6377 7.93083 19.6509 7.99527 19.6807 8.05244C19.7104 8.10961 19.7556 8.1572 19.8109 8.18979C19.6635 8.18979 19.7793 8.2799 19.7267 8.31171C19.707 8.33113 19.6806 8.34201 19.653 8.34201C19.6255 8.34201 19.599 8.33113 19.5793 8.31171C19.4688 8.31171 19.3636 8.2375 19.1952 8.2852C18.7426 8.41242 18.3321 8.66155 18.3427 9.18101C18.3532 9.70047 18.9531 10.2411 18.8689 10.7712C18.7847 11.3013 17.7427 11.773 17.2638 11.9267C17.3059 11.5822 17.6164 11.2165 17.5427 10.8666C17.5155 10.776 17.4668 10.6934 17.4008 10.626C17.3348 10.5585 17.2535 10.5083 17.1638 10.4797C17.0954 10.4532 16.5955 10.4055 16.6955 10.4797C16.585 10.4002 16.6955 10.3366 16.6955 10.2411C16.6955 10.1457 16.6165 10.0238 16.7323 10.0238C16.6794 9.97223 16.6318 9.9154 16.5902 9.85419C16.6537 9.89244 16.7121 9.93876 16.7639 9.99201V9.46195C16.7121 9.51519 16.6537 9.56151 16.5902 9.59976C16.6318 9.53855 16.6794 9.48172 16.7323 9.43014H16.2061C16.259 9.48172 16.3066 9.53855 16.3482 9.59976C16.2846 9.56151 16.2263 9.51519 16.1745 9.46195V9.99201C16.2324 9.939 16.285 9.8966 16.3482 9.84889C16.3066 9.91178 16.259 9.97037 16.2061 10.0238C16.3482 10.0238 16.2061 10.0874 16.2376 10.1987C16.2682 10.2858 16.286 10.3768 16.2903 10.4691C16.1692 10.4691 16.085 10.3684 15.8956 10.4267C15.7222 10.4799 15.566 10.5787 15.443 10.7129C15.122 11.1528 15.7167 11.5451 15.6588 11.9903C15.322 11.932 14.8431 11.7942 14.6905 11.4603C14.5379 11.1263 14.8904 10.6493 15.001 10.2729C15.1115 9.8966 14.8799 9.55206 14.5063 9.34533C14.1326 9.13861 13.8274 9.0803 13.5064 9.44604C13.3989 9.61347 13.2594 9.75762 13.0959 9.87009C12.9223 9.96551 12.7118 9.97611 12.5328 10.0715C11.975 10.379 12.2434 10.7341 12.496 11.1316C12.8538 11.7041 12.3013 11.349 12.0382 11.4921C11.775 11.6352 11.9434 12.16 12.1855 12.2978C12.0329 12.0116 12.1855 11.9903 12.4065 11.9744C12.6276 11.9585 12.8802 12.0222 13.0854 11.7412C13.0854 12.0063 12.8275 12.1812 12.8328 12.4515C12.8368 12.5263 12.8556 12.5995 12.8881 12.6669C12.9205 12.7342 12.9661 12.7944 13.022 12.8438C13.0779 12.8931 13.143 12.9308 13.2135 12.9544C13.2841 12.9781 13.3586 12.9873 13.4327 12.9816C13.0907 12.6529 13.3801 12.3455 13.5169 12.0169C13.5743 11.8614 13.5946 11.6946 13.5763 11.5298C13.5581 11.3651 13.5017 11.2069 13.4117 11.068C13.3222 10.8613 13.1906 10.5009 13.3643 10.2888C13.538 10.0768 13.9906 10.0079 14.2063 9.9019C14.4905 10.432 13.7958 10.9885 14.1432 11.5398C14.3238 11.7355 14.5457 11.888 14.7924 11.9861C15.0392 12.0842 15.3046 12.1255 15.5693 12.107C15.5693 12.3137 15.4851 12.1759 15.3956 12.2554C15.3062 12.3349 15.2693 12.4356 15.2693 12.4356C15.0536 12.5522 14.7747 12.4939 14.5642 12.6794C14.4875 12.7609 14.4281 12.8572 14.3896 12.9626C14.3511 13.0679 14.3343 13.18 14.3403 13.2921C14.3462 13.4041 14.3747 13.5138 14.424 13.6145C14.4734 13.7151 14.5425 13.8045 14.6273 13.8774C14.901 13.448 15.5851 13.501 15.9745 13.7237C15.4904 13.6919 14.1011 14.5506 13.9011 13.7237C13.5643 14.0523 14.2747 14.4763 14.5379 14.5188C15.0641 14.6036 15.3799 13.9887 15.9166 13.9887C15.4904 14.1053 15.0641 14.5824 15.6009 14.8898C15.6009 14.3597 16.0745 14.1636 16.5271 14.2537C16.7014 14.2823 16.877 14.3018 17.0533 14.312C17.1954 14.312 17.1638 14.2643 17.327 14.4339C17.4128 14.5258 17.4903 14.6251 17.5585 14.7308C17.6989 14.9212 17.8005 15.1378 17.8574 15.3679C17.9143 15.5981 17.9254 15.8373 17.8901 16.0718C17.7585 16.5171 17.2954 16.9252 16.8691 16.5542C16.86 16.6539 16.8765 16.7543 16.9171 16.8457C16.9576 16.9371 17.0209 17.0165 17.1007 17.0761C17.1806 17.1358 17.2743 17.1737 17.3729 17.1863C17.4715 17.1988 17.5717 17.1856 17.6638 17.1479C17.3533 17.4924 16.685 17.6779 16.4166 17.185C16.3331 17.2775 16.2755 17.3908 16.2498 17.5131C16.2241 17.6354 16.2311 17.7625 16.2702 17.8812C16.3093 17.9998 16.3791 18.1059 16.4723 18.1885C16.5655 18.2711 16.6789 18.3272 16.8007 18.3511C16.7303 18.4487 16.6415 18.5313 16.5394 18.5943C16.4372 18.6572 16.3238 18.6993 16.2055 18.718C16.0872 18.7367 15.9664 18.7317 15.85 18.7033C15.7336 18.6749 15.6239 18.6237 15.5272 18.5525C15.419 18.4928 15.329 18.4045 15.2668 18.2971C15.2047 18.1897 15.1728 18.0673 15.1746 17.943C15.1746 17.6673 15.4483 17.5507 15.5904 17.3387C15.9272 16.8086 15.5325 16.3422 15.1746 15.9764C14.6531 15.5211 14.1756 15.0171 13.7485 14.471C13.696 14.5465 13.6536 14.6284 13.6222 14.7149C13.1766 14.3736 12.8444 13.9041 12.6697 13.3685C12.5938 13.3989 12.5282 13.4504 12.4802 13.5169C11.6851 12.5297 11.0266 11.4384 10.5226 10.2729C9.10167 10.9567 10.5752 13.0346 11.1646 13.7237C10.5226 13.289 10.1594 12.5787 9.49636 12.1812C8.97011 12.9286 9.49636 14.0046 10.2015 14.4074C9.89105 14.3014 8.99642 13.8509 8.9438 14.3915C8.89117 14.9322 9.47005 15.3616 9.83316 15.616C9.53846 15.5471 8.67541 15.3404 8.75435 15.828C8.83328 16.3157 9.5332 16.7238 9.9542 16.8881C9.66476 16.8881 8.77013 16.798 8.80171 17.2433C8.83328 17.6885 9.67002 18.0649 10.0752 18.1232C9.74896 18.1603 8.78592 18.4041 9.15956 18.8812C9.29662 19.0053 9.45741 19.0999 9.63207 19.1591C9.80672 19.2184 9.99156 19.241 10.1752 19.2257C9.88579 19.3264 9.29112 19.7558 9.61214 20.0473C9.93315 20.3389 10.7278 20.1586 11.112 20.0155C10.812 20.1427 9.57004 20.9325 10.3068 21.2877C11.0435 21.6428 11.6487 20.8212 12.1329 20.4979C11.8171 20.8318 11.3488 21.0279 11.112 21.4361C10.9857 21.6481 10.8225 22.1146 11.2014 22.1782C11.1277 22.2683 10.7909 22.2312 10.6752 22.2577C10.5683 22.2805 10.4683 22.3284 10.3832 22.3975C10.2982 22.4666 10.2305 22.5549 10.1858 22.6552C10.0542 22.9097 10.1279 22.8302 9.88579 22.9521C9.64371 23.074 9.50689 23.2118 9.55425 23.4821C9.60161 23.7525 9.70686 23.6889 9.64897 23.9062C9.59109 24.1235 9.43847 24.256 9.52267 24.5476C9.58582 24.7543 9.77527 24.8762 9.84369 25.0776C9.9121 25.279 9.79106 25.5123 10.0963 25.5547C9.84369 25.9469 10.2752 26.2915 10.6489 26.2915C10.9909 26.2915 11.0067 26.1431 11.2909 26.0476C11.4172 26.0052 11.5751 26.0158 11.7066 25.9734C11.7953 25.9289 11.8889 25.8951 11.9855 25.8727C12.196 25.8409 12.5434 26.0476 12.7275 25.9628C12.9117 25.878 13.0591 25.3798 13.1485 25.1942C13.3443 25.3577 13.5694 25.4819 13.8116 25.56C13.9853 25.6342 14.3379 25.6819 14.4431 25.8409C14.5484 25.9999 14.4116 26.1643 14.5063 26.2968C14.601 26.4293 14.9536 26.2968 14.901 26.0847C14.9325 26.2226 14.801 26.3657 14.901 26.4929C14.9187 26.5202 14.9428 26.5427 14.9713 26.5583C14.9998 26.5738 15.0317 26.5819 15.0641 26.5819C15.0965 26.5819 15.1284 26.5738 15.1569 26.5583C15.1854 26.5427 15.2096 26.5202 15.2272 26.4929C15.2272 26.8162 15.6272 26.7208 15.6588 26.4929L17.7954 27.4947C17.4217 27.6855 17.1323 28.1096 16.7428 28.2209C16.4166 28.311 16.0008 27.9082 16.3955 27.6908C16.1429 27.6272 15.8693 27.8764 15.7851 28.0937C15.7324 28.2103 15.7851 28.3587 15.7377 28.4541C15.6903 28.5495 15.5588 28.6343 15.422 28.751C15.0167 29.0955 14.6484 29.8111 15.0431 30.2722C15.0699 30.1004 15.1302 29.9356 15.2206 29.7873C15.3109 29.6391 15.4294 29.5102 15.5693 29.4082C15.5548 29.7171 15.6606 30.0195 15.864 30.251C15.6746 30.3518 14.5747 30.7122 14.6536 30.9931C14.7326 31.2741 15.7482 30.6115 15.8956 30.5373C15.843 30.7387 16.3745 30.2987 16.4587 30.251C16.5333 30.4027 16.6502 30.5291 16.7951 30.6148C16.94 30.7005 17.1065 30.7417 17.2744 30.7334C17.066 30.9896 16.7762 31.1653 16.454 31.231C16.1318 31.2967 15.797 31.2482 15.5062 31.0938C15.6535 31.661 16.3534 31.8094 16.8534 31.714C17.109 31.662 17.3469 31.5444 17.5442 31.3726C17.7415 31.2008 17.8914 30.9806 17.9795 30.7334C18.1385 30.9482 18.3724 31.0944 18.634 31.1426C18.8957 31.1907 19.1657 31.1374 19.3899 30.9931C19.4794 31.1946 19.6951 31.6345 19.9161 31.661C20.1372 31.6875 20.4424 31.2158 20.5371 30.9931C20.6693 31.0751 20.8179 31.1265 20.9722 31.1438C21.1265 31.1611 21.2827 31.1438 21.4295 31.0931C21.5764 31.0424 21.7103 30.9597 21.8217 30.8508C21.9331 30.7418 22.0192 30.6094 22.0738 30.4631C22.379 30.5797 22.5632 30.7917 22.921 30.6963C23.0668 30.6543 23.1989 30.5744 23.3042 30.4646C23.4096 30.3548 23.4843 30.219 23.521 30.0708C23.7683 30.1397 23.8209 30.4525 24.0841 30.5055C24.0547 30.4482 24.0402 30.3844 24.042 30.32C24.3735 30.4737 25.7575 31.3801 26.0733 30.9083C26.4417 30.3306 25.0839 30.2829 25.547 29.9012C25.7944 29.6892 25.968 30.0708 26.2154 30.1026C26.4627 30.1344 26.468 30.0125 26.5732 29.7793C26.7364 29.4347 26.8732 29.0743 27.0416 28.7192C27.21 28.364 27.3047 28.2686 26.9679 28.1096C27.2213 27.9816 27.4331 27.7834 27.5785 27.5383C27.724 27.2933 27.7969 27.0115 27.7889 26.7261C27.7809 26.455 27.6806 26.1948 27.5047 25.9893C27.2363 25.6978 26.9784 25.8833 26.6469 25.7243C26.745 25.9525 26.8882 26.1581 27.0679 26.3286C26.8942 26.4028 26.668 26.2067 26.5417 26.1112C26.5417 26.424 26.9574 26.5459 27.0679 26.8162C27.2047 27.2191 26.8048 27.4894 26.4627 27.5371C25.847 27.6272 24.705 27.0707 24.705 26.3922C24.705 26.5671 24.9682 26.4823 25.0261 26.3922C25.0839 26.3021 24.9682 25.9628 25.0261 25.9363C24.9892 26.1006 25.1155 26.3604 25.3155 26.2915C25.5155 26.2226 25.4102 26.0317 25.4207 25.8939C25.4576 25.4222 25.947 25.3639 26.2943 25.1571L29.0203 23.8426C28.9262 23.73 28.858 23.5978 28.8203 23.4556C28.5204 23.6146 28.1888 23.7101 27.8836 23.8585C27.952 23.9857 26.9942 24.3885 26.8311 24.4893C26.5982 24.6475 26.3556 24.7909 26.1049 24.9186C25.7944 25.0405 25.8838 24.9875 25.7312 24.7649C25.5786 24.5423 25.3313 24.415 25.126 24.6218C25.1107 24.3723 25.0109 24.1358 24.8433 23.9515C24.6757 23.7672 24.4504 23.6465 24.2051 23.6093C24.3893 23.3019 24.8419 22.9627 25.1945 23.2224C25.547 23.4821 25.2576 24.0016 25.5734 24.1712C25.5734 24.0175 25.5365 23.7048 25.6944 23.6411C25.7375 23.8867 25.8211 24.1232 25.9417 24.3408C26.0259 23.8797 26.3943 23.7207 26.1364 23.2224C26.4048 23.2807 26.7101 22.9309 26.6627 22.6605C26.9704 22.8384 27.3184 22.9333 27.6731 22.9362C27.5942 22.8355 27.6415 22.9362 27.6731 22.8567C27.8731 23.1164 27.5836 22.8567 27.6731 23.1058C27.7047 23.2118 27.8047 23.2754 27.8257 23.3549C27.8468 23.4344 27.8257 23.5457 27.8257 23.5934L27.9257 23.6305C27.9053 23.6611 27.8945 23.6971 27.8945 23.7339C27.8945 23.7707 27.9053 23.8067 27.9257 23.8373C28.1046 23.7366 28.2888 23.6571 28.4519 23.5616C28.3617 23.5396 28.2788 23.4938 28.2118 23.4291C28.1448 23.3643 28.096 23.2829 28.0703 23.193C28.0447 23.1031 28.0431 23.0079 28.0657 22.9172C28.0884 22.8265 28.1345 22.7434 28.1993 22.6764C28.2941 22.5704 28.4362 22.5121 28.5309 22.4008C28.6256 22.2895 28.594 22.2365 28.673 22.1835C28.8835 22.0404 28.8414 22.2895 28.9466 21.9821C29.1887 21.2612 28.2204 20.9219 27.8257 20.5032C28.273 20.8 29.0466 21.6746 29.6886 21.2824C30.3307 20.8901 29.1624 20.1533 28.8466 20.0208C29.215 20.1533 30.0728 20.4131 30.3886 20.0208C30.7043 19.6286 30.0412 19.3211 29.7834 19.231C30.0833 19.231 30.9622 19.0932 30.9043 18.648C30.8569 18.2928 30.157 18.1603 29.8834 18.1179C30.4096 18.0384 31.12 17.6991 31.2042 17.0578" fill="#808D9C"/>
<path d="M29.5201 22.4062C29.2412 22.5493 29.2359 22.7825 29.0623 22.9786C28.8886 23.1748 28.8465 23.0422 28.8254 23.2808C28.8615 23.5031 28.9623 23.7097 29.1149 23.8744C29.1517 23.9115 29.1991 23.9911 29.2622 23.9964C29.4306 23.9964 29.3833 23.8797 29.4675 23.8638C29.6674 23.8267 29.8674 23.9645 30.0884 23.9062C30.1949 23.8754 30.2938 23.8227 30.379 23.7514C30.4642 23.6801 30.5337 23.5917 30.5832 23.4919C30.6327 23.3921 30.661 23.283 30.6665 23.1716C30.672 23.0602 30.6544 22.9488 30.6149 22.8446C30.5754 22.7404 30.5149 22.6455 30.4371 22.5661C30.3593 22.4867 30.266 22.4244 30.1631 22.3832C30.0602 22.342 29.9499 22.3227 29.8392 22.3267C29.7285 22.3306 29.6199 22.3577 29.5201 22.4062Z" fill="#808D9C"/>
<path d="M27.8569 23.8432C27.8331 23.8171 27.8175 23.7846 27.8119 23.7497C27.8062 23.7147 27.8109 23.6789 27.8253 23.6466C27.6885 23.6094 27.2991 23.7688 27.2991 23.9335C27.4898 23.9696 27.687 23.9377 27.8569 23.8432Z" fill="#808D9C"/>
<path d="M27.7311 23.5837C27.7123 23.5677 27.6971 23.5478 27.6868 23.5253C27.6764 23.5028 27.671 23.4783 27.671 23.4535C27.671 23.4287 27.6764 23.4041 27.6868 23.3817C27.6971 23.3592 27.7123 23.3392 27.7311 23.3233C27.6044 23.2994 27.4741 23.3052 27.35 23.3402C27.2259 23.3752 27.1114 23.4385 27.0154 23.5252C27.189 23.7006 27.5416 23.6421 27.7311 23.5837Z" fill="#808D9C"/>
<path d="M27.6625 23.2817C27.6372 23.2608 27.6167 23.2344 27.6027 23.2045C27.5887 23.1747 27.5815 23.142 27.5815 23.109C27.5815 23.0759 27.5887 23.0433 27.6027 23.0134C27.6167 22.9836 27.6372 22.9572 27.6625 22.9363C27.3439 22.8783 27.0159 22.9039 26.71 23.0107C26.9877 23.2246 27.3365 23.3217 27.6835 23.2817" fill="#808D9C"/>
<path d="M29.641 24.6749C29.3674 24.6749 29.2358 24.9293 28.9411 24.7756C28.8317 24.7009 28.7504 24.5912 28.7103 24.4643C28.6703 24.3374 28.6737 24.2006 28.7201 24.0759C28.5359 24.166 28.357 24.2721 28.1938 24.3569C28.1938 24.4364 28.2833 24.4735 28.3517 24.4947C28.2728 24.6272 28.3517 24.7703 28.5149 24.7385C28.5149 24.924 28.6201 25.1149 28.8148 25.0141C28.8148 25.2792 28.9674 25.2315 29.1148 25.3057C29.2621 25.3799 29.2937 25.5972 29.4779 25.364C29.4885 25.4221 29.5114 25.4773 29.545 25.5257C29.5786 25.5742 29.6221 25.6148 29.6726 25.6449C29.8147 25.6979 29.9042 25.5601 30.0147 25.5707C30.0147 25.5707 29.4884 27.0125 29.9305 26.9065C30.0357 26.4665 30.7725 24.5212 29.6621 24.6749" fill="#808D9C"/>
<path d="M28.2728 24.5215C28.0729 24.2877 27.8518 24.5215 27.7466 24.7819C27.849 24.7875 27.9512 24.7666 28.0433 24.721C28.1355 24.6754 28.2145 24.6067 28.2728 24.5215Z" fill="#808D9C"/>
<path d="M28.4518 24.8339C28.415 24.765 28.2624 24.7809 28.2519 24.6272C28.0835 24.7597 27.8414 24.9982 27.8835 25.2421C28.001 25.217 28.1121 25.1679 28.2099 25.0977C28.3077 25.0274 28.3901 24.9377 28.4518 24.8339Z" fill="#808D9C"/>
<path d="M28.5414 25.0406C28.5155 25.0182 28.4947 24.9906 28.4802 24.9595C28.4657 24.9285 28.4578 24.8947 28.4572 24.8604C28.273 25.1572 28.0362 25.4275 28.1046 25.8039C28.3713 25.621 28.5855 25.3705 28.7256 25.0777C28.6945 25.0893 28.6608 25.092 28.6283 25.0854C28.5957 25.0789 28.5657 25.0633 28.5414 25.0406Z" fill="#808D9C"/>
<path d="M29.0044 25.3638C28.9366 25.3514 28.8752 25.3154 28.831 25.2622C28.7867 25.2089 28.7624 25.1417 28.7623 25.0723C28.5324 25.3785 28.402 25.7487 28.3887 26.1324C28.6676 26.0211 28.857 25.6023 29.0044 25.3479" fill="#808D9C"/>
<path d="M29.0991 25.8677L29.3149 25.5072C29.0097 25.5072 29.1728 25.1574 28.9202 25.5655C28.7273 25.8856 28.622 26.2513 28.615 26.6257C28.8191 26.4074 28.983 26.1543 29.0991 25.8783" fill="#808D9C"/>
<path d="M29.5624 25.6343C29.517 25.5747 29.4847 25.506 29.4677 25.4329C29.1572 25.6555 28.6151 26.8428 28.8204 27.1821C29.194 26.8746 29.3782 26.0848 29.5624 25.6343Z" fill="#808D9C"/>
<path d="M29.6409 26.5246L29.9935 25.6182C29.8672 25.7083 29.683 25.6182 29.6146 25.6871C29.5462 25.756 29.4147 26.18 29.3673 26.3072C29.1484 26.704 29.0617 27.1611 29.12 27.6112C29.3883 27.4681 29.5357 26.8002 29.6409 26.5246Z" fill="#808D9C"/>
<path d="M29.6566 26.6414C29.5038 26.8919 29.4076 27.1733 29.3749 27.4655C29.3421 27.7578 29.3736 28.0537 29.4672 28.3323L29.8882 26.9541C29.7251 26.9541 29.6672 26.7898 29.6566 26.6414Z" fill="#808D9C"/>
<path d="M19.9526 17.5666H17.4897C17.2371 17.5666 17.2319 17.5083 17.1687 17.6832C17.1213 18.0066 17.1213 18.3352 17.1687 18.6585V21.7223C17.1082 22.3817 17.1082 23.0453 17.1687 23.7048C17.3055 24.3779 17.8423 24.415 18.4159 24.415C19.0843 24.415 19.7 24.4468 19.9263 25.226C20.3315 23.7578 21.826 24.9981 22.5102 24.1129C22.8628 23.657 22.7049 22.634 22.7049 22.0934V17.8528C22.7049 17.6355 22.7522 17.6355 22.6102 17.5719C22.413 17.5428 22.2127 17.5428 22.0155 17.5719H19.9105L19.9526 17.5666Z" fill="white"/>
<path d="M19.9526 17.5666H17.4897C17.2371 17.5666 17.2319 17.5083 17.1687 17.6832C17.1213 18.0066 17.1213 18.3352 17.1687 18.6585V21.7223C17.1082 22.3817 17.1082 23.0453 17.1687 23.7048C17.3055 24.3779 17.8423 24.415 18.4159 24.415C19.0843 24.415 19.7 24.4468 19.9263 25.226C20.3315 23.7578 21.826 24.9981 22.5102 24.1129C22.8628 23.657 22.7049 22.634 22.7049 22.0934V17.8528C22.7049 17.6355 22.7522 17.6355 22.6102 17.5719C22.413 17.5428 22.2127 17.5428 22.0155 17.5719H19.9105L19.9526 17.5666Z" stroke="white" stroke-width="0.03" stroke-miterlimit="10"/>
<path d="M18.8212 23.1482C18.4844 23.1482 18.5791 22.6711 18.6633 22.475C18.8212 22.1199 19.1896 21.9768 19.4422 21.717C19.5106 21.7647 19.4843 21.9874 19.5316 22.0616C19.579 22.1358 19.7579 22.2259 19.8369 22.3266C19.9158 22.4273 19.9368 22.6128 20.0368 22.7241C20.0368 22.5492 20.0368 22.8249 20.0684 22.8302L19.679 22.968C19.9947 22.2524 18.416 22.369 18.8212 23.1482ZM20.1684 22.5439C20.1316 22.4273 19.8263 20.9166 20.2263 21.6375C20.2028 21.7135 20.2028 21.7948 20.2263 21.8707C20.2462 21.8876 20.2713 21.8968 20.2973 21.8968C20.3233 21.8968 20.3485 21.8876 20.3684 21.8707C20.4263 21.9184 20.5368 21.929 20.6104 21.998C20.745 22.1164 20.8435 22.2708 20.8946 22.4432C20.8946 22.5227 20.8104 22.634 20.8578 22.687C20.8578 22.6287 20.9894 22.5598 20.9788 22.6552C20.9683 22.7506 20.821 22.6976 20.9104 22.7824C20.9362 22.761 20.967 22.7464 20.9999 22.74C21.0788 22.9468 20.8736 22.8143 20.8157 22.915C20.8382 22.9204 20.8616 22.9204 20.8841 22.915C20.8841 22.915 20.5157 22.915 20.4684 22.8355C20.5263 22.8355 20.6315 22.8355 20.6473 22.8355C20.6631 22.8355 20.6473 22.6764 20.5947 22.6923C20.542 22.7082 20.4052 22.8302 20.3157 22.8885C20.3207 22.833 20.3451 22.7811 20.3847 22.7422C20.4243 22.7034 20.4763 22.68 20.5315 22.6764C20.5999 22.4485 20.2684 22.6764 20.2684 22.6764C20.2684 22.6764 20.2684 22.5174 20.2 22.5015L20.1473 22.5333L20.1684 22.5439ZM18.9422 18.1338C18.9896 18.1338 18.9054 18.6108 18.8528 18.6639C18.6423 18.8653 18.2634 18.6957 18.1476 19.0508C18.1148 19.1622 18.1132 19.2805 18.1429 19.3927C18.1726 19.505 18.2325 19.6067 18.316 19.6869C18.4034 19.7137 18.4934 19.7315 18.5844 19.7399C18.637 19.7399 18.5844 19.8247 18.6949 19.8459C18.8114 19.8315 18.926 19.8048 19.037 19.7664C19.3159 19.7293 19.3632 19.7664 19.4159 20.042C19.4685 20.3177 19.4895 20.2805 19.3685 20.3707C19.1783 20.4359 18.9798 20.4734 18.7791 20.482C18.5107 20.3972 18.4686 20.0208 18.1055 20.3283C17.9986 20.4306 17.922 20.5609 17.8845 20.7046C17.8213 20.9007 17.8108 20.9855 17.9266 21.065C17.9346 21.208 17.9346 21.3514 17.9266 21.4944C17.9952 21.4373 18.0433 21.3591 18.0634 21.2718C18.0839 21.3624 18.0747 21.4572 18.0371 21.5421C18.1664 21.4429 18.2724 21.3162 18.3476 21.1711C18.3659 21.2186 18.3726 21.27 18.3671 21.3207C18.3616 21.3714 18.3441 21.4201 18.316 21.4626C18.7002 21.3513 18.3634 20.9325 18.4633 20.6675C18.6581 20.1798 18.6265 20.8901 18.637 21.0173C18.637 21.3831 18.9001 21.4997 18.7159 21.8654C18.6393 21.9857 18.5791 22.1159 18.537 22.2524C18.5002 22.3955 18.2949 22.7029 18.3055 22.8302H18.416C18.416 22.8567 18.3791 23.0051 18.3423 23.0051C18.1476 23.0051 18.3423 22.2153 17.9529 22.4432C18.2423 22.4856 18.1108 22.862 18.1739 23.0528C18.2371 23.2036 18.3551 23.3244 18.5038 23.3904C18.6525 23.4565 18.8207 23.4627 18.9738 23.4079C18.9658 23.4445 18.9484 23.4784 18.9235 23.5063C18.8986 23.5341 18.867 23.555 18.8317 23.5669C18.8317 23.604 19.1212 23.5669 19.1475 23.5669C19.1738 23.5669 19.2317 23.7048 19.2948 23.7366C19.5548 23.8199 19.8275 23.8558 20.1 23.8426C20.1992 23.8609 20.3015 23.8502 20.3948 23.8117C20.4881 23.7732 20.5684 23.7084 20.6262 23.6252C20.6947 23.5404 20.721 23.4238 20.8315 23.3761C20.942 23.3284 21.0999 23.4821 21.242 23.4874C21.242 23.4874 21.5735 23.3814 21.6156 23.3708C21.7577 23.3337 21.9208 23.3019 21.9629 23.1323C21.9261 23.1058 21.8998 23.1323 21.8735 23.1906C21.8735 23.1005 21.9577 23.1906 21.8735 23.1906C21.8314 23.2542 21.8735 23.2807 21.8735 23.1906C21.8892 23.1406 21.8892 23.0869 21.8735 23.0369C21.8781 23.0649 21.874 23.0937 21.8618 23.1194C21.8495 23.145 21.8297 23.1662 21.805 23.18C21.7472 23.2542 21.7314 23.2224 21.7629 23.0952C21.7629 23.2171 21.4104 23.2383 21.3946 23.0952C21.3788 22.9521 21.5945 22.8938 21.6103 22.9627C21.6103 22.8885 21.6103 22.8037 21.684 22.7718C21.6944 22.7943 21.6997 22.8187 21.6997 22.8434C21.6997 22.8681 21.6944 22.8926 21.684 22.915C21.684 22.7824 21.684 22.7665 21.7524 22.8779C21.8314 22.5916 21.3419 22.9415 21.2262 22.8779C21.1104 22.8143 21.1367 22.4644 21.1051 22.3478C21.042 22.1146 20.8262 21.8177 20.8736 21.5527C20.9683 21.7965 21.663 20.9749 21.7998 21.2612C21.8524 21.3778 21.6366 21.5898 21.5735 21.6428C21.5103 21.6958 21.5735 21.7223 21.5735 21.7223C21.5735 21.7223 21.4788 21.6269 21.4156 21.77C21.3051 22.0086 21.6051 21.9662 21.7472 21.8654C21.8908 21.7109 21.9812 21.5139 22.005 21.3036C22.1313 20.6516 21.684 20.906 21.263 20.9749C21.2631 20.716 21.2168 20.4592 21.1262 20.2169C21.2106 20.193 21.2905 20.1554 21.363 20.1056C21.363 20.1056 21.6103 20.2434 21.7419 20.1056C21.8735 19.9678 21.8156 19.5756 21.7051 19.4218C21.9313 19.4218 21.7051 19.2999 21.8471 19.1462C21.7051 19.0773 21.5209 19.1462 21.6366 18.9448C21.4525 18.8918 20.9525 18.7858 20.7946 18.9448C20.7946 18.9925 20.8473 19.0137 20.9104 19.0137C20.7631 18.9819 20.3842 19.1621 20.5526 19.1833C20.4421 19.3476 20.1579 19.1038 20.4894 19.2946C20.5736 19.2522 20.2947 19.4324 20.3368 19.443C20.2631 19.443 19.9632 19.0614 19.9947 19.019C20.4736 19.2522 20.3631 18.0861 19.8211 18.526C20.3842 18.1391 20.3473 19.1144 20.1105 18.9819C20.1622 18.9449 20.2025 18.8939 20.2267 18.8348C20.2509 18.7757 20.2581 18.7109 20.2473 18.648C20.1684 18.8918 20.2473 18.648 20.2 18.648C20.2181 18.6921 20.2181 18.7416 20.2 18.7858C20.1831 18.7541 20.1707 18.7202 20.1631 18.6851C20.0368 18.7116 19.9105 18.6851 19.8579 18.9342C19.7579 18.9342 19.8211 18.7487 19.7474 18.8706C19.7 18.8706 19.8053 18.7169 19.8211 18.7063C19.7706 18.7383 19.7305 18.7843 19.7053 18.8388C19.6106 18.8123 19.7316 18.6692 19.7737 18.6533C19.7263 18.7222 19.679 18.7381 19.6316 18.6957C19.5843 18.6533 19.8895 18.5101 19.9474 18.4889C19.8421 18.526 19.6685 18.526 19.6421 18.6374C19.6158 18.7487 19.8526 18.8176 19.7053 18.9819C19.5579 18.8388 19.3317 18.8282 19.179 18.7169C19.0264 18.6055 19.0422 18.2875 18.9422 18.1338Z" fill="#808D9C"/>
<path d="M27.215 26.0479L27.1571 26.0744C27.1721 26.1071 27.1916 26.1374 27.215 26.1645C27.215 26.138 27.3098 26.1115 27.2782 26.0691H27.215V26.0479ZM27.215 26.2281C27.0782 26.2281 27.094 26.0055 27.215 26.0214C27.3361 26.0373 27.315 26.1592 27.215 26.2069V26.2281ZM25.8889 23.4983C25.7626 23.4983 25.8889 23.5778 25.8889 23.6096C25.8889 23.6414 25.9836 23.5619 25.952 23.5142H25.8836L25.8889 23.4983ZM25.8836 23.6679C25.752 23.6679 25.7626 23.4559 25.8836 23.4665C26.0046 23.4771 25.9889 23.6096 25.8889 23.652L25.8836 23.6679ZM29.8673 26.949L29.4674 28.3166C29.3776 28.0354 29.3485 27.7381 29.3821 27.4446C29.4157 27.1512 29.5111 26.8683 29.6621 26.6151C29.6621 26.7529 29.7305 26.9172 29.8936 26.9331L29.8673 26.949ZM29.3674 27.1875C29.3179 27.349 29.2183 27.4902 29.0832 27.5904C29.028 27.1232 29.12 26.6503 29.3463 26.2387C29.3808 26.0803 29.4357 25.927 29.5095 25.7829C29.6463 25.6132 29.7989 25.7034 29.9673 25.592C29.7621 26.1221 29.5621 26.6522 29.3569 27.1875H29.3674ZM29.2464 26.3659C29.1591 26.668 28.9981 26.9432 28.778 27.1663C28.5201 26.7317 29.078 25.6769 29.4253 25.4118C29.5621 25.767 29.3727 26.0214 29.2358 26.3659H29.2464ZM28.7727 26.3977C28.7228 26.47 28.6625 26.5343 28.5938 26.5886C28.6056 26.2128 28.7164 25.8469 28.9148 25.5284C29.1569 25.168 29.0043 25.5284 29.3042 25.486C29.1253 25.7935 28.9727 26.1168 28.778 26.4136L28.7727 26.3977ZM28.6412 25.8836C28.5732 25.986 28.481 26.0698 28.3728 26.1274C28.3871 25.7439 28.5175 25.374 28.7464 25.0673C28.7505 25.1364 28.7769 25.2022 28.8216 25.2548C28.8662 25.3074 28.9267 25.3439 28.9938 25.3588C28.9043 25.5529 28.7854 25.7317 28.6412 25.8889V25.8836ZM28.7096 25.0567C28.5693 25.351 28.353 25.6018 28.0833 25.7829C28.0097 25.4171 28.2623 25.1256 28.4412 24.8394C28.443 24.872 28.4516 24.9039 28.4664 24.933C28.4813 24.9621 28.502 24.9878 28.5273 25.0083C28.5526 25.0287 28.5819 25.0436 28.6133 25.052C28.6447 25.0603 28.6775 25.0619 28.7096 25.0567ZM27.8571 25.221C27.815 24.9666 28.057 24.7386 28.236 24.6008C28.2383 24.6255 28.2459 24.6493 28.2581 24.6708C28.2704 24.6923 28.287 24.7109 28.3069 24.7254C28.3268 24.7399 28.3495 24.75 28.3736 24.7551C28.3976 24.7601 28.4225 24.7599 28.4465 24.7545C28.3867 24.87 28.3033 24.9713 28.2016 25.0517C28.1 25.1321 27.9825 25.1898 27.8571 25.221ZM28.2307 24.569C28.2307 24.675 27.7834 24.7916 27.7044 24.7598C27.7518 24.6538 27.8781 24.4365 28.0097 24.41C28.1412 24.3835 28.2781 24.41 28.2307 24.569ZM30.1041 24.8553C30.3831 25.1256 30.262 25.6132 30.1936 25.9154C30.1568 26.0691 30.0778 26.79 29.9147 26.8536C29.4884 27.0285 29.8779 25.5125 29.9989 25.5231C29.741 25.5231 29.52 25.6981 29.4726 25.3164C29.32 25.5072 28.799 25.1892 28.8043 24.9666C28.6727 25.0249 28.6254 24.9666 28.5412 24.8818C28.5267 24.8653 28.516 24.8459 28.5096 24.8248C28.5033 24.8038 28.5015 24.7816 28.5043 24.7598C28.5043 24.6803 28.5043 24.6538 28.3938 24.6856C28.3659 24.6356 28.3343 24.5877 28.2991 24.5425C28.3675 24.6167 28.1675 24.251 28.1728 24.304C28.3675 24.2245 28.5412 24.1132 28.7306 24.0231C28.6969 24.0999 28.6818 24.1837 28.6865 24.2675C28.6912 24.3514 28.7157 24.4329 28.7578 24.5054C28.8 24.5778 28.8586 24.6392 28.9289 24.6843C28.9992 24.7295 29.0791 24.7572 29.1622 24.7651C29.5253 24.7651 29.8305 24.4577 30.1252 24.8288L30.1041 24.8553ZM25.4363 20.3391L26.4151 20.6784C26.4941 20.7102 26.7572 20.7526 26.8046 20.8162C26.8519 20.8798 26.7467 21.0388 26.9256 21.1925C26.6318 21.1634 26.3474 21.0724 26.0908 20.9253C25.8343 20.7783 25.6113 20.5786 25.4363 20.3391ZM26.8098 21.5954C26.4239 21.5366 26.0684 21.3501 25.7994 21.0653C26.0731 20.9222 26.473 21.0971 26.7361 21.1766C27.1361 21.3038 27.5413 21.4204 27.9465 21.5371C27.8097 21.5848 27.7465 21.7438 27.6097 21.7756C27.3624 21.8445 27.0414 21.6484 26.8098 21.5901V21.5954ZM25.9625 21.5583C26.4151 21.4363 27.5097 21.6484 27.7729 22.0883C27.3571 22.2261 26.1573 22.0353 25.9625 21.5583ZM27.3413 22.4223C26.9771 22.3799 26.6276 22.2528 26.3204 22.0512C26.7627 22.0121 27.2083 22.0425 27.6413 22.1413C27.4097 22.3693 27.7623 22.4859 27.3045 22.4435L27.3413 22.4223ZM27.4992 22.8304C27.1637 22.8231 26.8385 22.7121 26.5677 22.5124C26.8519 22.3269 27.2624 22.4541 27.5729 22.4753C27.545 22.5384 27.5387 22.609 27.5549 22.6761C27.5711 22.7433 27.6088 22.8031 27.6623 22.8463L27.4992 22.8304ZM27.3624 23.2068C27.1078 23.2138 26.8605 23.1206 26.673 22.947C26.9838 22.8375 27.3176 22.8119 27.6413 22.8728C27.6168 22.8942 27.5971 22.9207 27.5836 22.9504C27.5701 22.9801 27.5632 23.0124 27.5632 23.0451C27.5632 23.0778 27.5701 23.1101 27.5836 23.1398C27.5971 23.1695 27.6168 23.196 27.6413 23.2174C27.5455 23.2013 27.4477 23.2013 27.3519 23.2174L27.3624 23.2068ZM26.9887 23.4718C27.0895 23.3897 27.206 23.3294 27.331 23.2948C27.456 23.2601 27.5867 23.2518 27.715 23.2704C27.696 23.2868 27.6809 23.3071 27.6705 23.33C27.66 23.3529 27.6547 23.3777 27.6547 23.4029C27.6547 23.428 27.66 23.4529 27.6705 23.4758C27.6809 23.4986 27.696 23.519 27.715 23.5354C27.4939 23.5937 27.1887 23.6573 26.9887 23.4718ZM27.2729 23.8693C27.315 23.6997 27.7465 23.4718 27.7992 23.6361C27.9149 23.917 27.3624 23.8905 27.2729 23.8693ZM26.8256 21.007V20.8374C27.3519 21.0547 28.2886 21.1395 28.5517 21.7597C28.7306 22.1784 28.4517 22.3216 28.1886 22.5601C28.1106 22.6232 28.0521 22.7075 28.0199 22.8029C27.9877 22.8984 27.9833 23.0011 28.007 23.0991C28.0308 23.197 28.0818 23.2861 28.154 23.3558C28.2263 23.4256 28.3167 23.4732 28.4149 23.493C28.2307 23.5884 28.036 23.6679 27.8571 23.7739C27.8097 23.7209 27.7992 23.5619 27.7886 23.546C27.7781 23.5301 27.6729 23.3605 27.6834 23.3711L27.7413 23.281L27.636 23.1962C27.636 23.053 27.5097 22.9894 27.6992 22.8781C27.5203 22.7456 27.5729 22.136 27.8097 22.1254C27.5203 21.8339 27.8097 21.7915 27.9623 21.5954C27.8939 21.7067 26.8572 21.2031 26.7993 21.0653L26.8256 21.007ZM26.5256 28.306C26.4046 28.5074 26.3099 29.1435 25.8889 28.8254C25.7468 28.7141 25.7836 28.8254 25.8047 28.6293C25.823 28.5376 25.8668 28.453 25.931 28.3855C26.0941 28.2318 26.3204 28.2901 26.5256 28.2583V28.306ZM26.8572 28.1523C26.8572 28.3378 26.6993 28.359 26.5677 28.2424C26.6671 28.2228 26.7642 28.1926 26.8572 28.1523ZM24.0312 28.6134L24.5575 27.5533C24.9416 27.8819 25.4363 27.9243 25.1574 28.5021C25.11 28.5975 24.9679 28.9314 24.8732 28.9739C24.668 29.0481 24.2049 28.6982 24.0312 28.6134ZM23.847 29.4456L22.7945 28.9155C23.0629 28.8625 23.205 28.7247 23.4892 28.7936C23.6422 28.8267 23.7861 28.8937 23.9102 28.9898L24.0523 29.0587L23.847 29.4456ZM19.3739 29.329C19.1707 29.4081 18.9519 29.4379 18.7351 29.4158C18.5184 29.3937 18.3099 29.3203 18.1267 29.2018C18.3898 29.0693 19.8317 28.1417 20.0317 28.4915C20.2317 28.8413 19.5686 29.223 19.3739 29.329ZM19.437 28.1894L18.053 28.8996C18.1037 28.5596 18.2625 28.2453 18.5056 28.0038C18.8424 27.7653 19.1213 28.0833 19.437 28.2V28.1894ZM21.5736 25.9207C21.8547 25.8157 22.1592 25.7919 22.453 25.8518C22.7468 25.9117 23.0182 26.0531 23.2366 26.2599L20.9316 27.4367C20.9789 26.9384 21.0368 26.1539 21.5736 25.9207ZM21.0474 27.7653L23.4576 26.5568C23.5073 26.8501 23.4795 27.1515 23.3769 27.4306C23.2744 27.7098 23.1008 27.9568 22.8735 28.147C22.2577 28.5074 21.5736 28.0833 21.0474 27.7653ZM11.4959 25.0514C11.2117 25.0832 11.1433 25.5814 10.7697 25.3535C10.5855 25.2422 10.6276 25.0991 10.6013 24.9136C10.63 24.8987 10.6522 24.8738 10.6639 24.8435C10.6755 24.8132 10.6757 24.7797 10.6644 24.7492L10.5855 24.6803C10.4539 24.3199 10.2802 24.1026 10.4329 23.6944C10.4905 23.5433 10.5831 23.4081 10.703 23.3003C10.8229 23.1924 10.9666 23.1149 11.1222 23.0742C11.2504 23.063 11.3772 23.0399 11.5012 23.0053C11.6538 22.947 11.6853 22.7244 11.9485 22.8092C12.2116 22.894 12.1537 23.0583 12.18 23.2439C12.1011 23.3287 12.1063 23.3976 12.18 23.4559C12.2201 23.5022 12.2457 23.5593 12.2537 23.6202C12.3191 23.7644 12.3503 23.9219 12.3446 24.0804C12.3389 24.2388 12.2965 24.3937 12.2208 24.5327C12.1452 24.6717 12.0384 24.791 11.9088 24.881C11.7793 24.9711 11.6307 25.0294 11.4748 25.0514H11.4959ZM30.5725 22.7138C30.5132 22.6072 30.4318 22.5147 30.3337 22.4427C30.2356 22.3707 30.1233 22.3209 30.0043 22.2968C29.8854 22.2726 29.7626 22.2746 29.6445 22.3027C29.5264 22.3308 29.4157 22.3842 29.32 22.4594C29.1553 22.6615 29.0271 22.8911 28.9411 23.1378C28.799 23.3922 28.5655 23.5819 28.2886 23.6679C26.8361 24.3729 25.4521 25.115 24.047 25.8359C23.9207 25.0302 23.6207 23.9753 24.3101 23.3287C24.5785 23.0795 24.9995 22.9576 25.2258 23.3287C25.3731 23.5672 25.2258 23.9541 25.4942 24.1344C25.4942 23.9806 25.4573 23.6679 25.6152 23.5725C25.6658 23.8184 25.7509 24.0557 25.8678 24.2775C25.9204 23.9753 26.1941 23.864 26.1888 23.5248C26.1683 23.3693 26.1166 23.2196 26.037 23.0848C25.9574 22.9499 25.8515 22.8328 25.7257 22.7403C25.4864 22.5655 25.2031 22.4619 24.9082 22.4413C24.6133 22.4206 24.3185 22.4838 24.0575 22.6237C23.1103 23.1538 23.0524 24.4736 23.2471 25.4171C22.9301 25.2065 22.5607 25.0898 22.1811 25.0805C21.8014 25.0711 21.4268 25.1694 21.1 25.3641C20.4948 25.7882 20.3053 26.5939 20.2106 27.2935C19.6844 27.108 19.1581 27.2935 18.6582 27.0815C18.1582 26.8695 17.5636 26.5515 17.0163 26.2705C15.7533 25.6822 14.4955 25.0779 13.222 24.5107L13.6009 23.7156C13.0746 23.4665 12.9694 23.0901 12.7642 22.6131C12.7642 22.5813 12.6694 22.576 12.6536 22.5442C12.6379 22.5124 12.68 22.4435 12.6536 22.3534C12.6281 22.2189 12.5763 22.091 12.501 21.977C12.2642 21.6749 12.0906 21.8339 11.838 21.977C11.759 22.0194 11.738 22.0724 11.659 22.0989C11.5801 22.1254 11.5275 22.0459 11.4959 22.0565C11.4277 22.0789 11.3624 22.1091 11.3012 22.1466C11.2643 22.1466 11.2117 22.2685 11.1959 22.2685C11.1801 22.2685 11.0117 22.2261 10.9328 22.2261C10.7691 22.2342 10.6107 22.2873 10.475 22.3799C10.2592 22.5442 10.2855 22.8463 10.054 22.9735C9.93292 23.0371 9.82767 22.9735 9.71189 23.0795C9.65886 23.137 9.62443 23.2093 9.61315 23.287C9.60187 23.3646 9.61428 23.4438 9.64874 23.5142C9.68032 23.6414 9.74873 23.6838 9.73821 23.8322C9.72768 23.9806 9.58033 24.1132 9.55402 24.2669C9.48561 24.622 9.81188 24.7439 9.91713 25.0302C9.99947 25.2734 10.068 25.5212 10.1224 25.7723C10.2224 26.2016 10.4223 26.3023 10.8118 26.1062C10.9213 26.0418 11.0379 25.9902 11.1591 25.9525C11.2538 25.926 11.3012 25.9525 11.4012 25.926C11.5012 25.8995 11.5064 25.7882 11.6696 25.7564C11.8327 25.7246 11.9379 25.7564 12.0274 25.7564C12.1267 25.741 12.2283 25.752 12.3221 25.7882C12.4484 25.8253 12.4905 25.9366 12.6273 25.8465C12.7642 25.7564 12.6852 25.3164 12.8852 25.1892C13.0852 25.062 13.4114 25.3959 13.5746 25.4701C14.0061 25.6875 14.4534 25.8836 14.8902 26.085L18.0477 27.5692C17.7158 27.9048 17.5015 28.3402 17.4373 28.8095C16.811 28.3696 15.9901 28.0621 15.3007 28.5551C14.8323 28.889 14.3955 29.6152 14.8218 30.1453C14.8605 29.8953 14.9614 29.6592 15.1151 29.459C15.2687 29.2588 15.4702 29.101 15.7006 29.0004C15.9565 28.9171 16.2295 28.9026 16.4926 28.9584C16.7557 29.0142 16.9997 29.1383 17.2005 29.3184C16.9163 29.4615 14.285 30.686 14.4166 30.9086C14.6166 31.2266 17.0478 29.7318 17.3689 29.5675C17.4019 29.8364 17.3709 30.1093 17.2785 30.3637C17.1861 30.618 17.0348 30.8466 16.8373 31.0305C16.6135 31.1743 16.3559 31.256 16.0907 31.2671C15.8254 31.2783 15.562 31.2186 15.327 31.0941C15.5217 31.815 16.5426 31.8574 17.0952 31.5871C17.39 31.3979 17.6274 31.1307 17.7815 30.8147C17.9356 30.4987 18.0004 30.1461 17.9688 29.7954C18.3068 29.9823 18.6919 30.0654 19.0762 30.0343C19.4606 30.0032 19.8276 29.8594 20.1317 29.6205C20.2704 29.4976 20.3925 29.3568 20.4948 29.2018C20.5394 29.1099 20.5904 29.0213 20.6474 28.9367C20.8 28.7724 20.7632 28.8148 20.9895 28.9367L22.5682 29.6629C23.4898 30.1617 24.4385 30.6076 25.41 30.9987C25.6836 31.0888 26.1678 31.1153 26.0836 30.6701C26.0204 30.352 25.5573 30.2619 25.331 30.14C25.6731 29.4191 25.9625 30.3626 26.352 30.0764C26.5677 29.9227 26.7361 29.382 26.8414 29.1382L27.0887 28.5339C27.2045 28.253 27.2413 28.2636 26.9624 28.131C27.2061 27.9838 27.4097 27.7778 27.5548 27.5317C27.6999 27.2856 27.7821 27.0071 27.7939 26.7211C27.7752 26.4381 27.6599 26.1703 27.4676 25.9631C27.1992 25.661 26.9414 25.8571 26.6046 25.6981C26.6046 25.7829 26.9782 26.3341 27.0308 26.3076C26.8624 26.3871 26.6256 26.1804 26.5046 26.085C26.5046 26.4136 26.9361 26.5462 27.0308 26.8324C27.1571 27.2458 26.7361 27.4791 26.3941 27.5215C25.4416 27.6381 24.8153 26.7582 24.1996 26.1645C25.5942 25.4701 27.0203 24.8181 28.4096 24.0761C28.6042 23.9521 28.8233 23.8725 29.0516 23.8428C29.3652 23.8652 29.68 23.8652 29.9936 23.8428C30.1204 23.8306 30.2423 23.7874 30.3487 23.7171C30.4552 23.6467 30.543 23.5513 30.6047 23.4391C30.6664 23.3269 30.7 23.2013 30.7026 23.073C30.7053 22.9448 30.6769 22.8179 30.6199 22.7032" fill="#FABC42"/>
</svg>
