<svg width="40" height="40" viewBox="0 0 40 40" fill="none" xmlns="http://www.w3.org/2000/svg">
<path d="M30.9073 8.65034L30.4732 8.6362H26.9972C26.1967 6.42406 24.4241 4.65039 22.1828 3.82013V-0.000191501H16.3775V3.84559C14.1693 4.68575 12.4226 6.44952 11.6294 8.6362H8.13609C8.13609 8.6362 8.04955 8.64186 8.01493 8.64469H7.91108C3.54953 8.71682 0 12.2571 0 16.5371C0 20.3475 2.77068 23.6106 6.58848 24.298C6.58848 24.298 6.75435 24.3291 6.8106 24.339V27.6897H16.3212V27.6869H16.3775V29.8198H22.1828V27.6869L22.415 27.6897H31.8665V24.3206C35.6987 23.7181 38.6439 20.4593 38.6439 16.5371C38.6439 12.2769 35.2458 8.81441 30.9073 8.65034Z" fill="#EC1C24"/>
<path d="M39.6575 30.7465C39.6575 30.7465 39.535 30.6927 39.3143 30.5994C39.2047 30.5569 39.0691 30.506 38.9119 30.4508C38.7561 30.3971 38.5787 30.3419 38.3825 30.2924C38.1849 30.2514 37.97 30.2259 37.7393 30.2189C37.5085 30.2415 37.2619 30.2896 37.0037 30.3448C34.9354 30.7931 32.0609 31.4169 29.9219 31.8808C29.7517 31.9162 29.5859 31.9529 29.4258 31.9841C29.2657 32.0152 29.1114 32.035 28.9614 32.0505C28.6657 32.0435 28.396 31.9784 28.1594 31.8766C27.9229 31.7422 27.7181 31.6022 27.5479 31.4791C27.2118 31.1807 27.02 30.9869 27.02 30.9869C27.02 30.9869 27.0171 30.8681 27.0128 30.6814C27.0085 30.4919 27.0027 30.2457 26.9969 29.9516C26.9955 29.8002 26.9955 29.6319 26.9955 29.4509C26.9955 29.2712 26.9955 29.0774 26.9984 28.878C26.9998 28.6772 27.0027 28.4919 27.0056 28.3151C27.0085 28.1496 27.0113 27.994 27.0142 27.8582C27.0186 27.5867 27.0214 27.3604 27.0243 27.2005C27.0258 27.0393 27.0272 26.9431 27.0272 26.9431C27.0272 26.9431 27.219 27.1454 27.5551 27.482C27.7239 27.6376 27.9287 27.8158 28.1638 27.9813C28.4003 28.1453 28.6686 28.2585 28.9628 28.308C29.1114 28.3038 29.2657 28.2868 29.4258 28.2557C29.5859 28.2246 29.7517 28.1878 29.9219 28.1524C32.0609 27.6885 34.9354 27.0647 37.0037 26.6178C37.2619 26.5598 37.5085 26.5159 37.7393 26.5004C37.9729 26.5046 38.1878 26.5273 38.3854 26.5626C38.5816 26.615 38.7604 26.6729 38.9176 26.7324C39.0749 26.796 39.209 26.854 39.32 26.9007C39.5407 26.994 39.6619 27.0435 39.6619 27.0435C39.6619 27.0435 39.6633 27.1553 39.6633 27.3363V28.0166C39.6633 28.1538 39.6619 28.2995 39.6619 28.4509C39.6619 28.6008 39.6604 28.7564 39.659 28.912C39.6576 29.0675 39.6575 29.2231 39.6575 29.3745C39.6575 29.5286 39.6575 29.6757 39.6575 29.8186V30.4848V30.7465Z" fill="white"/>
<path d="M28.3116 31.5824C28.5135 31.6673 28.7284 31.7139 28.9491 31.7224C29.0818 31.7083 29.2188 31.6899 29.3616 31.6616C29.4842 31.6376 29.614 31.6107 29.7453 31.5824L36.9323 30.0237C37.1833 29.9686 37.4501 29.9148 37.7083 29.8922L37.7285 29.8908H37.7487C37.9852 29.8978 38.2203 29.9233 38.4496 29.9686C38.6674 30.0251 38.8549 30.0817 39.0265 30.1411C39.1347 30.1807 39.2342 30.2175 39.3222 30.2514L39.328 27.2614C39.2876 27.2458 39.24 27.226 39.1881 27.2034C39.0525 27.1454 38.9299 27.0931 38.7914 27.0379C38.6357 26.9785 38.4684 26.9247 38.2982 26.8809C38.1366 26.8526 37.939 26.8342 37.7342 26.83C37.5785 26.8413 37.3592 26.8767 37.078 26.9389L29.8707 28.5004C29.7409 28.5287 29.6155 28.5541 29.4914 28.5796C29.3082 28.6136 29.1337 28.6334 28.9707 28.6376H28.939L28.9058 28.6319C28.5683 28.5754 28.2539 28.4467 27.9698 28.25C27.7693 28.1086 27.5717 27.9474 27.351 27.7451L27.3409 28.3208C27.338 28.4976 27.3352 28.6814 27.3337 28.8809C27.3308 29.0789 27.3308 29.2713 27.3308 29.4509C27.3308 29.6305 27.3308 29.7974 27.3323 29.9502L27.3525 30.8469C27.4376 30.9304 27.5818 31.0647 27.7736 31.2345C27.9308 31.3504 28.1198 31.4735 28.3116 31.5824ZM28.9751 32.3801L28.9534 32.3787C28.6318 32.3731 28.3188 32.3037 28.026 32.1793L27.9914 32.1609C27.7707 32.035 27.5529 31.8936 27.3467 31.7408C26.9775 31.4155 26.7799 31.2175 26.7799 31.2175L26.6876 31.1241L26.6616 29.9587C26.6602 29.8031 26.6602 29.6333 26.6602 29.4509C26.6602 29.2698 26.6602 29.0761 26.663 28.8738C26.6645 28.673 26.6674 28.4863 26.6703 28.3095L26.7106 26.1242L27.2731 26.7197C27.276 26.7197 27.465 26.9205 27.7953 27.2529C27.9164 27.3646 28.1183 27.5457 28.3592 27.714C28.551 27.8455 28.7616 27.9361 28.988 27.9785C29.1049 27.9728 29.2304 27.9587 29.363 27.9332C29.4799 27.9106 29.6025 27.8851 29.728 27.8583L29.8506 27.8328L36.9323 26.2967C37.2467 26.2274 37.4977 26.1878 37.7169 26.1723C37.9881 26.1765 38.2232 26.1992 38.4453 26.2402C38.6645 26.2967 38.8549 26.3576 39.0381 26.4255C39.1895 26.4863 39.3165 26.5414 39.4232 26.5867C39.6684 26.69 39.7881 26.738 39.7895 26.738L39.9972 26.8215L40.0001 28.0167L39.9929 31.2543L39.5198 31.0463C39.5198 31.0463 39.3987 30.994 39.1823 30.9035C39.0828 30.8639 38.9515 30.8144 38.7987 30.762C38.6472 30.7069 38.477 30.6574 38.2967 30.6107C38.1294 30.5768 37.9405 30.5541 37.7501 30.5485C37.5366 30.5697 37.3001 30.6178 37.0765 30.6673L29.8866 32.2245C29.7525 32.2542 29.6212 32.2811 29.4929 32.3066C29.3212 32.3405 29.1554 32.3617 28.9967 32.3773L28.9751 32.3801Z" fill="#231F20"/>
<path d="M39.6577 34.346C39.6577 34.346 39.5236 34.2909 39.2827 34.1947C39.163 34.1452 39.0173 34.0943 38.8471 34.0448C38.6784 34.0023 38.4851 33.9641 38.2731 33.9429C38.061 33.9373 37.8288 33.9429 37.5793 33.9627C37.3312 34.0023 37.0673 34.0575 36.7904 34.1183C34.5707 34.6006 31.5317 35.2597 29.4259 35.7152C29.2658 35.7505 29.1115 35.7831 28.9629 35.8071C28.6687 35.8594 28.4033 35.8821 28.1697 35.8821C27.9375 35.8623 27.7399 35.8184 27.5783 35.7534C27.2639 35.5624 27.0879 35.4252 27.0879 35.4252C27.0879 35.4252 27.0879 35.3177 27.0894 35.1282C27.0894 35.0348 27.0908 34.916 27.0937 34.7732C27.0951 34.6289 27.0966 34.4592 27.0995 34.2668C27.1009 34.0646 27.1024 33.8552 27.1009 33.6544C27.1009 33.4493 27.098 33.2555 27.0966 33.0688C27.0908 32.8708 27.0865 32.6827 27.0793 32.5031C27.0735 32.3291 27.0677 32.1622 27.0605 32.0165C27.0475 31.7223 27.0374 31.4719 27.0302 31.2867C27.0245 31.0985 27.0201 30.9868 27.0201 30.9868C27.0201 30.9868 27.212 31.1806 27.548 31.479C27.7182 31.6035 27.923 31.7435 28.161 31.8708C28.3961 31.9783 28.6658 32.0448 28.9615 32.0504C29.1115 32.0349 29.2658 32.0165 29.4259 31.984C29.586 31.9528 29.7519 31.9161 29.9221 31.8807C32.061 31.4168 34.9356 30.793 37.0038 30.3447C37.262 30.2881 37.5086 30.24 37.7394 30.2174C37.9702 30.2244 38.1851 30.2499 38.3827 30.2909C38.5788 30.3418 38.7562 30.3956 38.912 30.4507C39.0692 30.5045 39.2048 30.5554 39.3144 30.5993C39.5351 30.6926 39.6577 30.7464 39.6577 30.7464V31.0264V31.7166V32.5554V33.3772V34.0603V34.346Z" fill="#0071BB"/>
<path d="M27.7303 35.4592C27.8601 35.5072 28.0173 35.5398 28.1976 35.5539C28.3952 35.5525 28.6418 35.5299 28.9043 35.4846C29.0471 35.4592 29.1971 35.4295 29.3529 35.3941L36.7173 33.7972C36.9813 33.7392 37.2625 33.6784 37.5279 33.6388C37.8019 33.6148 38.0471 33.6077 38.2808 33.6133C38.5231 33.6388 38.7337 33.6756 38.9327 33.7265C39.0827 33.7718 39.2111 33.8142 39.3221 33.8552V30.9599C39.2803 30.9429 39.2341 30.9231 39.1793 30.8991C39.0841 30.8637 38.9529 30.8142 38.8 30.7605C38.65 30.7081 38.4827 30.6558 38.2966 30.6077C38.1337 30.5752 37.9447 30.554 37.7515 30.5469C37.5207 30.5709 37.2712 30.6219 37.0779 30.6643L29.8836 32.2258C29.7495 32.2527 29.6197 32.281 29.4928 32.3064C29.3211 32.3404 29.1553 32.3616 28.9966 32.3772L28.975 32.38L28.9548 32.3786C28.6245 32.3715 28.3101 32.3022 28.0187 32.1678C27.7981 32.0504 27.5947 31.9217 27.3855 31.769C27.3884 31.8425 27.3928 31.9203 27.3956 32.0023C27.4014 32.148 27.4086 32.3163 27.4144 32.4917C27.4216 32.6713 27.4259 32.8609 27.4303 33.0617C27.4346 33.2513 27.436 33.4464 27.4375 33.6544C27.4375 33.8552 27.436 34.066 27.4346 34.2696L27.4245 35.2583C27.4966 35.3106 27.6005 35.3785 27.7303 35.4592ZM28.1702 36.2102C27.8803 36.189 27.6481 36.1367 27.4519 36.0574L27.4014 36.0334C27.074 35.834 26.8865 35.6883 26.8793 35.6812L26.7509 35.5836L26.7639 34.2611C26.7668 34.0631 26.7668 33.8552 26.7668 33.6558C26.7668 33.4521 26.7639 33.2597 26.761 33.073C26.7553 32.8793 26.7509 32.6926 26.7437 32.5158C26.738 32.3418 26.7322 32.1763 26.725 32.0292C26.712 31.735 26.7019 31.4832 26.6947 31.2994L26.6543 30.1495L27.2601 30.7577C27.2644 30.7619 27.449 30.9486 27.7735 31.2343C27.9481 31.363 28.1341 31.4818 28.3216 31.5823C28.5033 31.6629 28.7197 31.7152 28.949 31.7209C29.0817 31.7081 29.2187 31.6897 29.3601 31.66C29.4841 31.6374 29.611 31.6091 29.7408 31.5823L32.526 30.9783L36.9308 30.0236C37.1486 29.9755 37.4341 29.9161 37.7067 29.8892H37.7284H37.75C37.9894 29.8949 38.226 29.9232 38.451 29.967C38.6731 30.025 38.8606 30.0816 39.0265 30.141C39.1851 30.1961 39.3236 30.2485 39.4361 30.2923C39.6697 30.3913 39.7938 30.4451 39.7938 30.4451L39.9928 30.5342V34.8453L39.5241 34.6487C39.5226 34.6487 39.3914 34.5921 39.1563 34.4974C39.0452 34.4535 38.9096 34.4068 38.7524 34.3602C38.5952 34.3191 38.4192 34.2894 38.2375 34.2696C38.0529 34.2668 37.8322 34.2725 37.6072 34.2908C37.3851 34.3262 37.1168 34.3828 36.863 34.4379L29.4985 36.0348C29.3341 36.073 29.174 36.1055 29.0226 36.1324C28.7211 36.1847 28.4341 36.2102 28.1702 36.2102Z" fill="#231F20"/>
<path d="M39.6577 38.1001C39.6577 38.1001 39.5106 38.0478 39.2524 37.9516C39.1212 37.9007 38.9625 37.8427 38.7808 37.7819C38.5976 37.7267 38.3885 37.6786 38.1606 37.6518C37.9313 37.6348 37.6818 37.656 37.4164 37.7097C37.1495 37.7691 36.8669 37.83 36.5697 37.8936C34.2 38.407 30.9995 39.1015 28.9615 39.5428C28.6644 39.6079 28.3933 39.6588 28.1567 39.6687C27.9274 39.6376 27.7298 39.5768 27.5712 39.5018C27.2668 39.2868 27.0966 39.1284 27.0966 39.1284V38.796C27.0966 38.6008 27.0937 38.3363 27.0923 38.0407C27.0909 37.8936 27.0909 37.7394 27.0909 37.5839C27.0909 37.4325 27.0909 37.2812 27.0909 37.1341C27.0894 36.9941 27.088 36.8569 27.088 36.7253C27.088 36.5966 27.088 36.4665 27.088 36.3434C27.0865 36.0959 27.0851 35.8682 27.0865 35.7013C27.0865 35.5301 27.088 35.4255 27.088 35.4255C27.088 35.4255 27.2639 35.5641 27.5784 35.755C27.7399 35.8201 27.9389 35.8639 28.1697 35.8837C28.4034 35.8823 28.6688 35.8597 28.963 35.8088C29.1115 35.7833 29.2659 35.7508 29.426 35.7154C31.5317 35.26 34.5707 34.5995 36.7904 34.12C37.0673 34.0592 37.3313 34.0026 37.5794 33.9729C37.8289 33.9432 38.0611 33.9403 38.2731 33.9446C38.4851 33.9644 38.6784 34.0026 38.8471 34.0464C39.0173 34.0959 39.163 34.1454 39.2827 34.1949C39.5236 34.2925 39.6577 34.3491 39.6577 34.3491V34.6475V35.3929V35.8498V36.2967V37.1595V37.83V38.1001Z" fill="#EC1C24"/>
<path d="M27.7425 39.2178C27.8665 39.273 28.0151 39.314 28.1723 39.3395C28.3555 39.3282 28.579 39.2914 28.8877 39.2221L37.3425 37.389C37.6512 37.3268 37.9324 37.3041 38.1863 37.3239C38.4228 37.3522 38.6507 37.3989 38.8786 37.4682C39.0517 37.5262 39.1988 37.5799 39.3214 37.6252V34.5672C39.2752 34.5474 39.219 34.5262 39.1555 34.4994C39.0401 34.4527 38.906 34.4074 38.7517 34.3607C38.593 34.3211 38.417 34.29 38.2382 34.2716C38.0218 34.266 37.8185 34.2759 37.6194 34.2985C37.3916 34.3268 37.142 34.3791 36.8637 34.44L29.4978 36.0368C29.3334 36.0722 29.1747 36.1061 29.0233 36.133C28.7218 36.1839 28.4362 36.2108 28.1709 36.2122C27.8824 36.1896 27.6516 36.1387 27.4526 36.0609L27.4209 36.0467C27.4223 36.1387 27.4223 36.2391 27.4223 36.3409L27.4266 38.0382C27.4295 38.3352 27.4309 38.5997 27.4324 38.7949L27.4309 38.9788C27.5016 39.0382 27.6069 39.1217 27.7425 39.2178ZM28.142 40L28.1103 39.9958C27.8593 39.959 27.6285 39.8939 27.4252 39.7977L27.3761 39.7695C27.0559 39.5431 26.8728 39.3748 26.8656 39.3663L26.7603 39.2702V38.7963C26.7603 38.6011 26.7588 38.3395 26.7559 38.0425L26.7516 36.3437C26.7516 36.0976 26.7502 35.8685 26.7516 35.7002L26.7559 34.7497L27.2954 35.1698C27.2983 35.1712 27.454 35.2928 27.7295 35.4597C27.8608 35.5092 28.018 35.5404 28.1968 35.5559C28.3959 35.5531 28.6439 35.5305 28.9064 35.4852C29.0478 35.4612 29.1978 35.4286 29.3535 35.3947L36.718 33.7992C37.0137 33.7327 37.2805 33.6776 37.5387 33.6479C37.7709 33.6196 38.0074 33.6097 38.2815 33.6153C38.5209 33.6394 38.7315 33.6762 38.9334 33.7285C39.1209 33.7822 39.2781 33.8374 39.4137 33.8926C39.6531 33.9902 39.7901 34.0467 39.7901 34.0467L39.9935 34.1316V38.5672L39.5435 38.4102C39.5435 38.4102 39.3949 38.3579 39.131 38.2574C39.0041 38.2094 38.8497 38.1528 38.6723 38.0934C38.4906 38.0396 38.306 38 38.1199 37.9788C37.944 37.9661 37.7247 37.983 37.4839 38.0326L29.0348 39.8642C28.6699 39.9463 28.4031 39.9873 28.1737 39.9986L28.142 40Z" fill="#231F20"/>
<path d="M39.6576 30.7316C39.6576 30.7316 39.535 30.6792 39.3144 30.5845C39.2048 30.5406 39.0692 30.4911 38.912 30.436C38.7562 30.385 38.5788 30.3313 38.3826 30.2874C38.185 30.2422 37.9701 30.2153 37.7394 30.2096C37.5086 30.2309 37.262 30.2775 37.0038 30.3341C34.9355 30.7825 32.061 31.4062 29.922 31.8702C29.7518 31.9055 29.586 31.9423 29.4259 31.9777C29.2658 32.0059 29.1115 32.0272 28.9615 32.0427C28.6672 32.0328 28.3975 31.9706 28.161 31.8716C27.9259 31.7372 27.7196 31.5986 27.5509 31.4727C27.2163 31.1813 27.0244 30.9876 27.0244 30.9876C27.0244 30.9876 27.0215 30.8702 27.0158 30.6764C27.0114 30.4897 27.0057 30.2365 26.9999 29.965C26.997 29.8164 26.9956 29.6524 26.9941 29.4756C26.9941 29.2903 26.9956 29.0951 26.9956 28.89C26.9985 28.6991 27.0014 28.5081 27.0028 28.3271C27.0057 28.1545 27.0086 27.9919 27.0114 27.8504C27.0158 27.5704 27.0201 27.3426 27.0215 27.1814C27.0244 27.0202 27.0259 26.9254 27.0259 26.9254C27.0259 26.9254 27.2177 27.1305 27.5538 27.4728C27.7225 27.6312 27.9273 27.8108 28.1624 27.9919C28.399 28.1404 28.6687 28.2535 28.9615 28.2861C29.1115 28.2903 29.2658 28.2747 29.4259 28.2479C29.586 28.2153 29.7518 28.1786 29.922 28.1418C32.061 27.6779 34.9355 27.0555 37.0038 26.6071C37.262 26.5506 37.5086 26.5067 37.7394 26.4982C37.9716 26.4912 38.1879 26.5138 38.3841 26.552C38.5817 26.6057 38.7605 26.6666 38.9177 26.7274C39.075 26.7924 39.2091 26.8518 39.3201 26.8999C39.5408 26.9933 39.6634 27.0442 39.6634 27.0442C39.6634 27.0442 39.6634 27.1545 39.6634 27.3257C39.6634 27.4982 39.6634 27.733 39.6634 28.0074C39.6634 28.1432 39.662 28.2889 39.662 28.4402C39.6605 28.5901 39.6605 28.7471 39.6591 28.9013C39.6576 29.0569 39.6576 29.2139 39.6576 29.3667V29.8051V30.4671V30.7316Z" fill="white"/>
<path d="M39.658 34.3447C39.658 34.3447 39.5239 34.2896 39.283 34.1962C39.1633 34.1481 39.0176 34.0986 38.8474 34.0491C38.6787 34.0038 38.4854 33.9628 38.2734 33.936C38.0614 33.9261 37.8291 33.9317 37.5796 33.9614C37.3315 33.9911 37.0676 34.0477 36.7907 34.1071C34.571 34.5894 31.532 35.2485 29.4262 35.7054C29.2661 35.7407 29.1118 35.7733 28.9618 35.8044C28.669 35.8525 28.4022 35.8779 28.1685 35.885C27.9363 35.8737 27.7373 35.8256 27.5786 35.7577C27.2642 35.5597 27.0868 35.4168 27.0868 35.4168C27.0868 35.4168 27.0882 35.3136 27.0882 35.1297C27.0897 34.9487 27.0926 34.6729 27.0983 34.298C27.1012 34.1014 27.1012 33.8949 27.1012 33.687C27.1012 33.4805 27.1012 33.2754 27.0983 33.0859C27.0955 32.8907 27.0897 32.6998 27.0854 32.5173C27.0796 32.3377 27.0738 32.1679 27.068 32.018C27.0551 31.7167 27.0435 31.4678 27.0363 31.2825C27.0291 31.1001 27.0248 30.9869 27.0248 30.9869C27.0248 30.9869 27.2166 31.1821 27.5512 31.4735C27.72 31.5993 27.9262 31.738 28.1613 31.8709C28.3979 31.9713 28.6676 32.035 28.9618 32.0421C29.1118 32.0265 29.2661 32.0067 29.4262 31.977C29.5863 31.943 29.7522 31.9049 29.9224 31.8695C32.0613 31.4056 34.9359 30.7818 37.0041 30.3334C37.2623 30.2769 37.509 30.2316 37.7397 30.2217C37.9705 30.2132 38.1854 30.2415 38.383 30.2825C38.5791 30.3306 38.7566 30.3844 38.9123 30.4353C39.0695 30.4904 39.2051 30.54 39.3147 30.5838C39.5354 30.6786 39.658 30.7309 39.658 30.7309V31.0152V31.7012V32.5314V33.3645V34.0548V34.3447Z" fill="#0071BB"/>
<path d="M39.6577 38.0824C39.6577 38.0824 39.5106 38.0301 39.2524 37.9339C39.1212 37.8844 38.9625 37.8292 38.7808 37.7727C38.5976 37.7189 38.3885 37.6694 38.1606 37.6298C37.9313 37.6298 37.6818 37.6581 37.4164 37.7062C37.1495 37.7585 36.8669 37.8179 36.5697 37.883C34.2 38.3978 30.9995 39.0909 28.9615 39.5322C28.6644 39.5972 28.3933 39.6482 28.1567 39.668C27.926 39.6439 27.7284 39.5888 27.5697 39.5195C27.2639 39.3045 27.0952 39.1489 27.0952 39.1489C27.0952 39.1489 27.0966 39.0202 27.0966 38.8108C27.0966 38.6072 27.0966 38.3356 27.0923 38.0414C27.0909 37.8929 27.0909 37.7359 27.0909 37.5817C27.0909 37.4219 27.0909 37.2677 27.0909 37.1164C27.0894 36.9707 27.0894 36.8307 27.0894 36.6977C27.088 36.5676 27.088 36.4417 27.088 36.3186C27.0865 36.074 27.0851 35.8533 27.0865 35.6864C27.0865 35.5195 27.0865 35.4177 27.0865 35.4177C27.0865 35.4177 27.2639 35.5605 27.5784 35.7585C27.7385 35.8264 27.9361 35.8745 28.1683 35.8873C28.4019 35.8773 28.6688 35.8533 28.9615 35.8066C29.1115 35.7741 29.2659 35.7416 29.426 35.7048C31.5317 35.2479 34.5707 34.5888 36.7904 34.1065C37.0673 34.0471 37.3313 33.9891 37.5794 33.9523C37.8289 33.9311 38.0611 33.9269 38.2731 33.9354C38.4851 33.9637 38.6784 34.0033 38.8471 34.0471C39.0173 34.0994 39.163 34.1489 39.2827 34.1956C39.5236 34.289 39.6577 34.3441 39.6577 34.3441V34.6595V35.4035V36.2833V37.1432V37.8151V38.0824Z" fill="#EC1C24"/>
<path d="M20.9277 15.0082V7.58536C22.3988 8.20204 23.4286 9.63201 23.4286 11.2968C23.4286 12.9644 22.3988 14.3929 20.9277 15.0082ZM17.632 14.9771C16.6007 14.5216 15.7945 13.6631 15.4252 12.6037H16.8156V9.8668H15.4685C15.855 8.8654 16.6397 8.05494 17.632 7.61789V14.9771ZM30.8594 9.88095C30.7888 9.87812 30.4541 9.8668 30.4541 9.8668H26.0609C25.5027 7.32935 23.495 5.32088 20.9277 4.71834V1.23041H17.632V4.7339C15.0978 5.35483 13.119 7.35056 12.568 9.8668H8.17762L8.05935 9.87387H7.93387C4.23434 9.93611 1.25452 12.8951 1.25452 16.5372C1.25452 19.803 3.65164 22.5187 6.81463 23.0887V20.3193C5.18193 19.8073 3.99924 18.308 3.99924 16.5372C3.99924 14.3434 5.81367 12.5655 8.04925 12.5655C8.05358 12.5655 8.06656 12.6037 8.06656 12.6037V26.4593H10.9541V12.6037H12.1786V26.4593H15.0661V16.6291C15.8132 17.2033 16.6844 17.6291 17.632 17.8625V28.5894H20.9277V17.8766C21.9488 17.6376 22.8806 17.1736 23.6695 16.5442V26.4593H26.557V12.5697H30.4916C30.4916 12.5697 30.744 12.5697 30.7916 12.5712C32.9364 12.6744 34.6455 14.4085 34.6455 16.5372C34.6455 18.7238 32.8412 20.4989 30.6128 20.5088V20.5102H27.7238V26.4593H30.6128V23.199C34.357 23.1905 37.3888 20.2118 37.3888 16.5372C37.3888 12.9446 34.4883 10.0153 30.8594 9.88095Z" fill="white"/>
<path d="M31.5768 26.4437C31.5768 26.4437 31.4801 26.3659 31.2941 26.2513C31.1109 26.1353 30.8383 26.042 30.4907 25.9996C30.3162 26.0194 30.1244 26.0519 29.9138 26.0887C25.1498 27.0689 11.4551 29.8906 5.69158 31.0759C5.46081 31.124 5.24303 31.1664 5.03822 31.2046C4.83341 31.2088 4.64447 31.1989 4.46995 31.1791C4.29254 31.1608 4.13245 31.131 3.98821 31.0985C3.69831 31.0165 3.47331 30.9458 3.31898 30.8948C3.1661 30.8369 3.08533 30.8057 3.08533 30.8057V29.9118V29.0434V28.5384V28.0208V27.1962V26.8935C3.08533 26.8935 3.2036 26.9302 3.42139 26.9996C3.531 27.0335 3.66658 27.0731 3.82379 27.1169C3.98244 27.1594 4.16562 27.199 4.36754 27.2358C4.57091 27.2725 4.79591 27.281 5.0411 27.2669C5.28485 27.2527 5.5488 27.2145 5.83005 27.1566C6.1113 27.0986 6.4113 27.0377 6.72572 26.9727C13.9661 25.4805 29.4796 22.2867 29.4796 22.2867C29.4796 22.2867 29.6109 22.2599 29.8085 22.2203C30.0061 22.192 30.2729 22.199 30.5412 22.2556C30.8123 22.3575 31.0835 22.5244 31.2883 22.7082C31.4931 22.9388 31.6301 23.1142 31.6301 23.1142C31.6301 23.1142 31.6287 23.2089 31.6273 23.3603C31.6244 23.513 31.62 23.711 31.6143 23.9331C31.6114 24.042 31.6071 24.1566 31.6042 24.274C31.5998 24.3928 31.5955 24.5187 31.5926 24.6502C31.5883 24.7832 31.5869 24.9246 31.584 25.0675C31.5825 25.2117 31.5811 25.3588 31.5797 25.5059C31.5797 25.7959 31.5782 26.0378 31.5782 26.1948C31.5768 26.3546 31.5768 26.4437 31.5768 26.4437Z" fill="white"/>
<path d="M3.42129 30.5807L3.44148 30.5892C3.57706 30.633 3.79773 30.7023 4.08186 30.7843C4.21023 30.8126 4.35879 30.8381 4.50446 30.8522C4.666 30.8706 4.83043 30.8805 5.00495 30.8763C5.19822 30.8395 5.40591 30.7985 5.6237 30.7546L29.8459 25.7674C30.0723 25.7264 30.2714 25.6939 30.4517 25.6727L30.4921 25.667L30.5324 25.6727C30.7978 25.7052 31.0401 25.7674 31.2449 25.8551L31.2464 25.5058C31.2464 25.3573 31.2464 25.2087 31.2493 25.0631C31.2522 24.9174 31.2536 24.7759 31.2579 24.643L31.2796 23.923C31.2853 23.7052 31.2897 23.5072 31.2925 23.3573L31.294 23.2257C31.2363 23.155 31.1469 23.0489 31.0358 22.9245C30.893 22.7972 30.6709 22.66 30.4459 22.5723C30.2411 22.5327 30.0233 22.5214 29.856 22.544L29.5488 22.6076L5.90062 27.4789C5.58764 27.5439 5.3136 27.5807 5.05975 27.5949C4.77994 27.6118 4.53331 27.6005 4.30687 27.5581C4.10206 27.5227 3.91023 27.4803 3.73715 27.4336C3.61888 27.4025 3.51359 27.3714 3.42129 27.3445V30.5807ZM4.96312 31.5354C4.77994 31.5354 4.6011 31.5255 4.4309 31.5057C4.26071 31.4887 4.08475 31.459 3.91167 31.4194C3.60013 31.3317 3.36936 31.2582 3.21359 31.2058L2.75061 31.0276V26.4463L3.52513 26.6868C3.63042 26.7207 3.76023 26.7589 3.91311 26.7985C4.06311 26.8381 4.23619 26.8777 4.42802 26.9117C4.59821 26.9428 4.79725 26.9527 5.02081 26.9386C5.24148 26.9258 5.48379 26.8933 5.7636 26.8353L29.7421 21.8962C30.0118 21.8594 30.3219 21.8736 30.6118 21.9344L30.6637 21.9485C30.9723 22.0659 31.2824 22.2554 31.5161 22.4676C31.7555 22.7321 31.8969 22.9132 31.8969 22.9132L31.9675 23.0037L31.9632 23.3643C31.9603 23.5185 31.956 23.7194 31.9502 23.9414L31.9286 24.6585C31.9243 24.7901 31.9228 24.9301 31.9199 25.0715C31.9185 25.2158 31.9171 25.3629 31.9156 25.5072L31.907 27.1267L31.3675 26.6995C31.3603 26.6939 31.2738 26.6274 31.1166 26.5298C31.0271 26.4746 30.8324 26.377 30.4906 26.3304C30.332 26.3502 30.1603 26.3799 29.9728 26.4124L5.76072 31.3982C5.52706 31.4449 5.30927 31.4887 5.10446 31.5283L5.04389 31.534C5.01648 31.5354 4.98908 31.5354 4.96312 31.5354Z" fill="#231F20"/>
<path d="M31.5716 30.3874C31.5716 30.3874 31.475 30.3096 31.2918 30.1823C31.1072 30.072 30.8375 29.963 30.4913 29.9121C30.3168 29.922 30.125 29.9447 29.9144 29.9814C29.7038 30.0239 29.4759 30.072 29.2322 30.1229C24.0024 31.1992 11.4239 33.789 5.83787 34.9404C5.59556 34.9899 5.36623 35.0365 5.14989 35.0719C4.93498 35.1044 4.7345 35.1101 4.54844 35.103C4.36383 35.0846 4.19508 35.0606 4.04075 35.0337C3.73498 34.9672 3.49556 34.8937 3.33402 34.8343C3.17104 34.7692 3.08594 34.731 3.08594 34.731V34.4085V33.6617V32.7692V32.2997V31.8301V31.0818V30.806C3.08594 30.806 3.16671 30.8372 3.31959 30.8951C3.47392 30.9461 3.69892 31.0168 3.98882 31.0988C4.13306 31.1313 4.29315 31.1611 4.46912 31.1809C4.64508 31.1992 4.83402 31.2091 5.03883 31.2049C5.24364 31.1667 5.46143 31.1243 5.6922 31.0762C11.4557 29.8895 25.1504 27.0692 29.9144 26.089C30.125 26.0522 30.3168 26.0211 30.4913 25.9985C30.8389 26.0423 31.1115 26.1356 31.2961 26.2375C31.4808 26.3662 31.5774 26.444 31.5774 26.444C31.5774 26.444 31.5745 26.7778 31.5731 27.253C31.5716 27.3718 31.5716 27.5133 31.5702 27.6675C31.5702 27.8245 31.5687 28.0013 31.5687 28.1865C31.5687 28.3732 31.5687 28.5628 31.5673 28.7467C31.5673 28.9334 31.5673 29.1116 31.5687 29.2714C31.5687 29.6094 31.5687 29.8909 31.5702 30.0804C31.5716 30.277 31.5716 30.3874 31.5716 30.3874Z" fill="#0071BB"/>
<path d="M3.42129 34.5131C3.43427 34.5187 3.44869 34.5244 3.46167 34.53C3.58282 34.5739 3.80494 34.646 4.1136 34.7125C4.24629 34.7351 4.40639 34.7577 4.58235 34.7761C4.75398 34.7818 4.9285 34.7719 5.0987 34.7464C5.30783 34.7139 5.53139 34.6672 5.76937 34.6177C11.354 33.4678 23.9353 30.878 29.1637 29.8017C29.4074 29.7507 29.6353 29.7026 29.8459 29.6588C30.0666 29.6206 30.2743 29.5952 30.4704 29.5838L30.5065 29.5824L30.5411 29.5867C30.8267 29.6291 31.0574 29.7055 31.2334 29.7819C31.2334 29.6348 31.232 29.4622 31.232 29.2713V28.7465L31.2421 26.6051C31.2031 26.5782 31.157 26.5443 31.1022 26.5075C31.0329 26.4693 30.8252 26.376 30.4906 26.3307C30.3334 26.3505 30.1603 26.3802 29.9728 26.4113L5.76072 31.3985C5.52706 31.4452 5.30927 31.489 5.10302 31.5287L5.04389 31.5343C4.83043 31.5371 4.62562 31.5286 4.43235 31.5074C4.25494 31.4876 4.08042 31.4579 3.91167 31.4183C3.7184 31.3632 3.55398 31.3151 3.42129 31.2741V34.5131ZM4.68619 35.4338C4.63716 35.4338 4.58667 35.4324 4.53619 35.431C4.32273 35.4112 4.14244 35.3843 3.98235 35.3575C3.62177 35.2797 3.36792 35.1976 3.21648 35.1411C3.03763 35.0703 2.94965 35.0321 2.94965 35.0321L2.75061 34.9459V30.3207L3.44148 30.5895C3.57706 30.6333 3.79773 30.7026 4.08186 30.7833C4.20879 30.8115 4.35735 30.837 4.50735 30.854C4.66312 30.8709 4.83043 30.8823 5.00495 30.8766C5.19966 30.8398 5.40591 30.7988 5.6237 30.755L29.8459 25.7663C30.0723 25.7267 30.2699 25.6956 30.4502 25.673L30.4906 25.6673L30.5324 25.673C30.981 25.7267 31.2853 25.8554 31.4598 25.9516C31.6848 26.1058 31.7873 26.1864 31.7873 26.1864L31.9127 26.2868L31.9026 28.7493L31.9041 29.2698C31.9041 29.6079 31.9041 29.8879 31.9055 30.0789L31.907 31.0803L31.3603 30.6432C31.3546 30.639 31.2637 30.5669 31.0978 30.4523C31.0142 30.4028 30.8007 30.2953 30.4762 30.2415C30.3146 30.2529 30.1459 30.2741 29.9743 30.3052C29.7723 30.3462 29.5459 30.3943 29.3021 30.4438C24.0723 31.5216 11.4925 34.1114 5.90783 35.2613C5.65831 35.3122 5.42322 35.3617 5.20254 35.3956C5.03523 35.4225 4.86504 35.4338 4.68619 35.4338Z" fill="#231F20"/>
<path d="M31.5638 34.6902C31.5638 34.6902 31.4816 34.2985 31.297 34.1598C31.1124 34.0354 30.8383 33.9024 30.4907 33.8246C30.3162 33.8218 30.1244 33.8388 29.9138 33.8727C29.7032 33.9166 29.4753 33.9632 29.233 34.0142C24.0032 35.0905 11.4233 37.6803 5.8387 38.8316C5.59495 38.8811 5.36563 38.9292 5.15072 38.9674C4.93582 38.9943 4.73389 39.0056 4.54928 39.0056C4.36466 38.9943 4.19447 38.9731 4.04014 38.9448C3.73581 38.8628 3.49639 38.7836 3.33341 38.7086C3.17042 38.6379 3.08533 38.594 3.08533 38.594V38.3083V37.5615V37.0764V36.5813V36.123V35.7143V35.0382V34.7327C3.08533 34.7327 3.17187 34.7709 3.33485 34.8359C3.49639 34.8939 3.73581 34.9675 4.04014 35.0339C4.19447 35.0622 4.36466 35.0863 4.54928 35.1047C4.73389 35.1117 4.93582 35.1061 5.15072 35.0736C5.36563 35.0382 5.59495 34.9915 5.8387 34.942C11.4233 33.7907 24.0032 31.1995 29.233 30.1231C29.4753 30.0722 29.7032 30.0255 29.9138 29.9831C30.1244 29.9449 30.3162 29.9223 30.4907 29.9138C30.8369 29.9633 31.1066 30.0722 31.2912 30.1797C31.4744 30.3098 31.571 30.3876 31.571 30.3876C31.571 30.3876 31.5725 30.4937 31.5739 30.6747C31.5753 30.8572 31.5768 31.1118 31.5782 31.423C31.5797 31.5743 31.5797 31.7398 31.5797 31.9095C31.5811 32.0778 31.5811 32.2532 31.5811 32.4215C31.5811 32.5913 31.5811 32.7525 31.5811 32.9053V33.3692V34.0891C31.5811 34.2688 31.5638 34.6902 31.5638 34.6902Z" fill="#EC1C24"/>
<path d="M3.42129 38.3863C3.43715 38.3934 3.45302 38.4019 3.47177 38.409C3.58138 38.4585 3.78042 38.5348 4.12802 38.6268C4.24917 38.6494 4.40494 38.6664 4.56792 38.6763C4.72946 38.6749 4.91841 38.6636 5.11023 38.6423C5.25879 38.614 5.43764 38.5787 5.62514 38.5391L5.76937 38.5108C11.354 37.3581 23.9353 34.7683 29.1637 33.6933L29.8445 33.5505C30.0969 33.5109 30.3046 33.4939 30.4949 33.4953L30.5671 33.5038C30.8469 33.5674 31.0733 33.658 31.2464 33.7485L31.2377 30.5491C31.1988 30.5194 31.1512 30.4854 31.0935 30.4444C30.9925 30.3878 30.7791 30.2902 30.4748 30.2436C30.319 30.2535 30.1502 30.2747 29.9743 30.3058L5.90783 35.2633C5.65831 35.3142 5.42322 35.3623 5.20254 35.3977C4.98764 35.4302 4.76985 35.4415 4.53475 35.4316C4.32273 35.4118 4.14244 35.3878 3.97946 35.3567C3.75158 35.3072 3.56552 35.2562 3.42129 35.2124V38.3863ZM4.54917 39.334C4.33715 39.3213 4.1511 39.3 3.97658 39.2661C3.6434 39.1798 3.3809 39.0921 3.1934 39.0073C3.02321 38.9323 2.93234 38.8856 2.93234 38.8856L2.75205 38.7937L2.75061 34.2308L3.21936 34.4316C3.22225 34.4331 3.3059 34.467 3.46023 34.5292C3.58427 34.5745 3.80638 34.6452 4.1136 34.7131C4.24629 34.7372 4.40639 34.7612 4.58091 34.7753C4.75254 34.7824 4.92706 34.7739 5.09725 34.7485C5.30783 34.7145 5.53139 34.6678 5.76937 34.6198L29.8459 29.6608C30.0709 29.6198 30.2786 29.5944 30.4733 29.5845L30.5065 29.583L30.5397 29.5873C30.968 29.6481 31.2767 29.7895 31.4613 29.8956C31.682 30.0512 31.7844 30.1332 31.7844 30.1332L31.9055 30.2294L31.9171 34.0894C31.9171 34.2718 31.8998 34.7032 31.8998 34.7032L31.2363 34.757C31.2074 34.624 31.1368 34.4585 31.0949 34.4217C31.0026 34.3609 30.782 34.2336 30.4502 34.153C30.3089 34.1544 30.1473 34.1686 29.9685 34.1968L29.3022 34.3369C24.0723 35.4118 11.4925 38.003 5.90783 39.1529L5.76216 39.1826C5.56889 39.2237 5.38572 39.2604 5.2112 39.293C4.97177 39.3198 4.75543 39.334 4.54917 39.334Z" fill="#231F20"/>
<path d="M31.5768 26.4437C31.5768 26.4437 31.4801 26.3659 31.2941 26.2513C31.1109 26.1353 30.8383 26.042 30.4907 25.9996C30.3162 26.0194 30.1244 26.0519 29.9138 26.0887C25.1498 27.0689 11.4551 29.8906 5.69158 31.0759C5.46081 31.124 5.24303 31.1664 5.03822 31.2046C4.83341 31.2088 4.64447 31.1989 4.46995 31.1791C4.29254 31.1608 4.13245 31.131 3.98821 31.0985C3.69831 31.0165 3.47331 30.9458 3.31898 30.8948C3.1661 30.8369 3.08533 30.8057 3.08533 30.8057V29.9118V29.0434V28.5384V28.0208V27.1962V26.8935C3.08533 26.8935 3.2036 26.9302 3.42139 26.9996C3.531 27.0335 3.66658 27.0731 3.82379 27.1169C3.98244 27.1594 4.16562 27.199 4.36754 27.2358C4.57091 27.2725 4.79591 27.281 5.0411 27.2669C5.28485 27.2527 5.5488 27.2145 5.83005 27.1566C6.1113 27.0986 6.4113 27.0377 6.72572 26.9727C13.9661 25.4805 29.4796 22.2867 29.4796 22.2867C29.4796 22.2867 29.6109 22.2599 29.8085 22.2203C30.0061 22.192 30.2729 22.199 30.5412 22.2556C30.8123 22.3575 31.0835 22.5244 31.2883 22.7082C31.4931 22.9388 31.6301 23.1142 31.6301 23.1142C31.6301 23.1142 31.6287 23.2089 31.6273 23.3603C31.6244 23.513 31.62 23.711 31.6143 23.9331C31.6114 24.042 31.6071 24.1566 31.6042 24.274C31.5998 24.3928 31.5955 24.5187 31.5926 24.6502C31.5883 24.7832 31.5869 24.9246 31.584 25.0675C31.5825 25.2117 31.5811 25.3588 31.5797 25.5059C31.5797 25.7959 31.5782 26.0378 31.5782 26.1948C31.5768 26.3546 31.5768 26.4437 31.5768 26.4437Z" fill="white"/>
<path d="M31.5716 30.3874C31.5716 30.3874 31.475 30.3096 31.2918 30.1823C31.1072 30.072 30.8375 29.963 30.4913 29.9121C30.3168 29.922 30.125 29.9447 29.9144 29.9814C29.7038 30.0239 29.4759 30.072 29.2322 30.1229C24.0024 31.1992 11.4239 33.789 5.83787 34.9404C5.59556 34.9899 5.36623 35.0365 5.14989 35.0719C4.93498 35.1044 4.7345 35.1101 4.54844 35.103C4.36383 35.0846 4.19508 35.0606 4.04075 35.0337C3.73498 34.9672 3.49556 34.8937 3.33402 34.8343C3.17104 34.7692 3.08594 34.731 3.08594 34.731V34.4085V33.6617V32.7692V32.2997V31.8301V31.0818V30.806C3.08594 30.806 3.16671 30.8372 3.31959 30.8951C3.47392 30.9461 3.69892 31.0168 3.98882 31.0988C4.13306 31.1313 4.29315 31.1611 4.46912 31.1809C4.64508 31.1992 4.83402 31.2091 5.03883 31.2049C5.24364 31.1667 5.46143 31.1243 5.6922 31.0762C11.4557 29.8895 25.1504 27.0692 29.9144 26.089C30.125 26.0522 30.3168 26.0211 30.4913 25.9985C30.8389 26.0423 31.1115 26.1356 31.2961 26.2375C31.4808 26.3662 31.5774 26.444 31.5774 26.444C31.5774 26.444 31.5745 26.7778 31.5731 27.253C31.5716 27.3718 31.5716 27.5133 31.5702 27.6675C31.5702 27.8245 31.5687 28.0013 31.5687 28.1865C31.5687 28.3732 31.5687 28.5628 31.5673 28.7467C31.5673 28.9334 31.5673 29.1116 31.5687 29.2714C31.5687 29.6094 31.5687 29.8909 31.5702 30.0804C31.5716 30.277 31.5716 30.3874 31.5716 30.3874Z" fill="#0071BB"/>
<path d="M31.5811 34.3783C31.5811 34.3783 31.4816 34.2977 31.297 34.1605C31.1124 34.0361 30.8383 33.9031 30.4907 33.8239C30.3162 33.8211 30.1244 33.8395 29.9138 33.8734C29.7032 33.9172 29.4753 33.9639 29.233 34.0148C24.0032 35.0912 11.4233 37.681 5.83726 38.8309C5.59495 38.8818 5.36562 38.9299 5.14928 38.9681C4.93437 38.995 4.73389 39.0049 4.54783 39.0049C4.36322 38.995 4.19447 38.9738 4.04014 38.9455C3.73437 38.8634 3.49495 38.7828 3.33341 38.7093C3.17042 38.6386 3.08533 38.5933 3.08533 38.5933V38.3076V37.5622V37.0756V36.582V36.1223V35.7135V35.0389V34.7334C3.08533 34.7334 3.17187 34.7701 3.33485 34.8352C3.49494 34.8932 3.73437 34.9682 4.04014 35.0346C4.19447 35.0615 4.36322 35.087 4.54783 35.1054C4.73389 35.1124 4.93437 35.1068 5.14928 35.0728C5.36562 35.0389 5.59495 34.9922 5.83726 34.9413C11.4233 33.7914 24.0032 31.2002 29.233 30.1238C29.4753 30.0729 29.7032 30.0262 29.9138 29.9838C30.1244 29.9442 30.3162 29.9229 30.4907 29.9145C30.8369 29.964 31.1066 30.0729 31.2912 30.179C31.4744 30.3105 31.571 30.3883 31.571 30.3883C31.571 30.3883 31.5725 30.4944 31.5739 30.6754C31.5753 30.8579 31.5768 31.1111 31.5782 31.4236C31.5797 31.575 31.5797 31.7405 31.5797 31.9102C31.5811 32.0785 31.5811 32.2539 31.5811 32.4208C31.5811 32.5905 31.5811 32.7532 31.5811 32.9059V33.3699V34.0898V34.3783Z" fill="#EC1C24"/>
<path d="M19.2987 32.1155V32.4719H19.2793V32.1339C19.2882 32.1254 19.2912 32.124 19.2987 32.1155Z" fill="#EC1C24"/>
<path d="M19.2987 32.8251V33.2805C19.2927 33.2791 19.2867 33.2749 19.2793 33.2749V32.8293C19.2867 32.8279 19.2927 32.8265 19.2987 32.8251Z" fill="#EC1C24"/>
<path d="M28.5075 34.3544L30.4719 33.9357L31.9114 34.6104L31.8897 35.2002C31.8897 35.2016 31.9215 35.6712 30.8686 36.2695C30.2614 36.616 27.8412 37.7999 27.4791 38.1973C27.1171 38.5962 26.9671 39.384 26.9671 39.384L27.0421 37.3657L26.8705 34.7066L28.5075 34.3544Z" fill="#231F20"/>
<path d="M29.0094 18.5611V18.7112H29.002V18.5682C29.0049 18.5654 29.0064 18.5639 29.0094 18.5611Z" fill="#EC1C24"/>
<path d="M29.0094 18.8592V19.0474C29.0064 19.0474 29.0034 19.0459 29.002 19.0459V18.8607C29.0034 18.8592 29.0064 18.8592 29.0094 18.8592Z" fill="#EC1C24"/>
</svg>
